<svg width="3332" height="657" viewBox="0 0 3332 657" fill="none" xmlns="http://www.w3.org/2000/svg">
<mask id="path-1-inside-1" fill="white">
<path d="M1742 229H1725.5H1722V222L1702 218.5V227.5L1689 226L1680.5 221.5V210L1669 208L1658 212V223L1645 217L1633 216.5L1628.5 223L1622.5 221.5L1619 218.5L1608.5 217L1601.5 218.5L1585.5 216.5V221.5H1577.5V229L1568 230.5V205.5L1560 200.5L1550.5 192.5L1545 197.5L1542.5 205.5V230.5V241.5H1534.5V230.5L1527.5 227.5H1518.5L1516.5 208H1511.5L1508 227.5L1502.5 224V210L1494.5 208L1486 210H1472.5L1466.5 208V243.5L1465 239.5V233.5H1463V237.5H1453L1445 241.5L1431 239.5L1422.5 237.5L1420.5 243.5L1416.5 239.5V230.5H1407L1405.5 241.5H1402V227.5L1399.5 264.5H1391V269H1381.5L1379.5 243.5L1368 241.5V233.5H1361L1267 190H1227.5V216.5H1222H1215.5V221.5H1194.5V210H1190.5V190H1173V227.5L1169 221.5V214H1165V221.5L1159.5 227.5V210L1149 205.5H1140.5L1089 177.5L1047.5 173.5H1044V190L1039 192L1033 195H1026.5L1022 216.5H1016.5V181.5L1012.5 187.5V202L1008.5 192L895 195L880.5 190H859.5V195L852 198L839 195L834 198H817L807 195H798.5V181.5L795 195H772L768.5 204H764V212H760.5V217.5H757V204H744L741.5 214.5L737.5 206V210.5H730.5L727.5 220L725 229.5H719.5V181.5H684H672.5V198L546.5 206H535.5V212H528.5V216L524.5 214.5L519 217.5L518 201.5H504V210.5L501.5 201.5H491L489 223.5L486.5 227H482V198H477L474 220L367 213.5L362 214.5H358.5L357 210.5H354.5L349 213.5L345.5 214.5L342.5 213.5L339 214.5L335.5 213.5H334.5L331.5 214.5L328.5 213.5L326.5 214.5L252 213.5L247.5 216H242.5V213.5L236.5 212L232 213.5L226 212L223.5 213.5L217.5 212L214 213.5L207 214.5L206 212H201L197.5 213.5L195.5 212H189H113H97.5L87.5 216L79.5 208.5L72 212L67 208.5H56V216H49V208.5L44.5 205L42 216H33L23.5 205L15 222.5H0.5V506.5H3331.5V222.5L3324 212H3309V219.5L3288.5 215.25V208H3262.5L3260 219.5H3236.5V229H3231.5L3228.5 253L3225.5 217H3204V222.5H3193V229L3187 232.5V222.5L3181.5 226.5V217H3165.5V226.5H3161V210H3149.5V222.5H3145.5V217H3135L3130.5 238.5L3127 226.5L3123.5 253L3116.5 201.5H3107.5V217L3096 214.5V261.5H3091.5V212L3074.5 214.5L3060 210V242L3055.5 244V212L3049 232.5V214.5L3046 217H3028.5V226.5H3021.5V214.5H3009.5V226.5H3006V217H2997V212H2994V217H2982.5V212L2979.5 208L2970.5 214.5H2958L2954.5 229V217H2948.5L2928.5 233.5L2814.5 232.5V222.5H2808.5V232.5L2800 238.5H2786.5L2789 253L2767.5 242L2748 244L2735 258.5H2727V232.5L2576.5 227L2568.5 236V232.5H2562.5V236H2558V219.5H2551L2549.5 233.5H2552.5V238.5H2547.5L2545.5 248.5V238.5H2542L2538 244V249.5H2532.5V233.5L2528.5 240.5L2527 233.5H2522.5V229H2520.5V249.5H2517.5V242H2514.5L2513 233.5H2511.5V248.5H2506L2504.5 233.5H2502.5L2498 249.5L2486.5 248.5L2469 247V229L2437 232.5V274H2420V216H2409V221H2399.5V219.5H2393L2387 226V229H2385V233.5H2387V247H2376.5L2370.5 249.5V232.5H2368.5V224.5L2364.5 217.5L2357.5 218.5L2351 208V219.5L2344.5 226.5L2338 226H2325.5V229L2322.5 226.5H2314.5V229H2312V226.5H2304V224.5H2299V237L2293 237.5V229H2268.5V235H2271.5V256.5H2262.5V274H2260V254L2258.5 229L2256.5 224.5H2252V226.5H2238V211.5H2236.5V229H2213.5V252.5L2209.5 250H2196L2192.5 252.5H2173.5V247L2170.5 252.5H2166V248.5L2164 252.5H2161V245.5H2142.5L2139 256.5H2125.5V247H2116V250H2089.5V226H2070.5V232.5H2073V238.5H2060V237L2058.5 237.5V219.5H2056.5L2055.5 218.5H2041L2040.5 219.5H2038.5V238.5H2036V235H2035V214.5L2024.5 217.5V224.5H2013.5V226.5H2012V232.5H2010.5V238.5H2007.5V234H2006V229H2004.5V232.5H2001V224.5H1994.5V213.5H1992.5V206H1983V224.5H1970V237.5H1958V230H1952.5V234.5H1954.5V238.5H1952.5L1951 237.5V218.5H1948.5V220.5H1944.5L1933 217H1927.5L1924.5 223V226H1923V220.5H1913V224.5L1908.5 227.5V234.5H1905V232.5H1900.5V223H1899V227.5H1898V232.5H1895.5V226H1873.14L1872.5 218.5L1850 222L1848.5 226V233.5H1847V216L1838.5 218.5V226H1833.5V227.5H1831.5V217L1820 214.5H1811.5V223H1810.5L1807.5 209L1800 212L1798 224.5H1786V227.5H1772.5V231H1768.5L1765.5 233.5V238H1756.5V233.5H1752.5L1751 238H1742V229Z"/>
</mask>
<path d="M1742 229H1725.5H1722V222L1702 218.5V227.5L1689 226L1680.5 221.5V210L1669 208L1658 212V223L1645 217L1633 216.5L1628.5 223L1622.5 221.5L1619 218.5L1608.5 217L1601.5 218.5L1585.5 216.5V221.5H1577.5V229L1568 230.5V205.5L1560 200.5L1550.5 192.5L1545 197.5L1542.5 205.5V230.5V241.5H1534.5V230.5L1527.5 227.5H1518.5L1516.5 208H1511.5L1508 227.5L1502.5 224V210L1494.5 208L1486 210H1472.5L1466.5 208V243.5L1465 239.5V233.5H1463V237.5H1453L1445 241.5L1431 239.5L1422.5 237.5L1420.5 243.5L1416.5 239.5V230.5H1407L1405.5 241.5H1402V227.5L1399.5 264.5H1391V269H1381.5L1379.5 243.5L1368 241.5V233.5H1361L1267 190H1227.5V216.5H1222H1215.5V221.5H1194.5V210H1190.5V190H1173V227.5L1169 221.5V214H1165V221.5L1159.5 227.5V210L1149 205.5H1140.5L1089 177.5L1047.5 173.5H1044V190L1039 192L1033 195H1026.5L1022 216.5H1016.5V181.5L1012.5 187.5V202L1008.5 192L895 195L880.5 190H859.5V195L852 198L839 195L834 198H817L807 195H798.5V181.5L795 195H772L768.5 204H764V212H760.5V217.5H757V204H744L741.5 214.5L737.5 206V210.5H730.5L727.5 220L725 229.5H719.5V181.5H684H672.5V198L546.5 206H535.5V212H528.5V216L524.5 214.5L519 217.5L518 201.5H504V210.5L501.5 201.5H491L489 223.5L486.5 227H482V198H477L474 220L367 213.5L362 214.5H358.5L357 210.5H354.5L349 213.5L345.5 214.5L342.5 213.5L339 214.5L335.5 213.5H334.5L331.5 214.5L328.5 213.5L326.5 214.5L252 213.5L247.5 216H242.5V213.5L236.5 212L232 213.5L226 212L223.5 213.5L217.5 212L214 213.5L207 214.5L206 212H201L197.5 213.5L195.5 212H189H113H97.5L87.5 216L79.5 208.5L72 212L67 208.5H56V216H49V208.5L44.5 205L42 216H33L23.5 205L15 222.5H0.5V506.5H3331.5V222.5L3324 212H3309V219.5L3288.5 215.25V208H3262.5L3260 219.5H3236.5V229H3231.5L3228.5 253L3225.5 217H3204V222.5H3193V229L3187 232.5V222.5L3181.5 226.5V217H3165.5V226.5H3161V210H3149.5V222.5H3145.5V217H3135L3130.5 238.5L3127 226.5L3123.5 253L3116.5 201.5H3107.5V217L3096 214.5V261.5H3091.5V212L3074.5 214.5L3060 210V242L3055.5 244V212L3049 232.5V214.5L3046 217H3028.5V226.5H3021.5V214.5H3009.5V226.5H3006V217H2997V212H2994V217H2982.5V212L2979.5 208L2970.5 214.5H2958L2954.5 229V217H2948.5L2928.5 233.5L2814.5 232.5V222.5H2808.5V232.5L2800 238.5H2786.5L2789 253L2767.5 242L2748 244L2735 258.5H2727V232.5L2576.5 227L2568.5 236V232.5H2562.5V236H2558V219.5H2551L2549.5 233.5H2552.5V238.5H2547.5L2545.5 248.5V238.5H2542L2538 244V249.5H2532.5V233.5L2528.5 240.5L2527 233.5H2522.5V229H2520.5V249.5H2517.5V242H2514.5L2513 233.5H2511.5V248.5H2506L2504.5 233.5H2502.5L2498 249.5L2486.5 248.5L2469 247V229L2437 232.5V274H2420V216H2409V221H2399.5V219.5H2393L2387 226V229H2385V233.5H2387V247H2376.5L2370.5 249.5V232.5H2368.5V224.5L2364.5 217.5L2357.5 218.5L2351 208V219.5L2344.5 226.5L2338 226H2325.5V229L2322.5 226.5H2314.5V229H2312V226.5H2304V224.5H2299V237L2293 237.5V229H2268.5V235H2271.5V256.5H2262.5V274H2260V254L2258.5 229L2256.5 224.5H2252V226.5H2238V211.5H2236.5V229H2213.5V252.5L2209.5 250H2196L2192.5 252.5H2173.5V247L2170.5 252.5H2166V248.5L2164 252.5H2161V245.5H2142.5L2139 256.5H2125.5V247H2116V250H2089.5V226H2070.5V232.5H2073V238.5H2060V237L2058.5 237.5V219.5H2056.5L2055.5 218.5H2041L2040.5 219.5H2038.5V238.5H2036V235H2035V214.5L2024.5 217.5V224.5H2013.5V226.5H2012V232.5H2010.5V238.5H2007.5V234H2006V229H2004.5V232.5H2001V224.5H1994.5V213.5H1992.5V206H1983V224.5H1970V237.5H1958V230H1952.5V234.5H1954.5V238.5H1952.5L1951 237.5V218.5H1948.5V220.5H1944.5L1933 217H1927.5L1924.5 223V226H1923V220.5H1913V224.5L1908.5 227.5V234.5H1905V232.5H1900.5V223H1899V227.5H1898V232.5H1895.5V226H1873.14L1872.5 218.5L1850 222L1848.5 226V233.5H1847V216L1838.5 218.5V226H1833.5V227.5H1831.5V217L1820 214.5H1811.5V223H1810.5L1807.5 209L1800 212L1798 224.5H1786V227.5H1772.5V231H1768.5L1765.5 233.5V238H1756.5V233.5H1752.5L1751 238H1742V229Z" fill="#A296E5"/>
<path d="M3288 215.25V222.5H3289V215.25H3288ZM1567.5 230.5V243.5H1568.5V230.5H1567.5ZM1742 229H1743V228H1742V229ZM1742 238H1741V239H1742V238ZM1751 238V239H1751.72L1751.95 238.316L1751 238ZM1752.5 233.5V232.5H1751.78L1751.55 233.184L1752.5 233.5ZM1756.5 233.5H1757.5V232.5H1756.5V233.5ZM1756.5 238H1755.5V239H1756.5V238ZM1765.5 238V239H1766.5V238H1765.5ZM1765.5 233.5L1764.86 232.732L1764.5 233.032V233.5H1765.5ZM1768.5 231V230H1768.14L1767.86 230.232L1768.5 231ZM1772.5 231V232H1773.5V231H1772.5ZM1772.5 227.5V226.5H1771.5V227.5H1772.5ZM1786 227.5V228.5H1787V227.5H1786ZM1786 224.5V223.5H1785V224.5H1786ZM1798 224.5V225.5H1798.85L1798.99 224.658L1798 224.5ZM1800 212L1799.63 211.072L1799.1 211.282L1799.01 211.842L1800 212ZM1807.5 209L1808.48 208.79L1808.23 207.631L1807.13 208.072L1807.5 209ZM1810.5 223L1809.52 223.21L1809.69 224H1810.5V223ZM1811.5 223V224H1812.5V223H1811.5ZM1811.5 214.5V213.5H1810.5V214.5H1811.5ZM1820 214.5L1820.21 213.523L1820.11 213.5H1820V214.5ZM1831.5 217H1832.5V216.194L1831.71 216.023L1831.5 217ZM1831.5 227.5H1830.5V228.5H1831.5V227.5ZM1833.5 227.5V228.5H1834.5V227.5H1833.5ZM1833.5 226V225H1832.5V226H1833.5ZM1838.5 226V227H1839.5V226H1838.5ZM1838.5 218.5L1838.22 217.541L1837.5 217.752V218.5H1838.5ZM1847 216H1848V214.664L1846.72 215.041L1847 216ZM1847 233.5H1846V234.5H1847V233.5ZM1848.5 233.5V234.5H1849.5V233.5H1848.5ZM1848.5 226L1847.56 225.649L1847.5 225.819V226H1848.5ZM1850 222L1849.85 221.012L1849.27 221.102L1849.06 221.649L1850 222ZM1872.5 218.5L1873.5 218.415L1873.41 217.347L1872.35 217.512L1872.5 218.5ZM1873.14 226L1872.14 226.085L1872.22 227H1873.14V226ZM1895.5 226H1896.5V225H1895.5V226ZM1895.5 232.5H1894.5V233.5H1895.5V232.5ZM1898 232.5V233.5H1899V232.5H1898ZM1898 227.5V226.5H1897V227.5H1898ZM1899 227.5V228.5H1900V227.5H1899ZM1899 223V222H1898V223H1899ZM1900.5 223H1901.5V222H1900.5V223ZM1900.5 232.5H1899.5V233.5H1900.5V232.5ZM1905 232.5H1906V231.5H1905V232.5ZM1905 234.5H1904V235.5H1905V234.5ZM1908.5 234.5V235.5H1909.5V234.5H1908.5ZM1908.5 227.5L1907.95 226.668L1907.5 226.965V227.5H1908.5ZM1913 224.5L1913.55 225.332L1914 225.035V224.5H1913ZM1913 220.5V219.5H1912V220.5H1913ZM1923 220.5H1924V219.5H1923V220.5ZM1923 226H1922V227H1923V226ZM1924.5 226V227H1925.5V226H1924.5ZM1924.5 223L1923.61 222.553L1923.5 222.764V223H1924.5ZM1927.5 217V216H1926.88L1926.61 216.553L1927.5 217ZM1933 217L1933.29 216.043L1933.15 216H1933V217ZM1944.5 220.5L1944.21 221.457L1944.35 221.5H1944.5V220.5ZM1948.5 220.5V221.5H1949.5V220.5H1948.5ZM1948.5 218.5V217.5H1947.5V218.5H1948.5ZM1951 218.5H1952V217.5H1951V218.5ZM1951 237.5H1950V238.035L1950.45 238.332L1951 237.5ZM1952.5 238.5L1951.95 239.332L1952.2 239.5H1952.5V238.5ZM1954.5 238.5V239.5H1955.5V238.5H1954.5ZM1954.5 234.5H1955.5V233.5H1954.5V234.5ZM1952.5 234.5H1951.5V235.5H1952.5V234.5ZM1952.5 230V229H1951.5V230H1952.5ZM1958 230H1959V229H1958V230ZM1958 237.5H1957V238.5H1958V237.5ZM1970 237.5V238.5H1971V237.5H1970ZM1970 224.5V223.5H1969V224.5H1970ZM1983 224.5V225.5H1984V224.5H1983ZM1983 206V205H1982V206H1983ZM1992.5 206H1993.5V205H1992.5V206ZM1992.5 213.5H1991.5V214.5H1992.5V213.5ZM1994.5 213.5H1995.5V212.5H1994.5V213.5ZM1994.5 224.5H1993.5V225.5H1994.5V224.5ZM2001 224.5H2002V223.5H2001V224.5ZM2001 232.5H2000V233.5H2001V232.5ZM2004.5 232.5V233.5H2005.5V232.5H2004.5ZM2004.5 229V228H2003.5V229H2004.5ZM2006 229H2007V228H2006V229ZM2006 234H2005V235H2006V234ZM2007.5 234H2008.5V233H2007.5V234ZM2007.5 238.5H2006.5V239.5H2007.5V238.5ZM2010.5 238.5V239.5H2011.5V238.5H2010.5ZM2010.5 232.5V231.5H2009.5V232.5H2010.5ZM2012 232.5V233.5H2013V232.5H2012ZM2012 226.5V225.5H2011V226.5H2012ZM2013.5 226.5V227.5H2014.5V226.5H2013.5ZM2013.5 224.5V223.5H2012.5V224.5H2013.5ZM2024.5 224.5V225.5H2025.5V224.5H2024.5ZM2024.5 217.5L2024.23 216.538L2023.5 216.746V217.5H2024.5ZM2035 214.5H2036V213.174L2034.73 213.538L2035 214.5ZM2035 235H2034V236H2035V235ZM2036 235H2037V234H2036V235ZM2036 238.5H2035V239.5H2036V238.5ZM2038.5 238.5V239.5H2039.5V238.5H2038.5ZM2038.5 219.5V218.5H2037.5V219.5H2038.5ZM2040.5 219.5V220.5H2041.12L2041.39 219.947L2040.5 219.5ZM2041 218.5V217.5H2040.38L2040.11 218.053L2041 218.5ZM2055.5 218.5L2056.21 217.793L2055.91 217.5H2055.5V218.5ZM2056.5 219.5L2055.79 220.207L2056.09 220.5H2056.5V219.5ZM2058.5 219.5H2059.5V218.5H2058.5V219.5ZM2058.5 237.5H2057.5V238.887L2058.82 238.449L2058.5 237.5ZM2060 237H2061V235.613L2059.68 236.051L2060 237ZM2060 238.5H2059V239.5H2060V238.5ZM2073 238.5V239.5H2074V238.5H2073ZM2073 232.5H2074V231.5H2073V232.5ZM2070.5 232.5H2069.5V233.5H2070.5V232.5ZM2070.5 226V225H2069.5V226H2070.5ZM2089.5 226H2090.5V225H2089.5V226ZM2089.5 250H2088.5V251H2089.5V250ZM2116 250V251H2117V250H2116ZM2116 247V246H2115V247H2116ZM2125.5 247H2126.5V246H2125.5V247ZM2125.5 256.5H2124.5V257.5H2125.5V256.5ZM2139 256.5V257.5H2139.73L2139.95 256.803L2139 256.5ZM2142.5 245.5V244.5H2141.77L2141.55 245.197L2142.5 245.5ZM2161 245.5H2162V244.5H2161V245.5ZM2161 252.5H2160V253.5H2161V252.5ZM2164 252.5V253.5H2164.62L2164.89 252.947L2164 252.5ZM2166 248.5H2167L2165.11 248.053L2166 248.5ZM2166 252.5H2165V253.5H2166V252.5ZM2170.5 252.5V253.5H2171.09L2171.38 252.979L2170.5 252.5ZM2173.5 247H2174.5L2172.62 246.521L2173.5 247ZM2173.5 252.5H2172.5V253.5H2173.5V252.5ZM2192.5 252.5V253.5H2192.82L2193.08 253.314L2192.5 252.5ZM2196 250V249H2195.68L2195.42 249.186L2196 250ZM2209.5 250L2210.03 249.152L2209.79 249H2209.5V250ZM2213.5 252.5L2212.97 253.348L2214.5 254.304V252.5H2213.5ZM2213.5 229V228H2212.5V229H2213.5ZM2236.5 229V230H2237.5V229H2236.5ZM2236.5 211.5V210.5H2235.5V211.5H2236.5ZM2238 211.5H2239V210.5H2238V211.5ZM2238 226.5H2237V227.5H2238V226.5ZM2252 226.5V227.5H2253V226.5H2252ZM2252 224.5V223.5H2251V224.5H2252ZM2256.5 224.5L2257.41 224.094L2257.15 223.5H2256.5V224.5ZM2258.5 229L2259.5 228.94L2259.49 228.759L2259.41 228.594L2258.5 229ZM2260 254H2261V253.97L2261 253.94L2260 254ZM2260 274H2259V275H2260V274ZM2262.5 274V275H2263.5V274H2262.5ZM2262.5 256.5V255.5H2261.5V256.5H2262.5ZM2271.5 256.5V257.5H2272.5V256.5H2271.5ZM2271.5 235H2272.5V234H2271.5V235ZM2268.5 235H2267.5V236H2268.5V235ZM2268.5 229V228H2267.5V229H2268.5ZM2293 229H2294V228H2293V229ZM2293 237.5H2292V238.587L2293.08 238.497L2293 237.5ZM2299 237L2299.08 237.997L2300 237.92V237H2299ZM2299 224.5V223.5H2298V224.5H2299ZM2304 224.5H2305V223.5H2304V224.5ZM2304 226.5H2303V227.5H2304V226.5ZM2312 226.5H2313V225.5H2312V226.5ZM2312 229H2311V230H2312V229ZM2314.5 229V230H2315.5V229H2314.5ZM2314.5 226.5V225.5H2313.5V226.5H2314.5ZM2322.5 226.5L2323.14 225.732L2322.86 225.5H2322.5V226.5ZM2325.5 229L2324.86 229.768L2326.5 231.135V229H2325.5ZM2325.5 226V225H2324.5V226H2325.5ZM2338 226L2338.08 225.003L2338.04 225H2338V226ZM2344.5 226.5L2344.42 227.497L2344.9 227.534L2345.23 227.18L2344.5 226.5ZM2351 219.5L2351.73 220.18L2352 219.893V219.5H2351ZM2351 208L2351.85 207.474L2350 204.485V208H2351ZM2357.5 218.5L2356.65 219.026L2356.99 219.582L2357.64 219.49L2357.5 218.5ZM2364.5 217.5L2365.37 217.004L2365.03 216.414L2364.36 216.51L2364.5 217.5ZM2368.5 224.5H2369.5V224.234L2369.37 224.004L2368.5 224.5ZM2368.5 232.5H2367.5V233.5H2368.5V232.5ZM2370.5 232.5H2371.5V231.5H2370.5V232.5ZM2370.5 249.5H2369.5V251L2370.88 250.423L2370.5 249.5ZM2376.5 247V246H2376.3L2376.12 246.077L2376.5 247ZM2387 247V248H2388V247H2387ZM2387 233.5H2388V232.5H2387V233.5ZM2385 233.5H2384V234.5H2385V233.5ZM2385 229V228H2384V229H2385ZM2387 229V230H2388V229H2387ZM2387 226L2386.27 225.322L2386 225.609V226H2387ZM2393 219.5V218.5H2392.56L2392.27 218.822L2393 219.5ZM2399.5 219.5H2400.5V218.5H2399.5V219.5ZM2399.5 221H2398.5V222H2399.5V221ZM2409 221V222H2410V221H2409ZM2409 216V215H2408V216H2409ZM2420 216H2421V215H2420V216ZM2420 274H2419V275H2420V274ZM2437 274V275H2438V274H2437ZM2437 232.5L2436.89 231.506L2436 231.603V232.5H2437ZM2469 229H2470V227.885L2468.89 228.006L2469 229ZM2469 247H2468V247.918L2468.91 247.996L2469 247ZM2486.5 248.5L2486.59 247.504L2486.59 247.504L2486.5 248.5ZM2498 249.5L2497.91 250.496L2498.74 250.568L2498.96 249.771L2498 249.5ZM2502.5 233.5V232.5H2501.74L2501.54 233.229L2502.5 233.5ZM2504.5 233.5L2505.5 233.4L2505.41 232.5H2504.5V233.5ZM2506 248.5L2505 248.6L2505.09 249.5H2506V248.5ZM2511.5 248.5V249.5H2512.5V248.5H2511.5ZM2511.5 233.5V232.5H2510.5V233.5H2511.5ZM2513 233.5L2513.98 233.326L2513.84 232.5H2513V233.5ZM2514.5 242L2513.52 242.174L2513.66 243H2514.5V242ZM2517.5 242H2518.5V241H2517.5V242ZM2517.5 249.5H2516.5V250.5H2517.5V249.5ZM2520.5 249.5V250.5H2521.5V249.5H2520.5ZM2520.5 229V228H2519.5V229H2520.5ZM2522.5 229H2523.5V228H2522.5V229ZM2522.5 233.5H2521.5V234.5H2522.5V233.5ZM2527 233.5L2527.98 233.29L2527.81 232.5H2527V233.5ZM2528.5 240.5L2527.52 240.71L2528.07 243.267L2529.37 240.996L2528.5 240.5ZM2532.5 233.5H2533.5V229.734L2531.63 233.004L2532.5 233.5ZM2532.5 249.5H2531.5V250.5H2532.5V249.5ZM2538 249.5V250.5H2539V249.5H2538ZM2538 244L2537.19 243.412L2537 243.675V244H2538ZM2542 238.5V237.5H2541.49L2541.19 237.912L2542 238.5ZM2545.5 238.5H2546.5V237.5H2545.5V238.5ZM2545.5 248.5H2544.5L2546.48 248.696L2545.5 248.5ZM2547.5 238.5V237.5H2546.68L2546.52 238.304L2547.5 238.5ZM2552.5 238.5V239.5H2553.5V238.5H2552.5ZM2552.5 233.5H2553.5V232.5H2552.5V233.5ZM2549.5 233.5L2548.51 233.393L2548.39 234.5H2549.5V233.5ZM2551 219.5V218.5H2550.1L2550.01 219.393L2551 219.5ZM2558 219.5H2559V218.5H2558V219.5ZM2558 236H2557V237H2558V236ZM2562.5 236V237H2563.5V236H2562.5ZM2562.5 232.5V231.5H2561.5V232.5H2562.5ZM2568.5 232.5H2569.5V231.5H2568.5V232.5ZM2568.5 236H2567.5V238.63L2569.25 236.664L2568.5 236ZM2576.5 227L2576.54 226.001L2576.07 225.983L2575.75 226.336L2576.5 227ZM2727 232.5H2728V231.536L2727.04 231.501L2727 232.5ZM2727 258.5H2726V259.5H2727V258.5ZM2735 258.5V259.5H2735.45L2735.74 259.168L2735 258.5ZM2748 244L2747.9 243.005L2747.51 243.045L2747.26 243.332L2748 244ZM2767.5 242L2767.96 241.11L2767.69 240.975L2767.4 241.005L2767.5 242ZM2789 253L2788.54 253.89L2790.33 254.801L2789.99 252.83L2789 253ZM2786.5 238.5V237.5H2785.31L2785.51 238.67L2786.5 238.5ZM2800 238.5V239.5H2800.32L2800.58 239.317L2800 238.5ZM2808.5 232.5L2809.08 233.317L2809.5 233.018V232.5H2808.5ZM2808.5 222.5V221.5H2807.5V222.5H2808.5ZM2814.5 222.5H2815.5V221.5H2814.5V222.5ZM2814.5 232.5H2813.5V233.491L2814.49 233.5L2814.5 232.5ZM2928.5 233.5L2928.49 234.5L2928.86 234.503L2929.14 234.271L2928.5 233.5ZM2948.5 217V216H2948.14L2947.86 216.229L2948.5 217ZM2954.5 217H2955.5V216H2954.5V217ZM2954.5 229H2953.5L2955.47 229.235L2954.5 229ZM2958 214.5V213.5H2957.21L2957.03 214.265L2958 214.5ZM2970.5 214.5V215.5H2970.82L2971.09 215.311L2970.5 214.5ZM2979.5 208L2980.3 207.4L2979.71 206.614L2978.91 207.189L2979.5 208ZM2982.5 212H2983.5V211.667L2983.3 211.4L2982.5 212ZM2982.5 217H2981.5V218H2982.5V217ZM2994 217V218H2995V217H2994ZM2994 212V211H2993V212H2994ZM2997 212H2998V211H2997V212ZM2997 217H2996V218H2997V217ZM3006 217H3007V216H3006V217ZM3006 226.5H3005V227.5H3006V226.5ZM3009.5 226.5V227.5H3010.5V226.5H3009.5ZM3009.5 214.5V213.5H3008.5V214.5H3009.5ZM3021.5 214.5H3022.5V213.5H3021.5V214.5ZM3021.5 226.5H3020.5V227.5H3021.5V226.5ZM3028.5 226.5V227.5H3029.5V226.5H3028.5ZM3028.5 217V216H3027.5V217H3028.5ZM3046 217V218H3046.36L3046.64 217.768L3046 217ZM3049 214.5H3050V212.365L3048.36 213.732L3049 214.5ZM3049 232.5H3048L3049.95 232.802L3049 232.5ZM3055.5 212H3056.5L3054.55 211.698L3055.5 212ZM3055.5 244H3054.5V245.539L3055.91 244.914L3055.5 244ZM3060 242L3060.41 242.914L3061 242.65V242H3060ZM3060 210L3060.3 209.045L3059 208.643V210H3060ZM3074.5 214.5L3074.2 215.455L3074.42 215.522L3074.65 215.489L3074.5 214.5ZM3091.5 212H3092.5V210.842L3091.35 211.011L3091.5 212ZM3091.5 261.5H3090.5V262.5H3091.5V261.5ZM3096 261.5V262.5H3097V261.5H3096ZM3096 214.5L3096.21 213.523L3095 213.259V214.5H3096ZM3107.5 217L3107.29 217.977L3108.5 218.241V217H3107.5ZM3107.5 201.5V200.5H3106.5V201.5H3107.5ZM3116.5 201.5L3117.49 201.365L3117.37 200.5H3116.5V201.5ZM3123.5 253L3122.51 253.135L3124.49 253.131L3123.5 253ZM3127 226.5L3127.96 226.22L3126.01 226.369L3127 226.5ZM3130.5 238.5L3129.54 238.78L3131.48 238.705L3130.5 238.5ZM3135 217V216H3134.19L3134.02 216.795L3135 217ZM3145.5 217H3146.5V216H3145.5V217ZM3145.5 222.5H3144.5V223.5H3145.5V222.5ZM3149.5 222.5V223.5H3150.5V222.5H3149.5ZM3149.5 210V209H3148.5V210H3149.5ZM3161 210H3162V209H3161V210ZM3161 226.5H3160V227.5H3161V226.5ZM3165.5 226.5V227.5H3166.5V226.5H3165.5ZM3165.5 217V216H3164.5V217H3165.5ZM3181.5 217H3182.5V216H3181.5V217ZM3181.5 226.5H3180.5V228.464L3182.09 227.309L3181.5 226.5ZM3187 222.5H3188V220.536L3186.41 221.691L3187 222.5ZM3187 232.5H3186V234.241L3187.5 233.364L3187 232.5ZM3193 229L3193.5 229.864L3194 229.574V229H3193ZM3193 222.5V221.5H3192V222.5H3193ZM3204 222.5V223.5H3205V222.5H3204ZM3204 217V216H3203V217H3204ZM3225.5 217L3226.5 216.917L3226.42 216H3225.5V217ZM3228.5 253L3227.5 253.083L3229.49 253.124L3228.5 253ZM3231.5 229V228H3230.62L3230.51 228.876L3231.5 229ZM3236.5 229V230H3237.5V229H3236.5ZM3236.5 219.5V218.5H3235.5V219.5H3236.5ZM3260 219.5V220.5H3260.81L3260.98 219.712L3260 219.5ZM3262.5 208V207H3261.69L3261.52 207.788L3262.5 208ZM3288.5 208H3289.5V207H3288.5V208ZM3288.5 215.25H3287.5V216.064L3288.3 216.229L3288.5 215.25ZM3309 219.5L3308.8 220.479L3310 220.729V219.5H3309ZM3309 212V211H3308V212H3309ZM3324 212L3324.81 211.419L3324.51 211H3324V212ZM3331.5 222.5H3332.5V222.18L3332.31 221.919L3331.5 222.5ZM3331.5 506.5V507.5H3332.5V506.5H3331.5ZM0.5 506.5H-0.5V507.5H0.5V506.5ZM0.5 222.5V221.5H-0.5V222.5H0.5ZM15 222.5V223.5H15.626L15.8995 222.937L15 222.5ZM23.5 205L24.2568 204.346L23.2641 203.197L22.6005 204.563L23.5 205ZM33 216L32.2432 216.654L32.5423 217H33V216ZM42 216V217H42.7982L42.9751 216.222L42 216ZM44.5 205L45.1139 204.211L43.8732 203.246L43.5249 204.778L44.5 205ZM49 208.5H50V208.011L49.6139 207.711L49 208.5ZM49 216H48V217H49V216ZM56 216V217H57V216H56ZM56 208.5V207.5H55V208.5H56ZM67 208.5L67.5735 207.681L67.3152 207.5H67V208.5ZM72 212L71.4265 212.819L71.8996 213.15L72.4229 212.906L72 212ZM79.5 208.5L80.1839 207.77L79.6903 207.308L79.0771 207.594L79.5 208.5ZM87.5 216L86.8161 216.73L87.2804 217.165L87.8714 216.928L87.5 216ZM97.5 212V211H97.3074L97.1286 211.072L97.5 212ZM195.5 212L196.1 211.2L195.833 211H195.5V212ZM197.5 213.5L196.9 214.3L197.363 214.647L197.894 214.419L197.5 213.5ZM201 212V211H200.795L200.606 211.081L201 212ZM206 212L206.928 211.629L206.677 211H206V212ZM207 214.5L206.072 214.871L206.363 215.601L207.141 215.49L207 214.5ZM214 213.5L214.141 214.49L214.272 214.471L214.394 214.419L214 213.5ZM217.5 212L217.743 211.03L217.416 210.948L217.106 211.081L217.5 212ZM223.5 213.5L223.257 214.47L223.659 214.571L224.014 214.357L223.5 213.5ZM226 212L226.243 211.03L225.841 210.929L225.486 211.143L226 212ZM232 213.5L231.757 214.47L232.04 214.541L232.316 214.449L232 213.5ZM236.5 212L236.743 211.03L236.46 210.959L236.184 211.051L236.5 212ZM242.5 213.5H243.5V212.719L242.743 212.53L242.5 213.5ZM242.5 216H241.5V217H242.5V216ZM247.5 216V217H247.759L247.986 216.874L247.5 216ZM252 213.5L252.013 212.5L251.747 212.497L251.514 212.626L252 213.5ZM326.5 214.5L326.487 215.5L326.73 215.503L326.947 215.394L326.5 214.5ZM328.5 213.5L328.816 212.551L328.423 212.42L328.053 212.606L328.5 213.5ZM331.5 214.5L331.184 215.449L331.5 215.554L331.816 215.449L331.5 214.5ZM334.5 213.5V212.5H334.338L334.184 212.551L334.5 213.5ZM335.5 213.5L335.775 212.538L335.64 212.5H335.5V213.5ZM339 214.5L338.725 215.462L339 215.54L339.275 215.462L339 214.5ZM342.5 213.5L342.816 212.551L342.523 212.453L342.225 212.538L342.5 213.5ZM345.5 214.5L345.184 215.449L345.477 215.547L345.775 215.462L345.5 214.5ZM349 213.5L349.275 214.462L349.381 214.431L349.479 214.378L349 213.5ZM354.5 210.5V209.5H354.245L354.021 209.622L354.5 210.5ZM357 210.5L357.936 210.149L357.693 209.5H357V210.5ZM358.5 214.5L357.564 214.851L357.807 215.5H358.5V214.5ZM362 214.5V215.5H362.099L362.196 215.481L362 214.5ZM367 213.5L367.061 212.502L366.931 212.494L366.804 212.519L367 213.5ZM474 220L473.939 220.998L474.865 221.054L474.991 220.135L474 220ZM477 198V197H476.127L476.009 197.865L477 198ZM482 198H483V197H482V198ZM482 227H481V228H482V227ZM486.5 227V228H487.015L487.314 227.581L486.5 227ZM489 223.5L489.814 224.081L489.971 223.861L489.996 223.591L489 223.5ZM491 201.5V200.5H490.087L490.004 201.409L491 201.5ZM501.5 201.5L502.464 201.232L502.26 200.5H501.5V201.5ZM504 210.5L503.036 210.768L505 210.5H504ZM504 201.5V200.5H503V201.5H504ZM518 201.5L518.998 201.438L518.939 200.5H518V201.5ZM519 217.5L518.002 217.562L518.1 219.13L519.479 218.378L519 217.5ZM524.5 214.5L524.851 213.564L524.423 213.403L524.021 213.622L524.5 214.5ZM528.5 216L528.149 216.936L529.5 217.443V216H528.5ZM528.5 212V211H527.5V212H528.5ZM535.5 212V213H536.5V212H535.5ZM535.5 206V205H534.5V206H535.5ZM546.5 206V207H546.532L546.563 206.998L546.5 206ZM672.5 198L672.563 198.998L673.5 198.939V198H672.5ZM672.5 181.5V180.5H671.5V181.5H672.5ZM719.5 181.5H720.5V180.5H719.5V181.5ZM719.5 229.5H718.5V230.5H719.5V229.5ZM725 229.5V230.5H725.771L725.967 229.754L725 229.5ZM727.5 220L726.546 219.699L726.539 219.722L726.533 219.746L727.5 220ZM730.5 210.5V209.5H729.767L729.546 210.199L730.5 210.5ZM737.5 210.5V211.5H738.5V210.5H737.5ZM737.5 206L738.405 205.574L736.5 206H737.5ZM741.5 214.5L740.595 214.926L741.811 217.51L742.473 214.732L741.5 214.5ZM744 204V203H743.21L743.027 203.768L744 204ZM757 204H758V203H757V204ZM757 217.5H756V218.5H757V217.5ZM760.5 217.5V218.5H761.5V217.5H760.5ZM760.5 212V211H759.5V212H760.5ZM764 212V213H765V212H764ZM764 204V203H763V204H764ZM768.5 204V205H769.184L769.432 204.362L768.5 204ZM772 195V194H771.316L771.068 194.638L772 195ZM795 195V196H795.774L795.968 195.251L795 195ZM798.5 181.5H799.5L797.532 181.249L798.5 181.5ZM798.5 195H797.5V196H798.5V195ZM807 195L807.287 194.042L807.147 194H807V195ZM817 198L816.713 198.958L816.853 199H817V198ZM834 198V199H834.277L834.514 198.857L834 198ZM839 195L839.225 194.026L838.832 193.935L838.486 194.143L839 195ZM852 198L851.775 198.974L852.08 199.045L852.371 198.928L852 198ZM859.5 195L859.871 195.928L860.5 195.677V195H859.5ZM859.5 190V189H858.5V190H859.5ZM880.5 190L880.826 189.055L880.668 189H880.5V190ZM895 195L894.674 195.945L894.845 196.004L895.026 196L895 195ZM1008.5 192L1009.43 191.629L1009.17 190.982L1008.47 191L1008.5 192ZM1012.5 202L1011.57 202.371L1013.5 202H1012.5ZM1012.5 187.5L1011.67 186.945L1011.5 187.197V187.5H1012.5ZM1016.5 181.5H1017.5V178.197L1015.67 180.945L1016.5 181.5ZM1016.5 216.5H1015.5V217.5H1016.5V216.5ZM1022 216.5V217.5H1022.81L1022.98 216.705L1022 216.5ZM1026.5 195V194H1025.69L1025.52 194.795L1026.5 195ZM1033 195V196H1033.24L1033.45 195.894L1033 195ZM1039 192L1038.63 191.072L1038.59 191.087L1038.55 191.106L1039 192ZM1044 190L1044.37 190.928L1045 190.677V190H1044ZM1044 173.5V172.5H1043V173.5H1044ZM1047.5 173.5L1047.6 172.505L1047.55 172.5H1047.5V173.5ZM1089 177.5L1089.48 176.621L1089.3 176.524L1089.1 176.505L1089 177.5ZM1140.5 205.5L1140.02 206.379L1140.25 206.5H1140.5V205.5ZM1149 205.5L1149.39 204.581L1149.21 204.5H1149V205.5ZM1159.5 210H1160.5V209.341L1159.89 209.081L1159.5 210ZM1159.5 227.5H1158.5V230.071L1160.24 228.176L1159.5 227.5ZM1165 221.5L1165.74 222.176L1166 221.889V221.5H1165ZM1165 214V213H1164V214H1165ZM1169 214H1170V213H1169V214ZM1169 221.5H1168V221.803L1168.17 222.055L1169 221.5ZM1173 227.5L1172.17 228.055L1174 230.803V227.5H1173ZM1173 190V189H1172V190H1173ZM1190.5 190H1191.5V189H1190.5V190ZM1190.5 210H1189.5V211H1190.5V210ZM1194.5 210H1195.5V209H1194.5V210ZM1194.5 221.5H1193.5V222.5H1194.5V221.5ZM1215.5 221.5V222.5H1216.5V221.5H1215.5ZM1215.5 216.5V215.5H1214.5V216.5H1215.5ZM1227.5 216.5V217.5H1228.5V216.5H1227.5ZM1227.5 190V189H1226.5V190H1227.5ZM1267 190L1267.42 189.092L1267.22 189H1267V190ZM1361 233.5L1360.58 234.408L1360.78 234.5H1361V233.5ZM1368 233.5H1369V232.5H1368V233.5ZM1368 241.5H1367V242.341L1367.83 242.485L1368 241.5ZM1379.5 243.5L1380.5 243.422L1380.44 242.648L1379.67 242.515L1379.5 243.5ZM1381.5 269L1380.5 269.078L1380.58 270H1381.5V269ZM1391 269V270H1392V269H1391ZM1391 264.5V263.5H1390V264.5H1391ZM1399.5 264.5V265.5H1400.43L1400.5 264.567L1399.5 264.5ZM1402 227.5H1403L1401 227.433L1402 227.5ZM1402 241.5H1401V242.5H1402V241.5ZM1405.5 241.5V242.5H1406.37L1406.49 241.635L1405.5 241.5ZM1407 230.5V229.5H1406.13L1406.01 230.365L1407 230.5ZM1416.5 230.5H1417.5V229.5H1416.5V230.5ZM1416.5 239.5H1415.5V239.914L1415.79 240.207L1416.5 239.5ZM1420.5 243.5L1419.79 244.207L1420.94 245.351L1421.45 243.816L1420.5 243.5ZM1422.5 237.5L1422.73 236.527L1421.84 236.317L1421.55 237.184L1422.5 237.5ZM1431 239.5L1430.77 240.473L1430.81 240.484L1430.86 240.49L1431 239.5ZM1445 241.5L1444.86 242.49L1445.17 242.534L1445.45 242.394L1445 241.5ZM1453 237.5V236.5H1452.76L1452.55 236.606L1453 237.5ZM1463 237.5V238.5H1464V237.5H1463ZM1463 233.5V232.5H1462V233.5H1463ZM1465 233.5H1466V232.5H1465V233.5ZM1465 239.5H1464V239.681L1464.06 239.851L1465 239.5ZM1466.5 243.5L1465.56 243.851L1467.5 243.5H1466.5ZM1466.5 208L1466.82 207.051L1465.5 206.613V208H1466.5ZM1472.5 210L1472.18 210.949L1472.34 211H1472.5V210ZM1486 210V211H1486.12L1486.23 210.973L1486 210ZM1494.5 208L1494.74 207.03L1494.51 206.971L1494.27 207.027L1494.5 208ZM1502.5 210H1503.5V209.219L1502.74 209.03L1502.5 210ZM1502.5 224H1501.5V224.549L1501.96 224.844L1502.5 224ZM1508 227.5L1507.46 228.344L1508.72 229.144L1508.98 227.677L1508 227.5ZM1511.5 208V207H1510.66L1510.52 207.823L1511.5 208ZM1516.5 208L1517.49 207.898L1517.4 207H1516.5V208ZM1518.5 227.5L1517.51 227.602L1517.6 228.5H1518.5V227.5ZM1527.5 227.5L1527.89 226.581L1527.71 226.5H1527.5V227.5ZM1534.5 230.5H1535.5V229.841L1534.89 229.581L1534.5 230.5ZM1534.5 241.5H1533.5V242.5H1534.5V241.5ZM1542.5 241.5V242.5H1543.5V241.5H1542.5ZM1542.5 205.5L1541.55 205.202L1541.5 205.347V205.5H1542.5ZM1545 197.5L1544.33 196.76L1544.13 196.943L1544.05 197.202L1545 197.5ZM1550.5 192.5L1551.14 191.735L1550.47 191.171L1549.83 191.76L1550.5 192.5ZM1560 200.5L1559.36 201.265L1559.41 201.31L1559.47 201.348L1560 200.5ZM1568 205.5H1569V204.946L1568.53 204.652L1568 205.5ZM1568 230.5H1567V231.67L1568.16 231.488L1568 230.5ZM1577.5 229L1577.66 229.988L1578.5 229.854V229H1577.5ZM1577.5 221.5V220.5H1576.5V221.5H1577.5ZM1585.5 221.5V222.5H1586.5V221.5H1585.5ZM1585.5 216.5L1585.62 215.508L1584.5 215.367V216.5H1585.5ZM1601.5 218.5L1601.38 219.492L1601.54 219.513L1601.71 219.478L1601.5 218.5ZM1608.5 217L1608.64 216.01L1608.46 215.985L1608.29 216.022L1608.5 217ZM1619 218.5L1619.65 217.741L1619.43 217.551L1619.14 217.51L1619 218.5ZM1622.5 221.5L1621.85 222.259L1622.03 222.413L1622.26 222.47L1622.5 221.5ZM1628.5 223L1628.26 223.97L1628.93 224.138L1629.32 223.569L1628.5 223ZM1633 216.5L1633.04 215.501L1632.49 215.478L1632.18 215.931L1633 216.5ZM1645 217L1645.42 216.092L1645.24 216.009L1645.04 216.001L1645 217ZM1658 223L1657.58 223.908L1659 224.563V223H1658ZM1658 212L1657.66 211.06L1657 211.3V212H1658ZM1669 208L1669.17 207.015L1668.91 206.969L1668.66 207.06L1669 208ZM1680.5 210H1681.5V209.159L1680.67 209.015L1680.5 210ZM1680.5 221.5H1679.5V222.102L1680.03 222.384L1680.5 221.5ZM1689 226L1688.53 226.884L1688.7 226.972L1688.89 226.993L1689 226ZM1702 227.5L1701.89 228.493L1703 228.622V227.5H1702ZM1702 218.5L1702.17 217.515L1701 217.31V218.5H1702ZM1722 222H1723V221.16L1722.17 221.015L1722 222ZM1722 229H1721V230H1722V229ZM1725.5 230H1742V228H1725.5V230ZM1741 229V238H1743V229H1741ZM1742 239H1751V237H1742V239ZM1751.95 238.316L1753.45 233.816L1751.55 233.184L1750.05 237.684L1751.95 238.316ZM1752.5 234.5H1756.5V232.5H1752.5V234.5ZM1755.5 233.5V238H1757.5V233.5H1755.5ZM1756.5 239H1765.5V237H1756.5V239ZM1766.5 238V233.5H1764.5V238H1766.5ZM1766.14 234.268L1769.14 231.768L1767.86 230.232L1764.86 232.732L1766.14 234.268ZM1768.5 232H1772.5V230H1768.5V232ZM1773.5 231V227.5H1771.5V231H1773.5ZM1772.5 228.5H1786V226.5H1772.5V228.5ZM1787 227.5V224.5H1785V227.5H1787ZM1786 225.5H1798V223.5H1786V225.5ZM1798.99 224.658L1800.99 212.158L1799.01 211.842L1797.01 224.342L1798.99 224.658ZM1800.37 212.928L1807.87 209.928L1807.13 208.072L1799.63 211.072L1800.37 212.928ZM1806.52 209.21L1809.52 223.21L1811.48 222.79L1808.48 208.79L1806.52 209.21ZM1810.5 224H1811.5V222H1810.5V224ZM1812.5 223V214.5H1810.5V223H1812.5ZM1811.5 215.5H1820V213.5H1811.5V215.5ZM1819.79 215.477L1831.29 217.977L1831.71 216.023L1820.21 213.523L1819.79 215.477ZM1830.5 217V227.5H1832.5V217H1830.5ZM1831.5 228.5H1833.5V226.5H1831.5V228.5ZM1834.5 227.5V226H1832.5V227.5H1834.5ZM1833.5 227H1838.5V225H1833.5V227ZM1839.5 226V218.5H1837.5V226H1839.5ZM1838.78 219.459L1847.28 216.959L1846.72 215.041L1838.22 217.541L1838.78 219.459ZM1846 216V233.5H1848V216H1846ZM1847 234.5H1848.5V232.5H1847V234.5ZM1849.5 233.5V226H1847.5V233.5H1849.5ZM1849.44 226.351L1850.94 222.351L1849.06 221.649L1847.56 225.649L1849.44 226.351ZM1850.15 222.988L1872.65 219.488L1872.35 217.512L1849.85 221.012L1850.15 222.988ZM1871.5 218.585L1872.14 226.085L1874.14 225.915L1873.5 218.415L1871.5 218.585ZM1873.14 227H1895.5V225H1873.14V227ZM1894.5 226V232.5H1896.5V226H1894.5ZM1895.5 233.5H1898V231.5H1895.5V233.5ZM1899 232.5V227.5H1897V232.5H1899ZM1898 228.5H1899V226.5H1898V228.5ZM1900 227.5V223H1898V227.5H1900ZM1899 224H1900.5V222H1899V224ZM1899.5 223V232.5H1901.5V223H1899.5ZM1900.5 233.5H1905V231.5H1900.5V233.5ZM1904 232.5V234.5H1906V232.5H1904ZM1905 235.5H1908.5V233.5H1905V235.5ZM1909.5 234.5V227.5H1907.5V234.5H1909.5ZM1909.05 228.332L1913.55 225.332L1912.45 223.668L1907.95 226.668L1909.05 228.332ZM1914 224.5V220.5H1912V224.5H1914ZM1913 221.5H1923V219.5H1913V221.5ZM1922 220.5V226H1924V220.5H1922ZM1923 227H1924.5V225H1923V227ZM1925.5 226V223H1923.5V226H1925.5ZM1925.39 223.447L1928.39 217.447L1926.61 216.553L1923.61 222.553L1925.39 223.447ZM1927.5 218H1933V216H1927.5V218ZM1932.71 217.957L1944.21 221.457L1944.79 219.543L1933.29 216.043L1932.71 217.957ZM1944.5 221.5H1948.5V219.5H1944.5V221.5ZM1949.5 220.5V218.5H1947.5V220.5H1949.5ZM1948.5 219.5H1951V217.5H1948.5V219.5ZM1950 218.5V237.5H1952V218.5H1950ZM1950.45 238.332L1951.95 239.332L1953.05 237.668L1951.55 236.668L1950.45 238.332ZM1952.5 239.5H1954.5V237.5H1952.5V239.5ZM1955.5 238.5V234.5H1953.5V238.5H1955.5ZM1954.5 233.5H1952.5V235.5H1954.5V233.5ZM1953.5 234.5V230H1951.5V234.5H1953.5ZM1952.5 231H1958V229H1952.5V231ZM1957 230V237.5H1959V230H1957ZM1958 238.5H1970V236.5H1958V238.5ZM1971 237.5V224.5H1969V237.5H1971ZM1970 225.5H1983V223.5H1970V225.5ZM1984 224.5V206H1982V224.5H1984ZM1983 207H1992.5V205H1983V207ZM1991.5 206V213.5H1993.5V206H1991.5ZM1992.5 214.5H1994.5V212.5H1992.5V214.5ZM1993.5 213.5V224.5H1995.5V213.5H1993.5ZM1994.5 225.5H2001V223.5H1994.5V225.5ZM2000 224.5V232.5H2002V224.5H2000ZM2001 233.5H2004.5V231.5H2001V233.5ZM2005.5 232.5V229H2003.5V232.5H2005.5ZM2004.5 230H2006V228H2004.5V230ZM2005 229V234H2007V229H2005ZM2006 235H2007.5V233H2006V235ZM2006.5 234V238.5H2008.5V234H2006.5ZM2007.5 239.5H2010.5V237.5H2007.5V239.5ZM2011.5 238.5V232.5H2009.5V238.5H2011.5ZM2010.5 233.5H2012V231.5H2010.5V233.5ZM2013 232.5V226.5H2011V232.5H2013ZM2012 227.5H2013.5V225.5H2012V227.5ZM2014.5 226.5V224.5H2012.5V226.5H2014.5ZM2013.5 225.5H2024.5V223.5H2013.5V225.5ZM2025.5 224.5V217.5H2023.5V224.5H2025.5ZM2024.77 218.462L2035.27 215.462L2034.73 213.538L2024.23 216.538L2024.77 218.462ZM2034 214.5V235H2036V214.5H2034ZM2035 236H2036V234H2035V236ZM2035 235V238.5H2037V235H2035ZM2036 239.5H2038.5V237.5H2036V239.5ZM2039.5 238.5V219.5H2037.5V238.5H2039.5ZM2038.5 220.5H2040.5V218.5H2038.5V220.5ZM2041.39 219.947L2041.89 218.947L2040.11 218.053L2039.61 219.053L2041.39 219.947ZM2041 219.5H2055.5V217.5H2041V219.5ZM2054.79 219.207L2055.79 220.207L2057.21 218.793L2056.21 217.793L2054.79 219.207ZM2056.5 220.5H2058.5V218.5H2056.5V220.5ZM2057.5 219.5V237.5H2059.5V219.5H2057.5ZM2058.82 238.449L2060.32 237.949L2059.68 236.051L2058.18 236.551L2058.82 238.449ZM2059 237V238.5H2061V237H2059ZM2060 239.5H2073V237.5H2060V239.5ZM2074 238.5V232.5H2072V238.5H2074ZM2073 231.5H2070.5V233.5H2073V231.5ZM2071.5 232.5V226H2069.5V232.5H2071.5ZM2070.5 227H2089.5V225H2070.5V227ZM2088.5 226V250H2090.5V226H2088.5ZM2089.5 251H2116V249H2089.5V251ZM2117 250V247H2115V250H2117ZM2116 248H2125.5V246H2116V248ZM2124.5 247V256.5H2126.5V247H2124.5ZM2125.5 257.5H2139V255.5H2125.5V257.5ZM2139.95 256.803L2143.45 245.803L2141.55 245.197L2138.05 256.197L2139.95 256.803ZM2142.5 246.5H2161V244.5H2142.5V246.5ZM2160 245.5V252.5H2162V245.5H2160ZM2161 253.5H2164V251.5H2161V253.5ZM2164.89 252.947L2166.89 248.947L2165.11 248.053L2163.11 252.053L2164.89 252.947ZM2165 248.5V252.5H2167V248.5H2165ZM2166 253.5H2170.5V251.5H2166V253.5ZM2171.38 252.979L2174.38 247.479L2172.62 246.521L2169.62 252.021L2171.38 252.979ZM2172.5 247V252.5H2174.5V247H2172.5ZM2173.5 253.5H2192.5V251.5H2173.5V253.5ZM2193.08 253.314L2196.58 250.814L2195.42 249.186L2191.92 251.686L2193.08 253.314ZM2196 251H2209.5V249H2196V251ZM2208.97 250.848L2212.97 253.348L2214.03 251.652L2210.03 249.152L2208.97 250.848ZM2214.5 252.5V229H2212.5V252.5H2214.5ZM2213.5 230H2236.5V228H2213.5V230ZM2237.5 229V211.5H2235.5V229H2237.5ZM2236.5 212.5H2238V210.5H2236.5V212.5ZM2237 211.5V226.5H2239V211.5H2237ZM2238 227.5H2252V225.5H2238V227.5ZM2253 226.5V224.5H2251V226.5H2253ZM2252 225.5H2256.5V223.5H2252V225.5ZM2255.59 224.906L2257.59 229.406L2259.41 228.594L2257.41 224.094L2255.59 224.906ZM2257.5 229.06L2259 254.06L2261 253.94L2259.5 228.94L2257.5 229.06ZM2259 254V274H2261V254H2259ZM2260 275H2262.5V273H2260V275ZM2263.5 274V256.5H2261.5V274H2263.5ZM2262.5 257.5H2271.5V255.5H2262.5V257.5ZM2272.5 256.5V235H2270.5V256.5H2272.5ZM2271.5 234H2268.5V236H2271.5V234ZM2269.5 235V229H2267.5V235H2269.5ZM2268.5 230H2293V228H2268.5V230ZM2292 229V237.5H2294V229H2292ZM2293.08 238.497L2299.08 237.997L2298.92 236.003L2292.92 236.503L2293.08 238.497ZM2300 237V224.5H2298V237H2300ZM2299 225.5H2304V223.5H2299V225.5ZM2303 224.5V226.5H2305V224.5H2303ZM2304 227.5H2312V225.5H2304V227.5ZM2311 226.5V229H2313V226.5H2311ZM2312 230H2314.5V228H2312V230ZM2315.5 229V226.5H2313.5V229H2315.5ZM2314.5 227.5H2322.5V225.5H2314.5V227.5ZM2321.86 227.268L2324.86 229.768L2326.14 228.232L2323.14 225.732L2321.86 227.268ZM2326.5 229V226H2324.5V229H2326.5ZM2325.5 227H2338V225H2325.5V227ZM2337.92 226.997L2344.42 227.497L2344.58 225.503L2338.08 225.003L2337.92 226.997ZM2345.23 227.18L2351.73 220.18L2350.27 218.82L2343.77 225.82L2345.23 227.18ZM2352 219.5V208H2350V219.5H2352ZM2350.15 208.526L2356.65 219.026L2358.35 217.974L2351.85 207.474L2350.15 208.526ZM2357.64 219.49L2364.64 218.49L2364.36 216.51L2357.36 217.51L2357.64 219.49ZM2363.63 217.996L2367.63 224.996L2369.37 224.004L2365.37 217.004L2363.63 217.996ZM2367.5 224.5V232.5H2369.5V224.5H2367.5ZM2368.5 233.5H2370.5V231.5H2368.5V233.5ZM2369.5 232.5V249.5H2371.5V232.5H2369.5ZM2370.88 250.423L2376.88 247.923L2376.12 246.077L2370.12 248.577L2370.88 250.423ZM2376.5 248H2387V246H2376.5V248ZM2388 247V233.5H2386V247H2388ZM2387 232.5H2385V234.5H2387V232.5ZM2386 233.5V229H2384V233.5H2386ZM2385 230H2387V228H2385V230ZM2388 229V226H2386V229H2388ZM2387.73 226.678L2393.73 220.178L2392.27 218.822L2386.27 225.322L2387.73 226.678ZM2393 220.5H2399.5V218.5H2393V220.5ZM2398.5 219.5V221H2400.5V219.5H2398.5ZM2399.5 222H2409V220H2399.5V222ZM2410 221V216H2408V221H2410ZM2409 217H2420V215H2409V217ZM2419 216V274H2421V216H2419ZM2420 275H2437V273H2420V275ZM2438 274V232.5H2436V274H2438ZM2437.11 233.494L2469.11 229.994L2468.89 228.006L2436.89 231.506L2437.11 233.494ZM2468 229V247H2470V229H2468ZM2468.91 247.996L2486.41 249.496L2486.59 247.504L2469.09 246.004L2468.91 247.996ZM2486.41 249.496L2497.91 250.496L2498.09 248.504L2486.59 247.504L2486.41 249.496ZM2498.96 249.771L2503.46 233.771L2501.54 233.229L2497.04 249.229L2498.96 249.771ZM2502.5 234.5H2504.5V232.5H2502.5V234.5ZM2503.5 233.6L2505 248.6L2507 248.4L2505.5 233.4L2503.5 233.6ZM2506 249.5H2511.5V247.5H2506V249.5ZM2512.5 248.5V233.5H2510.5V248.5H2512.5ZM2511.5 234.5H2513V232.5H2511.5V234.5ZM2512.02 233.674L2513.52 242.174L2515.48 241.826L2513.98 233.326L2512.02 233.674ZM2514.5 243H2517.5V241H2514.5V243ZM2516.5 242V249.5H2518.5V242H2516.5ZM2517.5 250.5H2520.5V248.5H2517.5V250.5ZM2521.5 249.5V229H2519.5V249.5H2521.5ZM2520.5 230H2522.5V228H2520.5V230ZM2521.5 229V233.5H2523.5V229H2521.5ZM2522.5 234.5H2527V232.5H2522.5V234.5ZM2526.02 233.71L2527.52 240.71L2529.48 240.29L2527.98 233.29L2526.02 233.71ZM2529.37 240.996L2533.37 233.996L2531.63 233.004L2527.63 240.004L2529.37 240.996ZM2531.5 233.5V249.5H2533.5V233.5H2531.5ZM2532.5 250.5H2538V248.5H2532.5V250.5ZM2539 249.5V244H2537V249.5H2539ZM2538.81 244.588L2542.81 239.088L2541.19 237.912L2537.19 243.412L2538.81 244.588ZM2542 239.5H2545.5V237.5H2542V239.5ZM2544.5 238.5V248.5H2546.5V238.5H2544.5ZM2546.48 248.696L2548.48 238.696L2546.52 238.304L2544.52 248.304L2546.48 248.696ZM2547.5 239.5H2552.5V237.5H2547.5V239.5ZM2553.5 238.5V233.5H2551.5V238.5H2553.5ZM2552.5 232.5H2549.5V234.5H2552.5V232.5ZM2550.49 233.607L2551.99 219.607L2550.01 219.393L2548.51 233.393L2550.49 233.607ZM2551 220.5H2558V218.5H2551V220.5ZM2557 219.5V236H2559V219.5H2557ZM2558 237H2562.5V235H2558V237ZM2563.5 236V232.5H2561.5V236H2563.5ZM2562.5 233.5H2568.5V231.5H2562.5V233.5ZM2567.5 232.5V236H2569.5V232.5H2567.5ZM2569.25 236.664L2577.25 227.664L2575.75 226.336L2567.75 235.336L2569.25 236.664ZM2576.46 227.999L2726.96 233.499L2727.04 231.501L2576.54 226.001L2576.46 227.999ZM2726 232.5V258.5H2728V232.5H2726ZM2727 259.5H2735V257.5H2727V259.5ZM2735.74 259.168L2748.74 244.668L2747.26 243.332L2734.26 257.832L2735.74 259.168ZM2748.1 244.995L2767.6 242.995L2767.4 241.005L2747.9 243.005L2748.1 244.995ZM2767.04 242.89L2788.54 253.89L2789.46 252.11L2767.96 241.11L2767.04 242.89ZM2789.99 252.83L2787.49 238.33L2785.51 238.67L2788.01 253.17L2789.99 252.83ZM2786.5 239.5H2800V237.5H2786.5V239.5ZM2800.58 239.317L2809.08 233.317L2807.92 231.683L2799.42 237.683L2800.58 239.317ZM2809.5 232.5V222.5H2807.5V232.5H2809.5ZM2808.5 223.5H2814.5V221.5H2808.5V223.5ZM2813.5 222.5V232.5H2815.5V222.5H2813.5ZM2814.49 233.5L2928.49 234.5L2928.51 232.5L2814.51 231.5L2814.49 233.5ZM2929.14 234.271L2949.14 217.771L2947.86 216.229L2927.86 232.729L2929.14 234.271ZM2948.5 218H2954.5V216H2948.5V218ZM2953.5 217V229H2955.5V217H2953.5ZM2955.47 229.235L2958.97 214.735L2957.03 214.265L2953.53 228.765L2955.47 229.235ZM2958 215.5H2970.5V213.5H2958V215.5ZM2971.09 215.311L2980.09 208.811L2978.91 207.189L2969.91 213.689L2971.09 215.311ZM2978.7 208.6L2981.7 212.6L2983.3 211.4L2980.3 207.4L2978.7 208.6ZM2981.5 212V217H2983.5V212H2981.5ZM2982.5 218H2994V216H2982.5V218ZM2995 217V212H2993V217H2995ZM2994 213H2997V211H2994V213ZM2996 212V217H2998V212H2996ZM2997 218H3006V216H2997V218ZM3005 217V226.5H3007V217H3005ZM3006 227.5H3009.5V225.5H3006V227.5ZM3010.5 226.5V214.5H3008.5V226.5H3010.5ZM3009.5 215.5H3021.5V213.5H3009.5V215.5ZM3020.5 214.5V226.5H3022.5V214.5H3020.5ZM3021.5 227.5H3028.5V225.5H3021.5V227.5ZM3029.5 226.5V217H3027.5V226.5H3029.5ZM3028.5 218H3046V216H3028.5V218ZM3046.64 217.768L3049.64 215.268L3048.36 213.732L3045.36 216.232L3046.64 217.768ZM3048 214.5V232.5H3050V214.5H3048ZM3049.95 232.802L3056.45 212.302L3054.55 211.698L3048.05 232.198L3049.95 232.802ZM3054.5 212V244H3056.5V212H3054.5ZM3055.91 244.914L3060.41 242.914L3059.59 241.086L3055.09 243.086L3055.91 244.914ZM3061 242V210H3059V242H3061ZM3059.7 210.955L3074.2 215.455L3074.8 213.545L3060.3 209.045L3059.7 210.955ZM3074.65 215.489L3091.65 212.989L3091.35 211.011L3074.35 213.511L3074.65 215.489ZM3090.5 212V261.5H3092.5V212H3090.5ZM3091.5 262.5H3096V260.5H3091.5V262.5ZM3097 261.5V214.5H3095V261.5H3097ZM3095.79 215.477L3107.29 217.977L3107.71 216.023L3096.21 213.523L3095.79 215.477ZM3108.5 217V201.5H3106.5V217H3108.5ZM3107.5 202.5H3116.5V200.5H3107.5V202.5ZM3115.51 201.635L3122.51 253.135L3124.49 252.865L3117.49 201.365L3115.51 201.635ZM3124.49 253.131L3127.99 226.631L3126.01 226.369L3122.51 252.869L3124.49 253.131ZM3126.04 226.78L3129.54 238.78L3131.46 238.22L3127.96 226.22L3126.04 226.78ZM3131.48 238.705L3135.98 217.205L3134.02 216.795L3129.52 238.295L3131.48 238.705ZM3135 218H3145.5V216H3135V218ZM3144.5 217V222.5H3146.5V217H3144.5ZM3145.5 223.5H3149.5V221.5H3145.5V223.5ZM3150.5 222.5V210H3148.5V222.5H3150.5ZM3149.5 211H3161V209H3149.5V211ZM3160 210V226.5H3162V210H3160ZM3161 227.5H3165.5V225.5H3161V227.5ZM3166.5 226.5V217H3164.5V226.5H3166.5ZM3165.5 218H3181.5V216H3165.5V218ZM3180.5 217V226.5H3182.5V217H3180.5ZM3182.09 227.309L3187.59 223.309L3186.41 221.691L3180.91 225.691L3182.09 227.309ZM3186 222.5V232.5H3188V222.5H3186ZM3187.5 233.364L3193.5 229.864L3192.5 228.136L3186.5 231.636L3187.5 233.364ZM3194 229V222.5H3192V229H3194ZM3193 223.5H3204V221.5H3193V223.5ZM3205 222.5V217H3203V222.5H3205ZM3204 218H3225.5V216H3204V218ZM3224.5 217.083L3227.5 253.083L3229.5 252.917L3226.5 216.917L3224.5 217.083ZM3229.49 253.124L3232.49 229.124L3230.51 228.876L3227.51 252.876L3229.49 253.124ZM3231.5 230H3236.5V228H3231.5V230ZM3237.5 229V219.5H3235.5V229H3237.5ZM3236.5 220.5H3260V218.5H3236.5V220.5ZM3260.98 219.712L3263.48 208.212L3261.52 207.788L3259.02 219.288L3260.98 219.712ZM3262.5 209H3288.5V207H3262.5V209ZM3287.5 208V215.25H3289.5V208H3287.5ZM3288.3 216.229L3308.8 220.479L3309.2 218.521L3288.7 214.271L3288.3 216.229ZM3310 219.5V212H3308V219.5H3310ZM3309 213H3324V211H3309V213ZM3323.19 212.581L3330.69 223.081L3332.31 221.919L3324.81 211.419L3323.19 212.581ZM3330.5 222.5V506.5H3332.5V222.5H3330.5ZM3331.5 505.5H0.5V507.5H3331.5V505.5ZM1.5 506.5V222.5H-0.5V506.5H1.5ZM0.5 223.5H15V221.5H0.5V223.5ZM15.8995 222.937L24.3995 205.437L22.6005 204.563L14.1005 222.063L15.8995 222.937ZM22.7432 205.654L32.2432 216.654L33.7568 215.346L24.2568 204.346L22.7432 205.654ZM33 217H42V215H33V217ZM42.9751 216.222L45.4751 205.222L43.5249 204.778L41.0249 215.778L42.9751 216.222ZM43.8861 205.789L48.3861 209.289L49.6139 207.711L45.1139 204.211L43.8861 205.789ZM48 208.5V216H50V208.5H48ZM49 217H56V215H49V217ZM57 216V208.5H55V216H57ZM56 209.5H67V207.5H56V209.5ZM66.4265 209.319L71.4265 212.819L72.5735 211.181L67.5735 207.681L66.4265 209.319ZM72.4229 212.906L79.9229 209.406L79.0771 207.594L71.5771 211.094L72.4229 212.906ZM78.8161 209.23L86.8161 216.73L88.1839 215.27L80.1839 207.77L78.8161 209.23ZM87.8714 216.928L97.8714 212.928L97.1286 211.072L87.1286 215.072L87.8714 216.928ZM97.5 213H113V211H97.5V213ZM113 213H189V211H113V213ZM189 213H195.5V211H189V213ZM194.9 212.8L196.9 214.3L198.1 212.7L196.1 211.2L194.9 212.8ZM197.894 214.419L201.394 212.919L200.606 211.081L197.106 212.581L197.894 214.419ZM201 213H206V211H201V213ZM205.072 212.371L206.072 214.871L207.928 214.129L206.928 211.629L205.072 212.371ZM207.141 215.49L214.141 214.49L213.859 212.51L206.859 213.51L207.141 215.49ZM214.394 214.419L217.894 212.919L217.106 211.081L213.606 212.581L214.394 214.419ZM217.257 212.97L223.257 214.47L223.743 212.53L217.743 211.03L217.257 212.97ZM224.014 214.357L226.514 212.857L225.486 211.143L222.986 212.643L224.014 214.357ZM225.757 212.97L231.757 214.47L232.243 212.53L226.243 211.03L225.757 212.97ZM232.316 214.449L236.816 212.949L236.184 211.051L231.684 212.551L232.316 214.449ZM236.257 212.97L242.257 214.47L242.743 212.53L236.743 211.03L236.257 212.97ZM241.5 213.5V216H243.5V213.5H241.5ZM242.5 217H247.5V215H242.5V217ZM247.986 216.874L252.486 214.374L251.514 212.626L247.014 215.126L247.986 216.874ZM251.987 214.5L326.487 215.5L326.513 213.5L252.013 212.5L251.987 214.5ZM326.947 215.394L328.947 214.394L328.053 212.606L326.053 213.606L326.947 215.394ZM328.184 214.449L331.184 215.449L331.816 213.551L328.816 212.551L328.184 214.449ZM331.816 215.449L334.816 214.449L334.184 212.551L331.184 213.551L331.816 215.449ZM334.5 214.5H335.5V212.5H334.5V214.5ZM335.225 214.462L338.725 215.462L339.275 213.538L335.775 212.538L335.225 214.462ZM339.275 215.462L342.775 214.462L342.225 212.538L338.725 213.538L339.275 215.462ZM342.184 214.449L345.184 215.449L345.816 213.551L342.816 212.551L342.184 214.449ZM345.775 215.462L349.275 214.462L348.725 212.538L345.225 213.538L345.775 215.462ZM349.479 214.378L354.979 211.378L354.021 209.622L348.521 212.622L349.479 214.378ZM354.5 211.5H357V209.5H354.5V211.5ZM356.064 210.851L357.564 214.851L359.436 214.149L357.936 210.149L356.064 210.851ZM358.5 215.5H362V213.5H358.5V215.5ZM362.196 215.481L367.196 214.481L366.804 212.519L361.804 213.519L362.196 215.481ZM366.939 214.498L473.939 220.998L474.061 219.002L367.061 212.502L366.939 214.498ZM474.991 220.135L477.991 198.135L476.009 197.865L473.009 219.865L474.991 220.135ZM477 199H482V197H477V199ZM481 198V227H483V198H481ZM482 228H486.5V226H482V228ZM487.314 227.581L489.814 224.081L488.186 222.919L485.686 226.419L487.314 227.581ZM489.996 223.591L491.996 201.591L490.004 201.409L488.004 223.409L489.996 223.591ZM491 202.5H501.5V200.5H491V202.5ZM500.536 201.768L503.036 210.768L504.964 210.232L502.464 201.232L500.536 201.768ZM505 210.5V201.5H503V210.5H505ZM504 202.5H518V200.5H504V202.5ZM517.002 201.562L518.002 217.562L519.998 217.438L518.998 201.438L517.002 201.562ZM519.479 218.378L524.979 215.378L524.021 213.622L518.521 216.622L519.479 218.378ZM524.149 215.436L528.149 216.936L528.851 215.064L524.851 213.564L524.149 215.436ZM529.5 216V212H527.5V216H529.5ZM528.5 213H535.5V211H528.5V213ZM536.5 212V206H534.5V212H536.5ZM535.5 207H546.5V205H535.5V207ZM546.563 206.998L672.563 198.998L672.437 197.002L546.437 205.002L546.563 206.998ZM673.5 198V181.5H671.5V198H673.5ZM672.5 182.5H684V180.5H672.5V182.5ZM684 182.5H719.5V180.5H684V182.5ZM718.5 181.5V229.5H720.5V181.5H718.5ZM719.5 230.5H725V228.5H719.5V230.5ZM725.967 229.754L728.467 220.254L726.533 219.746L724.033 229.246L725.967 229.754ZM728.454 220.301L731.454 210.801L729.546 210.199L726.546 219.699L728.454 220.301ZM730.5 211.5H737.5V209.5H730.5V211.5ZM738.5 210.5V206H736.5V210.5H738.5ZM736.595 206.426L740.595 214.926L742.405 214.074L738.405 205.574L736.595 206.426ZM742.473 214.732L744.973 204.232L743.027 203.768L740.527 214.268L742.473 214.732ZM744 205H757V203H744V205ZM756 204V217.5H758V204H756ZM757 218.5H760.5V216.5H757V218.5ZM761.5 217.5V212H759.5V217.5H761.5ZM760.5 213H764V211H760.5V213ZM765 212V204H763V212H765ZM764 205H768.5V203H764V205ZM769.432 204.362L772.932 195.362L771.068 194.638L767.568 203.638L769.432 204.362ZM772 196H795V194H772V196ZM795.968 195.251L799.468 181.751L797.532 181.249L794.032 194.749L795.968 195.251ZM797.5 181.5V195H799.5V181.5H797.5ZM798.5 196H807V194H798.5V196ZM806.713 195.958L816.713 198.958L817.287 197.042L807.287 194.042L806.713 195.958ZM817 199H834V197H817V199ZM834.514 198.857L839.514 195.857L838.486 194.143L833.486 197.143L834.514 198.857ZM838.775 195.974L851.775 198.974L852.225 197.026L839.225 194.026L838.775 195.974ZM852.371 198.928L859.871 195.928L859.129 194.072L851.629 197.072L852.371 198.928ZM860.5 195V190H858.5V195H860.5ZM859.5 191H880.5V189H859.5V191ZM880.174 190.945L894.674 195.945L895.326 194.055L880.826 189.055L880.174 190.945ZM895.026 196L1008.53 193L1008.47 191L894.974 194L895.026 196ZM1007.57 192.371L1011.57 202.371L1013.43 201.629L1009.43 191.629L1007.57 192.371ZM1013.5 202V187.5H1011.5V202H1013.5ZM1013.33 188.055L1017.33 182.055L1015.67 180.945L1011.67 186.945L1013.33 188.055ZM1015.5 181.5V216.5H1017.5V181.5H1015.5ZM1016.5 217.5H1022V215.5H1016.5V217.5ZM1022.98 216.705L1027.48 195.205L1025.52 194.795L1021.02 216.295L1022.98 216.705ZM1026.5 196H1033V194H1026.5V196ZM1033.45 195.894L1039.45 192.894L1038.55 191.106L1032.55 194.106L1033.45 195.894ZM1039.37 192.928L1044.37 190.928L1043.63 189.072L1038.63 191.072L1039.37 192.928ZM1045 190V173.5H1043V190H1045ZM1044 174.5H1047.5V172.5H1044V174.5ZM1047.4 174.495L1088.9 178.495L1089.1 176.505L1047.6 172.505L1047.4 174.495ZM1088.52 178.379L1140.02 206.379L1140.98 204.621L1089.48 176.621L1088.52 178.379ZM1140.5 206.5H1149V204.5H1140.5V206.5ZM1148.61 206.419L1159.11 210.919L1159.89 209.081L1149.39 204.581L1148.61 206.419ZM1158.5 210V227.5H1160.5V210H1158.5ZM1160.24 228.176L1165.74 222.176L1164.26 220.824L1158.76 226.824L1160.24 228.176ZM1166 221.5V214H1164V221.5H1166ZM1165 215H1169V213H1165V215ZM1168 214V221.5H1170V214H1168ZM1168.17 222.055L1172.17 228.055L1173.83 226.945L1169.83 220.945L1168.17 222.055ZM1174 227.5V190H1172V227.5H1174ZM1173 191H1190.5V189H1173V191ZM1189.5 190V210H1191.5V190H1189.5ZM1190.5 211H1194.5V209H1190.5V211ZM1193.5 210V221.5H1195.5V210H1193.5ZM1194.5 222.5H1215.5V220.5H1194.5V222.5ZM1216.5 221.5V216.5H1214.5V221.5H1216.5ZM1215.5 217.5H1222V215.5H1215.5V217.5ZM1222 217.5H1227.5V215.5H1222V217.5ZM1228.5 216.5V190H1226.5V216.5H1228.5ZM1227.5 191H1267V189H1227.5V191ZM1266.58 190.908L1360.58 234.408L1361.42 232.592L1267.42 189.092L1266.58 190.908ZM1361 234.5H1368V232.5H1361V234.5ZM1367 233.5V241.5H1369V233.5H1367ZM1367.83 242.485L1379.33 244.485L1379.67 242.515L1368.17 240.515L1367.83 242.485ZM1378.5 243.578L1380.5 269.078L1382.5 268.922L1380.5 243.422L1378.5 243.578ZM1381.5 270H1391V268H1381.5V270ZM1392 269V264.5H1390V269H1392ZM1391 265.5H1399.5V263.5H1391V265.5ZM1400.5 264.567L1403 227.567L1401 227.433L1398.5 264.433L1400.5 264.567ZM1401 227.5V241.5H1403V227.5H1401ZM1402 242.5H1405.5V240.5H1402V242.5ZM1406.49 241.635L1407.99 230.635L1406.01 230.365L1404.51 241.365L1406.49 241.635ZM1407 231.5H1416.5V229.5H1407V231.5ZM1415.5 230.5V239.5H1417.5V230.5H1415.5ZM1415.79 240.207L1419.79 244.207L1421.21 242.793L1417.21 238.793L1415.79 240.207ZM1421.45 243.816L1423.45 237.816L1421.55 237.184L1419.55 243.184L1421.45 243.816ZM1422.27 238.473L1430.77 240.473L1431.23 238.527L1422.73 236.527L1422.27 238.473ZM1430.86 240.49L1444.86 242.49L1445.14 240.51L1431.14 238.51L1430.86 240.49ZM1445.45 242.394L1453.45 238.394L1452.55 236.606L1444.55 240.606L1445.45 242.394ZM1453 238.5H1463V236.5H1453V238.5ZM1464 237.5V233.5H1462V237.5H1464ZM1463 234.5H1465V232.5H1463V234.5ZM1464 233.5V239.5H1466V233.5H1464ZM1464.06 239.851L1465.56 243.851L1467.44 243.149L1465.94 239.149L1464.06 239.851ZM1467.5 243.5V208H1465.5V243.5H1467.5ZM1466.18 208.949L1472.18 210.949L1472.82 209.051L1466.82 207.051L1466.18 208.949ZM1472.5 211H1486V209H1472.5V211ZM1486.23 210.973L1494.73 208.973L1494.27 207.027L1485.77 209.027L1486.23 210.973ZM1494.26 208.97L1502.26 210.97L1502.74 209.03L1494.74 207.03L1494.26 208.97ZM1501.5 210V224H1503.5V210H1501.5ZM1501.96 224.844L1507.46 228.344L1508.54 226.656L1503.04 223.156L1501.96 224.844ZM1508.98 227.677L1512.48 208.177L1510.52 207.823L1507.02 227.323L1508.98 227.677ZM1511.5 209H1516.5V207H1511.5V209ZM1515.51 208.102L1517.51 227.602L1519.49 227.398L1517.49 207.898L1515.51 208.102ZM1518.5 228.5H1527.5V226.5H1518.5V228.5ZM1527.11 228.419L1534.11 231.419L1534.89 229.581L1527.89 226.581L1527.11 228.419ZM1533.5 230.5V241.5H1535.5V230.5H1533.5ZM1534.5 242.5H1542.5V240.5H1534.5V242.5ZM1543.5 241.5V230.5H1541.5V241.5H1543.5ZM1543.5 230.5V205.5H1541.5V230.5H1543.5ZM1543.45 205.798L1545.95 197.798L1544.05 197.202L1541.55 205.202L1543.45 205.798ZM1545.67 198.24L1551.17 193.24L1549.83 191.76L1544.33 196.76L1545.67 198.24ZM1549.86 193.265L1559.36 201.265L1560.64 199.735L1551.14 191.735L1549.86 193.265ZM1559.47 201.348L1567.47 206.348L1568.53 204.652L1560.53 199.652L1559.47 201.348ZM1567 205.5V230.5H1569V205.5H1567ZM1568.16 231.488L1577.66 229.988L1577.34 228.012L1567.84 229.512L1568.16 231.488ZM1578.5 229V221.5H1576.5V229H1578.5ZM1577.5 222.5H1585.5V220.5H1577.5V222.5ZM1586.5 221.5V216.5H1584.5V221.5H1586.5ZM1585.38 217.492L1601.38 219.492L1601.62 217.508L1585.62 215.508L1585.38 217.492ZM1601.71 219.478L1608.71 217.978L1608.29 216.022L1601.29 217.522L1601.71 219.478ZM1608.36 217.99L1618.86 219.49L1619.14 217.51L1608.64 216.01L1608.36 217.99ZM1618.35 219.259L1621.85 222.259L1623.15 220.741L1619.65 217.741L1618.35 219.259ZM1622.26 222.47L1628.26 223.97L1628.74 222.03L1622.74 220.53L1622.26 222.47ZM1629.32 223.569L1633.82 217.069L1632.18 215.931L1627.68 222.431L1629.32 223.569ZM1632.96 217.499L1644.96 217.999L1645.04 216.001L1633.04 215.501L1632.96 217.499ZM1644.58 217.908L1657.58 223.908L1658.42 222.092L1645.42 216.092L1644.58 217.908ZM1659 223V212H1657V223H1659ZM1658.34 212.94L1669.34 208.94L1668.66 207.06L1657.66 211.06L1658.34 212.94ZM1668.83 208.985L1680.33 210.985L1680.67 209.015L1669.17 207.015L1668.83 208.985ZM1679.5 210V221.5H1681.5V210H1679.5ZM1680.03 222.384L1688.53 226.884L1689.47 225.116L1680.97 220.616L1680.03 222.384ZM1688.89 226.993L1701.89 228.493L1702.11 226.507L1689.11 225.007L1688.89 226.993ZM1703 227.5V218.5H1701V227.5H1703ZM1701.83 219.485L1721.83 222.985L1722.17 221.015L1702.17 217.515L1701.83 219.485ZM1721 222V229H1723V222H1721ZM1722 230H1725.5V228H1722V230Z" fill="black" fill-opacity="0.16" mask="url(#path-1-inside-1)"/>
<mask id="path-3-outside-2" maskUnits="userSpaceOnUse" x="0" y="79" width="3332" height="578" fill="black">
<rect fill="white" y="79" width="3332" height="578"/>
<path fill-rule="evenodd" clip-rule="evenodd" d="M9.5 315.5C8.66667 315.333 6.8 315.1 6 315.5H2V655H3330V348H3321.5V241L3315 231H3249.5L3238.5 241V292.5H3217.5V241L3191 231L3166 241L3171.5 328.5H3144V334.5H3110.5V366.5H3069V389.5H3022.5L2999 396V406.5H2977.5H2957.5V339.5H2948.5V156L2922 150.5V146.5L2897 138.5V146.5L2822 134.5L2816.5 150.5V406.5H2793V258L2767.5 241H2754L2738.5 258V231H2733.5V168.5L2702.5 172V156H2698.5V138.5H2702.5V120.5L2610 117.5L2588.5 120.5V125.5H2592V146.5H2583L2588.5 223H2576.5L2580.5 343H2561.5V374.5L2556.5 299H2547L2539.5 303L2537 299L2517 296V274H2494.5V220.5H2498V215L2421.5 218L2410 215V366.5L2378 354H2312.5V343L2287 345.5V354H2244V362.5H2225V348L2220.5 345.5V258L2212 251H2196L2187.5 258H2184V307.5H2178.5V292.5L2109 289.5V242.5H2106V186H2104V178.5V162V135.5H2102L2095.5 152.5V182.5H2096.5V186H2095.5V242.5H2092.5V292.5H2058.5V422H1966.5L1882 418L1799.75 405.5L1726.6 389.354C1725.6 389.133 1724.79 388.42 1724.43 387.46L1682.13 272.526C1675.52 254.554 1674.2 235.06 1678.34 216.362L1703.97 100.662C1704.3 99.1633 1702.53 98.1025 1701.37 99.0987L1689.42 109.285C1688.5 110.076 1687.83 111.131 1687.52 112.31L1684.81 122.5L1673.59 164.77C1673.24 166.085 1672.05 167 1670.69 167H1642.35C1640.97 167 1639.77 166.06 1639.44 164.722L1626.49 112.462C1626.17 111.189 1625.45 110.055 1624.43 109.232L1611.59 98.891C1610.41 97.939 1608.69 99.0134 1609.03 100.493L1635.41 216.13C1639.71 234.972 1638.46 254.657 1631.81 272.802L1582.1 408.351C1581.73 409.369 1580.84 410.107 1579.77 410.28L1364.5 445V170.5L1331.5 167V162H1321.5V153.5H1269.5V170.5H1230V328.5H1224V284L1198.5 274.5L1160.5 277.5V218.5L1148 208V189.5L1141 170.5L1111.5 167V162H1064.5L1050 167V229H1016V368H1012V208L993 85.5L909.5 81L892 89V162H888V246.5H868V256H863V284H839L835 277.5H813L809 270.5H804L797 274.5H770.5L758.5 280.5V342.5H734.5V298.5H722V287.5L719 277.5L714 287.5H697.5H688.5V256H672.5V189.5H657V174.5H573.5V189.5H542.5V229H530.5V218.5H510.5V342.5H503V294H497.5V274.5L477 280.5V137.5L466 141L461 137.5H391.5L417.5 148V162H402V157.5L362.5 148V270.5H324.5V177.5L322.5 171L298 148H281L257 171V179.5H250.5V184H254V196.5H250.5V290.5H195.5V226V223.5L193 222.5V215.5H190.5V189.5L164.5 166H144L118 189.5V207H114.5V215.5H111V311H107V277H109V273H107V261.5C106.833 256.333 103.7 246 92.5 246L77.5 252.5V233.5L60 229V236H54V241.5L48 248V274.5H45V311H41.5L37 300H23L17 308.5V301.5L9.5 305V315.5ZM1668.2 180H1645.74C1643.82 180 1642.4 181.779 1642.81 183.653L1653.67 232.311C1654.36 235.417 1658.78 235.449 1659.52 232.354L1671.12 183.696C1671.57 181.81 1670.14 180 1668.2 180ZM1653.63 256.07L1605.22 400.863C1604.47 403.098 1606.47 405.283 1608.77 404.731L1697.83 383.263C1699.54 382.852 1700.53 381.073 1699.98 379.407L1659.33 256.082C1658.43 253.34 1654.55 253.332 1653.63 256.07Z"/>
</mask>
<path fill-rule="evenodd" clip-rule="evenodd" d="M9.5 315.5C8.66667 315.333 6.8 315.1 6 315.5H2V655H3330V348H3321.5V241L3315 231H3249.5L3238.5 241V292.5H3217.5V241L3191 231L3166 241L3171.5 328.5H3144V334.5H3110.5V366.5H3069V389.5H3022.5L2999 396V406.5H2977.5H2957.5V339.5H2948.5V156L2922 150.5V146.5L2897 138.5V146.5L2822 134.5L2816.5 150.5V406.5H2793V258L2767.5 241H2754L2738.5 258V231H2733.5V168.5L2702.5 172V156H2698.5V138.5H2702.5V120.5L2610 117.5L2588.5 120.5V125.5H2592V146.5H2583L2588.5 223H2576.5L2580.5 343H2561.5V374.5L2556.5 299H2547L2539.5 303L2537 299L2517 296V274H2494.5V220.5H2498V215L2421.5 218L2410 215V366.5L2378 354H2312.5V343L2287 345.5V354H2244V362.5H2225V348L2220.5 345.5V258L2212 251H2196L2187.5 258H2184V307.5H2178.5V292.5L2109 289.5V242.5H2106V186H2104V178.5V162V135.5H2102L2095.5 152.5V182.5H2096.5V186H2095.5V242.5H2092.5V292.5H2058.5V422H1966.5L1882 418L1799.75 405.5L1726.6 389.354C1725.6 389.133 1724.79 388.42 1724.43 387.46L1682.13 272.526C1675.52 254.554 1674.2 235.06 1678.34 216.362L1703.97 100.662C1704.3 99.1633 1702.53 98.1025 1701.37 99.0987L1689.42 109.285C1688.5 110.076 1687.83 111.131 1687.52 112.31L1684.81 122.5L1673.59 164.77C1673.24 166.085 1672.05 167 1670.69 167H1642.35C1640.97 167 1639.77 166.06 1639.44 164.722L1626.49 112.462C1626.17 111.189 1625.45 110.055 1624.43 109.232L1611.59 98.891C1610.41 97.939 1608.69 99.0134 1609.03 100.493L1635.41 216.13C1639.71 234.972 1638.46 254.657 1631.81 272.802L1582.1 408.351C1581.73 409.369 1580.84 410.107 1579.77 410.28L1364.5 445V170.5L1331.5 167V162H1321.5V153.5H1269.5V170.5H1230V328.5H1224V284L1198.5 274.5L1160.5 277.5V218.5L1148 208V189.5L1141 170.5L1111.5 167V162H1064.5L1050 167V229H1016V368H1012V208L993 85.5L909.5 81L892 89V162H888V246.5H868V256H863V284H839L835 277.5H813L809 270.5H804L797 274.5H770.5L758.5 280.5V342.5H734.5V298.5H722V287.5L719 277.5L714 287.5H697.5H688.5V256H672.5V189.5H657V174.5H573.5V189.5H542.5V229H530.5V218.5H510.5V342.5H503V294H497.5V274.5L477 280.5V137.5L466 141L461 137.5H391.5L417.5 148V162H402V157.5L362.5 148V270.5H324.5V177.5L322.5 171L298 148H281L257 171V179.5H250.5V184H254V196.5H250.5V290.5H195.5V226V223.5L193 222.5V215.5H190.5V189.5L164.5 166H144L118 189.5V207H114.5V215.5H111V311H107V277H109V273H107V261.5C106.833 256.333 103.7 246 92.5 246L77.5 252.5V233.5L60 229V236H54V241.5L48 248V274.5H45V311H41.5L37 300H23L17 308.5V301.5L9.5 305V315.5ZM1668.2 180H1645.74C1643.82 180 1642.4 181.779 1642.81 183.653L1653.67 232.311C1654.36 235.417 1658.78 235.449 1659.52 232.354L1671.12 183.696C1671.57 181.81 1670.14 180 1668.2 180ZM1653.63 256.07L1605.22 400.863C1604.47 403.098 1606.47 405.283 1608.77 404.731L1697.83 383.263C1699.54 382.852 1700.53 381.073 1699.98 379.407L1659.33 256.082C1658.43 253.34 1654.55 253.332 1653.63 256.07Z" fill="#2E2B6D"/>
<path d="M1671.12 183.696L1671.9 183.881L1671.12 183.696ZM1659.52 232.354L1660.29 232.539V232.539L1659.52 232.354ZM1653.67 232.311L1654.45 232.137V232.137L1653.67 232.311ZM1642.81 183.653L1643.6 183.479L1642.81 183.653ZM1653.63 256.07L1652.88 255.816V255.816L1653.63 256.07ZM1605.22 400.863L1605.98 401.117V401.117L1605.22 400.863ZM1608.77 404.731L1608.95 405.509L1608.77 404.731ZM1697.83 383.263L1697.65 382.485L1697.83 383.263ZM1699.98 379.407L1700.74 379.157V379.157L1699.98 379.407ZM1659.33 256.082L1658.57 256.332L1659.33 256.082ZM1645.74 180.8H1668.2V179.2H1645.74V180.8ZM1670.34 183.51L1658.74 232.168L1660.29 232.539L1671.9 183.881L1670.34 183.51ZM1654.45 232.137L1643.6 183.479L1642.03 183.827L1652.89 232.485L1654.45 232.137ZM1652.88 255.816L1604.46 400.609L1605.98 401.117L1654.39 256.323L1652.88 255.816ZM1608.95 405.509L1698.02 384.041L1697.65 382.485L1608.58 403.953L1608.95 405.509ZM1700.74 379.157L1660.09 255.831L1658.57 256.332L1699.22 379.658L1700.74 379.157ZM1698.02 384.041C1700.18 383.52 1701.44 381.267 1700.74 379.157L1699.22 379.658C1699.62 380.879 1698.9 382.184 1697.65 382.485L1698.02 384.041ZM1604.46 400.609C1603.51 403.441 1606.05 406.208 1608.95 405.509L1608.58 403.953C1606.9 404.358 1605.43 402.756 1605.98 401.117L1604.46 400.609ZM1654.39 256.323C1655.06 254.316 1657.91 254.322 1658.57 256.332L1660.09 255.831C1658.94 252.359 1654.04 252.348 1652.88 255.816L1654.39 256.323ZM1658.74 232.168C1658.2 234.438 1654.96 234.414 1654.45 232.137L1652.89 232.485C1653.77 236.419 1659.36 236.46 1660.29 232.539L1658.74 232.168ZM1668.2 180.8C1669.62 180.8 1670.67 182.128 1670.34 183.51L1671.9 183.881C1672.47 181.493 1670.66 179.2 1668.2 179.2V180.8ZM1645.74 179.2C1643.31 179.2 1641.5 181.453 1642.03 183.827L1643.6 183.479C1643.29 182.105 1644.33 180.8 1645.74 180.8V179.2ZM6 315.5V317.1H6.3777L6.71553 316.931L6 315.5ZM9.5 315.5L9.1862 317.069L11.1 317.452V315.5H9.5ZM2 315.5V313.9H0.4V315.5H2ZM2 655H0.4V656.6H2V655ZM3330 655V656.6H3331.6V655H3330ZM3330 348H3331.6V346.4H3330V348ZM3321.5 348H3319.9V349.6H3321.5V348ZM3321.5 241H3323.1V240.526L3322.84 240.128L3321.5 241ZM3315 231L3316.34 230.128L3315.87 229.4H3315V231ZM3249.5 231V229.4H3248.88L3248.42 229.816L3249.5 231ZM3238.5 241L3237.42 239.816L3236.9 240.292V241H3238.5ZM3238.5 292.5V294.1H3240.1V292.5H3238.5ZM3217.5 292.5H3215.9V294.1H3217.5V292.5ZM3217.5 241H3219.1V239.894L3218.06 239.503L3217.5 241ZM3191 231L3191.56 229.503L3190.98 229.283L3190.41 229.514L3191 231ZM3166 241L3165.41 239.514L3164.33 239.945L3164.4 241.1L3166 241ZM3171.5 328.5V330.1H3173.2L3173.1 328.4L3171.5 328.5ZM3144 328.5V326.9H3142.4V328.5H3144ZM3144 334.5V336.1H3145.6V334.5H3144ZM3110.5 334.5V332.9H3108.9V334.5H3110.5ZM3110.5 366.5V368.1H3112.1V366.5H3110.5ZM3069 366.5V364.9H3067.4V366.5H3069ZM3069 389.5V391.1H3070.6V389.5H3069ZM3022.5 389.5V387.9H3022.28L3022.07 387.958L3022.5 389.5ZM2999 396L2998.57 394.458L2997.4 394.782V396H2999ZM2999 406.5V408.1H3000.6V406.5H2999ZM2957.5 406.5H2955.9V408.1H2957.5V406.5ZM2957.5 339.5H2959.1V337.9H2957.5V339.5ZM2948.5 339.5H2946.9V341.1H2948.5V339.5ZM2948.5 156H2950.1V154.698L2948.83 154.433L2948.5 156ZM2922 150.5H2920.4V151.802L2921.67 152.067L2922 150.5ZM2922 146.5H2923.6V145.332L2922.49 144.976L2922 146.5ZM2897 138.5L2897.49 136.976L2895.4 136.308V138.5H2897ZM2897 146.5L2896.75 148.08L2898.6 148.376V146.5H2897ZM2822 134.5L2822.25 132.92L2820.92 132.708L2820.49 133.98L2822 134.5ZM2816.5 150.5L2814.99 149.98L2814.9 150.233V150.5H2816.5ZM2816.5 406.5V408.1H2818.1V406.5H2816.5ZM2793 406.5H2791.4V408.1H2793V406.5ZM2793 258H2794.6V257.144L2793.89 256.669L2793 258ZM2767.5 241L2768.39 239.669L2767.98 239.4H2767.5V241ZM2754 241V239.4H2753.29L2752.82 239.922L2754 241ZM2738.5 258H2736.9V262.13L2739.68 259.078L2738.5 258ZM2738.5 231H2740.1V229.4H2738.5V231ZM2733.5 231H2731.9V232.6H2733.5V231ZM2733.5 168.5H2735.1V166.709L2733.32 166.91L2733.5 168.5ZM2702.5 172H2700.9V173.791L2702.68 173.59L2702.5 172ZM2702.5 156H2704.1V154.4H2702.5V156ZM2698.5 156H2696.9V157.6H2698.5V156ZM2698.5 138.5V136.9H2696.9V138.5H2698.5ZM2702.5 138.5V140.1H2704.1V138.5H2702.5ZM2702.5 120.5H2704.1V118.951L2702.55 118.901L2702.5 120.5ZM2610 117.5L2610.05 115.901L2609.91 115.896L2609.78 115.915L2610 117.5ZM2588.5 120.5L2588.28 118.915L2586.9 119.108V120.5H2588.5ZM2588.5 125.5H2586.9V127.1H2588.5V125.5ZM2592 125.5H2593.6V123.9H2592V125.5ZM2592 146.5V148.1H2593.6V146.5H2592ZM2583 146.5V144.9H2581.28L2581.4 146.615L2583 146.5ZM2588.5 223V224.6H2590.22L2590.1 222.885L2588.5 223ZM2576.5 223V221.4H2574.85L2574.9 223.053L2576.5 223ZM2580.5 343V344.6H2582.15L2582.1 342.947L2580.5 343ZM2561.5 343V341.4H2559.9V343H2561.5ZM2561.5 374.5L2559.9 374.606L2563.1 374.5H2561.5ZM2556.5 299L2558.1 298.894L2558 297.4H2556.5V299ZM2547 299V297.4H2546.6L2546.25 297.588L2547 299ZM2539.5 303L2538.14 303.848L2538.93 305.115L2540.25 304.412L2539.5 303ZM2537 299L2538.36 298.152L2537.97 297.527L2537.24 297.418L2537 299ZM2517 296H2515.4V297.378L2516.76 297.582L2517 296ZM2517 274H2518.6V272.4H2517V274ZM2494.5 274H2492.9V275.6H2494.5V274ZM2494.5 220.5V218.9H2492.9V220.5H2494.5ZM2498 220.5V222.1H2499.6V220.5H2498ZM2498 215H2499.6V213.336L2497.94 213.401L2498 215ZM2421.5 218L2421.1 219.548L2421.33 219.608L2421.56 219.599L2421.5 218ZM2410 215L2410.4 213.452L2408.4 212.929V215H2410ZM2410 366.5L2409.42 367.99L2411.6 368.843V366.5H2410ZM2378 354L2378.58 352.51L2378.3 352.4H2378V354ZM2312.5 354H2310.9V355.6H2312.5V354ZM2312.5 343H2314.1V341.235L2312.34 341.408L2312.5 343ZM2287 345.5L2286.84 343.908L2285.4 344.049V345.5H2287ZM2287 354V355.6H2288.6V354H2287ZM2244 354V352.4H2242.4V354H2244ZM2244 362.5V364.1H2245.6V362.5H2244ZM2225 362.5H2223.4V364.1H2225V362.5ZM2225 348H2226.6V347.059L2225.78 346.601L2225 348ZM2220.5 345.5H2218.9V346.441L2219.72 346.899L2220.5 345.5ZM2220.5 258H2222.1V257.245L2221.52 256.765L2220.5 258ZM2212 251L2213.02 249.765L2212.57 249.4H2212V251ZM2196 251V249.4H2195.43L2194.98 249.765L2196 251ZM2187.5 258V259.6H2188.07L2188.52 259.235L2187.5 258ZM2184 258V256.4H2182.4V258H2184ZM2184 307.5V309.1H2185.6V307.5H2184ZM2178.5 307.5H2176.9V309.1H2178.5V307.5ZM2178.5 292.5H2180.1V290.968L2178.57 290.901L2178.5 292.5ZM2109 289.5H2107.4V291.032L2108.93 291.099L2109 289.5ZM2109 242.5H2110.6V240.9H2109V242.5ZM2106 242.5H2104.4V244.1H2106V242.5ZM2106 186H2107.6V184.4H2106V186ZM2104 186H2102.4V187.6H2104V186ZM2104 135.5H2105.6V133.9H2104V135.5ZM2102 135.5V133.9H2100.9L2100.51 134.929L2102 135.5ZM2095.5 152.5L2094.01 151.929L2093.9 152.205V152.5H2095.5ZM2095.5 182.5H2093.9V184.1H2095.5V182.5ZM2096.5 182.5H2098.1V180.9H2096.5V182.5ZM2096.5 186V187.6H2098.1V186H2096.5ZM2095.5 186V184.4H2093.9V186H2095.5ZM2095.5 242.5V244.1H2097.1V242.5H2095.5ZM2092.5 242.5V240.9H2090.9V242.5H2092.5ZM2092.5 292.5V294.1H2094.1V292.5H2092.5ZM2058.5 292.5V290.9H2056.9V292.5H2058.5ZM2058.5 422V423.6H2060.1V422H2058.5ZM1966.5 422L1966.42 423.598L1966.46 423.6H1966.5V422ZM1882 418L1881.76 419.582L1881.84 419.594L1881.92 419.598L1882 418ZM1799.75 405.5L1799.41 407.062L1799.46 407.074L1799.51 407.082L1799.75 405.5ZM1726.6 389.354L1726.26 390.916L1726.6 389.354ZM1724.43 387.46L1725.93 386.908V386.908L1724.43 387.46ZM1682.13 272.526L1683.63 271.974H1683.63L1682.13 272.526ZM1678.34 216.362L1676.78 216.016L1678.34 216.362ZM1703.97 100.662L1702.41 100.316V100.316L1703.97 100.662ZM1701.37 99.0987L1702.41 100.316V100.316L1701.37 99.0987ZM1689.42 109.285L1690.46 110.502V110.502L1689.42 109.285ZM1687.52 112.31L1685.97 111.899V111.9L1687.52 112.31ZM1684.81 122.5L1686.36 122.911V122.911L1684.81 122.5ZM1673.59 164.77L1672.05 164.359L1672.05 164.359L1673.59 164.77ZM1639.44 164.722L1637.88 165.106V165.106L1639.44 164.722ZM1626.49 112.462L1624.93 112.846L1624.93 112.846L1626.49 112.462ZM1624.43 109.232L1623.42 110.478L1623.42 110.478L1624.43 109.232ZM1611.59 98.891L1610.59 100.137V100.137L1611.59 98.891ZM1609.03 100.493L1610.59 100.137V100.137L1609.03 100.493ZM1635.41 216.13L1636.97 215.774V215.774L1635.41 216.13ZM1631.81 272.802L1630.3 272.251L1631.81 272.802ZM1582.1 408.351L1583.61 408.902V408.902L1582.1 408.351ZM1579.77 410.28L1579.51 408.7L1579.77 410.28ZM1364.5 445H1362.9V446.879L1364.75 446.58L1364.5 445ZM1364.5 170.5H1366.1V169.061L1364.67 168.909L1364.5 170.5ZM1331.5 167H1329.9V168.439L1331.33 168.591L1331.5 167ZM1331.5 162H1333.1V160.4H1331.5V162ZM1321.5 162H1319.9V163.6H1321.5V162ZM1321.5 153.5H1323.1V151.9H1321.5V153.5ZM1269.5 153.5V151.9H1267.9V153.5H1269.5ZM1269.5 170.5V172.1H1271.1V170.5H1269.5ZM1230 170.5V168.9H1228.4V170.5H1230ZM1230 328.5V330.1H1231.6V328.5H1230ZM1224 328.5H1222.4V330.1H1224V328.5ZM1224 284H1225.6V282.889L1224.56 282.501L1224 284ZM1198.5 274.5L1199.06 273.001L1198.73 272.877L1198.37 272.905L1198.5 274.5ZM1160.5 277.5H1158.9V279.231L1160.63 279.095L1160.5 277.5ZM1160.5 218.5H1162.1V217.754L1161.53 217.275L1160.5 218.5ZM1148 208H1146.4V208.746L1146.97 209.225L1148 208ZM1148 189.5H1149.6V189.215L1149.5 188.947L1148 189.5ZM1141 170.5L1142.5 169.947L1142.16 169.027L1141.19 168.911L1141 170.5ZM1111.5 167H1109.9V168.421L1111.31 168.589L1111.5 167ZM1111.5 162H1113.1V160.4H1111.5V162ZM1064.5 162V160.4H1064.23L1063.98 160.487L1064.5 162ZM1050 167L1049.48 165.487L1048.4 165.859V167H1050ZM1050 229V230.6H1051.6V229H1050ZM1016 229V227.4H1014.4V229H1016ZM1016 368V369.6H1017.6V368H1016ZM1012 368H1010.4V369.6H1012V368ZM1012 208H1013.6V207.877L1013.58 207.755L1012 208ZM993 85.5L994.581 85.2548L994.382 83.9722L993.086 83.9023L993 85.5ZM909.5 81L909.586 79.4023L909.193 79.3811L908.835 79.5448L909.5 81ZM892 89L891.335 87.5448L890.4 87.9722V89H892ZM892 162V163.6H893.6V162H892ZM888 162V160.4H886.4V162H888ZM888 246.5V248.1H889.6V246.5H888ZM868 246.5V244.9H866.4V246.5H868ZM868 256V257.6H869.6V256H868ZM863 256V254.4H861.4V256H863ZM863 284V285.6H864.6V284H863ZM839 284L837.637 284.839L838.106 285.6H839V284ZM835 277.5L836.363 276.661L835.894 275.9H835V277.5ZM813 277.5L811.611 278.294L812.071 279.1H813V277.5ZM809 270.5L810.389 269.706L809.929 268.9H809V270.5ZM804 270.5V268.9H803.575L803.206 269.111L804 270.5ZM797 274.5V276.1H797.425L797.794 275.889L797 274.5ZM770.5 274.5V272.9H770.122L769.784 273.069L770.5 274.5ZM758.5 280.5L757.784 279.069L756.9 279.511V280.5H758.5ZM758.5 342.5V344.1H760.1V342.5H758.5ZM734.5 342.5H732.9V344.1H734.5V342.5ZM734.5 298.5H736.1V296.9H734.5V298.5ZM722 298.5H720.4V300.1H722V298.5ZM722 287.5H723.6V287.265L723.533 287.04L722 287.5ZM719 277.5L720.533 277.04L719.373 273.176L717.569 276.784L719 277.5ZM714 287.5V289.1H714.989L715.431 288.216L714 287.5ZM688.5 287.5H686.9V289.1H688.5V287.5ZM688.5 256H690.1V254.4H688.5V256ZM672.5 256H670.9V257.6H672.5V256ZM672.5 189.5H674.1V187.9H672.5V189.5ZM657 189.5H655.4V191.1H657V189.5ZM657 174.5H658.6V172.9H657V174.5ZM573.5 174.5V172.9H571.9V174.5H573.5ZM573.5 189.5V191.1H575.1V189.5H573.5ZM542.5 189.5V187.9H540.9V189.5H542.5ZM542.5 229V230.6H544.1V229H542.5ZM530.5 229H528.9V230.6H530.5V229ZM530.5 218.5H532.1V216.9H530.5V218.5ZM510.5 218.5V216.9H508.9V218.5H510.5ZM510.5 342.5V344.1H512.1V342.5H510.5ZM503 342.5H501.4V344.1H503V342.5ZM503 294H504.6V292.4H503V294ZM497.5 294H495.9V295.6H497.5V294ZM497.5 274.5H499.1V272.365L497.051 272.964L497.5 274.5ZM477 280.5H475.4V282.635L477.449 282.036L477 280.5ZM477 137.5H478.6V135.312L476.515 135.975L477 137.5ZM466 141L465.082 142.311L465.731 142.765L466.485 142.525L466 141ZM461 137.5L461.918 136.189L461.504 135.9H461V137.5ZM391.5 137.5V135.9L390.901 138.984L391.5 137.5ZM417.5 148H419.1V146.921L418.099 146.516L417.5 148ZM417.5 162V163.6H419.1V162H417.5ZM402 162H400.4V163.6H402V162ZM402 157.5H403.6V156.239L402.374 155.944L402 157.5ZM362.5 148L362.874 146.444L360.9 145.97V148H362.5ZM362.5 270.5V272.1H364.1V270.5H362.5ZM324.5 270.5H322.9V272.1H324.5V270.5ZM324.5 177.5H326.1V177.259L326.029 177.029L324.5 177.5ZM322.5 171L324.029 170.529L323.904 170.124L323.595 169.833L322.5 171ZM298 148L299.095 146.833L298.633 146.4H298V148ZM281 148V146.4H280.357L279.893 146.845L281 148ZM257 171L255.893 169.845L255.4 170.317V171H257ZM257 179.5V181.1H258.6V179.5H257ZM250.5 179.5V177.9H248.9V179.5H250.5ZM250.5 184H248.9V185.6H250.5V184ZM254 184H255.6V182.4H254V184ZM254 196.5V198.1H255.6V196.5H254ZM250.5 196.5V194.9H248.9V196.5H250.5ZM250.5 290.5V292.1H252.1V290.5H250.5ZM195.5 290.5H193.9V292.1H195.5V290.5ZM195.5 223.5H197.1V222.417L196.094 222.014L195.5 223.5ZM193 222.5H191.4V223.583L192.406 223.986L193 222.5ZM193 215.5H194.6V213.9H193V215.5ZM190.5 215.5H188.9V217.1H190.5V215.5ZM190.5 189.5H192.1V188.789L191.573 188.313L190.5 189.5ZM164.5 166L165.573 164.813L165.116 164.4H164.5V166ZM144 166V164.4H143.384L142.927 164.813L144 166ZM118 189.5L116.927 188.313L116.4 188.789V189.5H118ZM118 207V208.6H119.6V207H118ZM114.5 207V205.4H112.9V207H114.5ZM114.5 215.5V217.1H116.1V215.5H114.5ZM111 215.5V213.9H109.4V215.5H111ZM111 311V312.6H112.6V311H111ZM107 311H105.4V312.6H107V311ZM107 277V275.4H105.4V277H107ZM109 277V278.6H110.6V277H109ZM109 273H110.6V271.4H109V273ZM107 273H105.4V274.6H107V273ZM107 261.5H108.6V261.474L108.599 261.448L107 261.5ZM92.5 246V244.4H92.1682L91.8638 244.532L92.5 246ZM77.5 252.5H75.9V254.937L78.1362 253.968L77.5 252.5ZM77.5 233.5H79.1V232.259L77.8985 231.95L77.5 233.5ZM60 229L60.3985 227.45L58.4 226.937V229H60ZM60 236V237.6H61.6V236H60ZM54 236V234.4H52.4V236H54ZM54 241.5L55.1757 242.585L55.6 242.126V241.5H54ZM48 248L46.8243 246.915L46.4 247.374V248H48ZM48 274.5V276.1H49.6V274.5H48ZM45 274.5V272.9H43.4V274.5H45ZM45 311V312.6H46.6V311H45ZM41.5 311L40.0191 311.606L40.4258 312.6H41.5V311ZM37 300L38.4809 299.394L38.0742 298.4H37V300ZM23 300V298.4H22.1709L21.6929 299.077L23 300ZM17 308.5H15.4V313.541L18.3071 309.423L17 308.5ZM17 301.5H18.6V298.988L16.3234 300.05L17 301.5ZM9.5 305L8.82338 303.55L7.9 303.981V305H9.5ZM1642.81 183.653L1644.38 183.305V183.305L1642.81 183.653ZM1653.67 232.311L1655.23 231.963V231.963L1653.67 232.311ZM1659.52 232.354L1661.07 232.725V232.725L1659.52 232.354ZM1671.12 183.696L1672.68 184.067V184.067L1671.12 183.696ZM1605.22 400.863L1606.74 401.37L1605.22 400.863ZM1653.63 256.07L1655.15 256.577V256.577L1653.63 256.07ZM1608.77 404.731L1608.39 403.175L1608.77 404.731ZM1697.83 383.263L1697.46 381.708L1697.83 383.263ZM1699.98 379.407L1701.5 378.906V378.906L1699.98 379.407ZM1659.33 256.082L1660.85 255.581V255.581L1659.33 256.082ZM6.71553 316.931C6.66797 316.955 6.7168 316.922 6.9354 316.899C7.13178 316.878 7.38175 316.874 7.668 316.886C8.24232 316.911 8.83455 316.999 9.1862 317.069L9.8138 313.931C9.33212 313.835 8.57435 313.722 7.807 313.689C7.42242 313.672 7.00364 313.674 6.59897 313.717C6.21654 313.757 5.73203 313.845 5.28447 314.069L6.71553 316.931ZM2 317.1H6V313.9H2V317.1ZM3.6 655V315.5H0.4V655H3.6ZM3330 653.4H2V656.6H3330V653.4ZM3328.4 348V655H3331.6V348H3328.4ZM3321.5 349.6H3330V346.4H3321.5V349.6ZM3319.9 241V348H3323.1V241H3319.9ZM3313.66 231.872L3320.16 241.872L3322.84 240.128L3316.34 230.128L3313.66 231.872ZM3249.5 232.6H3315V229.4H3249.5V232.6ZM3239.58 242.184L3250.58 232.184L3248.42 229.816L3237.42 239.816L3239.58 242.184ZM3240.1 292.5V241H3236.9V292.5H3240.1ZM3217.5 294.1H3238.5V290.9H3217.5V294.1ZM3215.9 241V292.5H3219.1V241H3215.9ZM3190.44 232.497L3216.94 242.497L3218.06 239.503L3191.56 229.503L3190.44 232.497ZM3166.59 242.486L3191.59 232.486L3190.41 229.514L3165.41 239.514L3166.59 242.486ZM3173.1 328.4L3167.6 240.9L3164.4 241.1L3169.9 328.6L3173.1 328.4ZM3144 330.1H3171.5V326.9H3144V330.1ZM3145.6 334.5V328.5H3142.4V334.5H3145.6ZM3110.5 336.1H3144V332.9H3110.5V336.1ZM3112.1 366.5V334.5H3108.9V366.5H3112.1ZM3069 368.1H3110.5V364.9H3069V368.1ZM3070.6 389.5V366.5H3067.4V389.5H3070.6ZM3022.5 391.1H3069V387.9H3022.5V391.1ZM2999.43 397.542L3022.93 391.042L3022.07 387.958L2998.57 394.458L2999.43 397.542ZM3000.6 406.5V396H2997.4V406.5H3000.6ZM2977.5 408.1H2999V404.9H2977.5V408.1ZM2957.5 408.1H2977.5V404.9H2957.5V408.1ZM2955.9 339.5V406.5H2959.1V339.5H2955.9ZM2948.5 341.1H2957.5V337.9H2948.5V341.1ZM2946.9 156V339.5H2950.1V156H2946.9ZM2921.67 152.067L2948.17 157.567L2948.83 154.433L2922.33 148.933L2921.67 152.067ZM2920.4 146.5V150.5H2923.6V146.5H2920.4ZM2896.51 140.024L2921.51 148.024L2922.49 144.976L2897.49 136.976L2896.51 140.024ZM2898.6 146.5V138.5H2895.4V146.5H2898.6ZM2821.75 136.08L2896.75 148.08L2897.25 144.92L2822.25 132.92L2821.75 136.08ZM2818.01 151.02L2823.51 135.02L2820.49 133.98L2814.99 149.98L2818.01 151.02ZM2818.1 406.5V150.5H2814.9V406.5H2818.1ZM2793 408.1H2816.5V404.9H2793V408.1ZM2791.4 258V406.5H2794.6V258H2791.4ZM2766.61 242.331L2792.11 259.331L2793.89 256.669L2768.39 239.669L2766.61 242.331ZM2754 242.6H2767.5V239.4H2754V242.6ZM2739.68 259.078L2755.18 242.078L2752.82 239.922L2737.32 256.922L2739.68 259.078ZM2736.9 231V258H2740.1V231H2736.9ZM2733.5 232.6H2738.5V229.4H2733.5V232.6ZM2731.9 168.5V231H2735.1V168.5H2731.9ZM2702.68 173.59L2733.68 170.09L2733.32 166.91L2702.32 170.41L2702.68 173.59ZM2700.9 156V172H2704.1V156H2700.9ZM2698.5 157.6H2702.5V154.4H2698.5V157.6ZM2696.9 138.5V156H2700.1V138.5H2696.9ZM2702.5 136.9H2698.5V140.1H2702.5V136.9ZM2700.9 120.5V138.5H2704.1V120.5H2700.9ZM2609.95 119.099L2702.45 122.099L2702.55 118.901L2610.05 115.901L2609.95 119.099ZM2588.72 122.085L2610.22 119.085L2609.78 115.915L2588.28 118.915L2588.72 122.085ZM2590.1 125.5V120.5H2586.9V125.5H2590.1ZM2592 123.9H2588.5V127.1H2592V123.9ZM2593.6 146.5V125.5H2590.4V146.5H2593.6ZM2583 148.1H2592V144.9H2583V148.1ZM2590.1 222.885L2584.6 146.385L2581.4 146.615L2586.9 223.115L2590.1 222.885ZM2576.5 224.6H2588.5V221.4H2576.5V224.6ZM2582.1 342.947L2578.1 222.947L2574.9 223.053L2578.9 343.053L2582.1 342.947ZM2561.5 344.6H2580.5V341.4H2561.5V344.6ZM2563.1 374.5V343H2559.9V374.5H2563.1ZM2554.9 299.106L2559.9 374.606L2563.1 374.394L2558.1 298.894L2554.9 299.106ZM2547 300.6H2556.5V297.4H2547V300.6ZM2540.25 304.412L2547.75 300.412L2546.25 297.588L2538.75 301.588L2540.25 304.412ZM2535.64 299.848L2538.14 303.848L2540.86 302.152L2538.36 298.152L2535.64 299.848ZM2516.76 297.582L2536.76 300.582L2537.24 297.418L2517.24 294.418L2516.76 297.582ZM2515.4 274V296H2518.6V274H2515.4ZM2494.5 275.6H2517V272.4H2494.5V275.6ZM2492.9 220.5V274H2496.1V220.5H2492.9ZM2498 218.9H2494.5V222.1H2498V218.9ZM2496.4 215V220.5H2499.6V215H2496.4ZM2421.56 219.599L2498.06 216.599L2497.94 213.401L2421.44 216.401L2421.56 219.599ZM2409.6 216.548L2421.1 219.548L2421.9 216.452L2410.4 213.452L2409.6 216.548ZM2411.6 366.5V215H2408.4V366.5H2411.6ZM2377.42 355.49L2409.42 367.99L2410.58 365.01L2378.58 352.51L2377.42 355.49ZM2312.5 355.6H2378V352.4H2312.5V355.6ZM2310.9 343V354H2314.1V343H2310.9ZM2287.16 347.092L2312.66 344.592L2312.34 341.408L2286.84 343.908L2287.16 347.092ZM2288.6 354V345.5H2285.4V354H2288.6ZM2244 355.6H2287V352.4H2244V355.6ZM2245.6 362.5V354H2242.4V362.5H2245.6ZM2225 364.1H2244V360.9H2225V364.1ZM2223.4 348V362.5H2226.6V348H2223.4ZM2219.72 346.899L2224.22 349.399L2225.78 346.601L2221.28 344.101L2219.72 346.899ZM2218.9 258V345.5H2222.1V258H2218.9ZM2210.98 252.235L2219.48 259.235L2221.52 256.765L2213.02 249.765L2210.98 252.235ZM2196 252.6H2212V249.4H2196V252.6ZM2188.52 259.235L2197.02 252.235L2194.98 249.765L2186.48 256.765L2188.52 259.235ZM2184 259.6H2187.5V256.4H2184V259.6ZM2185.6 307.5V258H2182.4V307.5H2185.6ZM2178.5 309.1H2184V305.9H2178.5V309.1ZM2176.9 292.5V307.5H2180.1V292.5H2176.9ZM2108.93 291.099L2178.43 294.099L2178.57 290.901L2109.07 287.901L2108.93 291.099ZM2107.4 242.5V289.5H2110.6V242.5H2107.4ZM2106 244.1H2109V240.9H2106V244.1ZM2104.4 186V242.5H2107.6V186H2104.4ZM2104 187.6H2106V184.4H2104V187.6ZM2102.4 178.5V186H2105.6V178.5H2102.4ZM2102.4 162V178.5H2105.6V162H2102.4ZM2102.4 135.5V162H2105.6V135.5H2102.4ZM2102 137.1H2104V133.9H2102V137.1ZM2096.99 153.071L2103.49 136.071L2100.51 134.929L2094.01 151.929L2096.99 153.071ZM2097.1 182.5V152.5H2093.9V182.5H2097.1ZM2096.5 180.9H2095.5V184.1H2096.5V180.9ZM2098.1 186V182.5H2094.9V186H2098.1ZM2095.5 187.6H2096.5V184.4H2095.5V187.6ZM2097.1 242.5V186H2093.9V242.5H2097.1ZM2092.5 244.1H2095.5V240.9H2092.5V244.1ZM2094.1 292.5V242.5H2090.9V292.5H2094.1ZM2058.5 294.1H2092.5V290.9H2058.5V294.1ZM2060.1 422V292.5H2056.9V422H2060.1ZM1966.5 423.6H2058.5V420.4H1966.5V423.6ZM1881.92 419.598L1966.42 423.598L1966.58 420.402L1882.08 416.402L1881.92 419.598ZM1799.51 407.082L1881.76 419.582L1882.24 416.418L1799.99 403.918L1799.51 407.082ZM1726.26 390.916L1799.41 407.062L1800.09 403.938L1726.95 387.791L1726.26 390.916ZM1722.93 388.013C1723.47 389.484 1724.73 390.578 1726.26 390.916L1726.95 387.791C1726.48 387.688 1726.1 387.355 1725.93 386.908L1722.93 388.013ZM1680.63 273.079L1722.93 388.013L1725.93 386.908L1683.63 271.974L1680.63 273.079ZM1676.78 216.016C1672.57 235.013 1673.91 254.819 1680.63 273.079L1683.63 271.974C1677.12 254.289 1675.83 235.107 1679.9 216.708L1676.78 216.016ZM1702.41 100.316L1676.78 216.016L1679.9 216.708L1705.53 101.008L1702.41 100.316ZM1702.41 100.316C1702.41 100.309 1702.42 100.306 1702.42 100.305C1702.42 100.304 1702.42 100.304 1702.42 100.305C1702.42 100.306 1702.41 100.307 1702.41 100.308C1702.4 100.309 1702.4 100.31 1702.4 100.31C1702.39 100.31 1702.39 100.309 1702.39 100.31C1702.39 100.31 1702.4 100.312 1702.41 100.316C1702.41 100.32 1702.42 100.324 1702.42 100.326C1702.42 100.327 1702.42 100.326 1702.41 100.32C1702.41 100.317 1702.41 100.313 1702.41 100.309C1702.41 100.305 1702.41 100.301 1702.41 100.299C1702.41 100.296 1702.41 100.295 1702.41 100.297C1702.41 100.299 1702.41 100.305 1702.41 100.316L1705.53 101.008C1706.19 98.0105 1702.66 95.889 1700.33 97.8814L1702.41 100.316ZM1690.46 110.502L1702.41 100.316L1700.33 97.8814L1688.39 108.067L1690.46 110.502ZM1689.07 112.721C1689.3 111.856 1689.78 111.082 1690.46 110.502L1688.39 108.067C1687.21 109.07 1686.37 110.407 1685.97 111.899L1689.07 112.721ZM1686.36 122.911L1689.07 112.721L1685.97 111.9L1683.27 122.089L1686.36 122.911ZM1675.14 165.18L1686.36 122.911L1683.27 122.089L1672.05 164.359L1675.14 165.18ZM1670.69 168.6C1672.78 168.6 1674.6 167.196 1675.14 165.18L1672.05 164.359C1671.88 164.973 1671.33 165.4 1670.69 165.4V168.6ZM1642.35 168.6H1670.69V165.4H1642.35V168.6ZM1637.88 165.106C1638.39 167.159 1640.23 168.6 1642.35 168.6V165.4C1641.7 165.4 1641.14 164.961 1640.99 164.337L1637.88 165.106ZM1624.93 112.846L1637.88 165.106L1640.99 164.337L1628.04 112.077L1624.93 112.846ZM1623.42 110.478C1624.17 111.081 1624.7 111.913 1624.93 112.846L1628.04 112.077C1627.64 110.465 1626.72 109.028 1625.43 107.986L1623.42 110.478ZM1610.59 100.137L1623.42 110.478L1625.43 107.986L1612.59 97.645L1610.59 100.137ZM1610.59 100.137L1610.59 100.137L1612.59 97.6451C1610.23 95.741 1606.79 97.8898 1607.47 100.849L1610.59 100.137ZM1636.97 215.774L1610.59 100.137L1607.47 100.849L1633.85 216.486L1636.97 215.774ZM1633.31 273.353C1640.07 254.917 1641.34 234.918 1636.97 215.774L1633.85 216.486C1638.08 235.027 1636.85 254.396 1630.3 272.251L1633.31 273.353ZM1583.61 408.902L1633.31 273.353L1630.3 272.251L1580.6 407.8L1583.61 408.902ZM1580.02 411.859C1581.66 411.594 1583.03 410.463 1583.61 408.902L1580.6 407.8C1580.43 408.275 1580.01 408.62 1579.51 408.7L1580.02 411.859ZM1364.75 446.58L1580.02 411.859L1579.51 408.7L1364.25 443.42L1364.75 446.58ZM1362.9 170.5V445H1366.1V170.5H1362.9ZM1331.33 168.591L1364.33 172.091L1364.67 168.909L1331.67 165.409L1331.33 168.591ZM1329.9 162V167H1333.1V162H1329.9ZM1321.5 163.6H1331.5V160.4H1321.5V163.6ZM1319.9 153.5V162H1323.1V153.5H1319.9ZM1269.5 155.1H1321.5V151.9H1269.5V155.1ZM1271.1 170.5V153.5H1267.9V170.5H1271.1ZM1230 172.1H1269.5V168.9H1230V172.1ZM1231.6 328.5V170.5H1228.4V328.5H1231.6ZM1224 330.1H1230V326.9H1224V330.1ZM1222.4 284V328.5H1225.6V284H1222.4ZM1197.94 275.999L1223.44 285.499L1224.56 282.501L1199.06 273.001L1197.94 275.999ZM1160.63 279.095L1198.63 276.095L1198.37 272.905L1160.37 275.905L1160.63 279.095ZM1158.9 218.5V277.5H1162.1V218.5H1158.9ZM1146.97 209.225L1159.47 219.725L1161.53 217.275L1149.03 206.775L1146.97 209.225ZM1146.4 189.5V208H1149.6V189.5H1146.4ZM1139.5 171.053L1146.5 190.053L1149.5 188.947L1142.5 169.947L1139.5 171.053ZM1111.31 168.589L1140.81 172.089L1141.19 168.911L1111.69 165.411L1111.31 168.589ZM1109.9 162V167H1113.1V162H1109.9ZM1064.5 163.6H1111.5V160.4H1064.5V163.6ZM1050.52 168.513L1065.02 163.513L1063.98 160.487L1049.48 165.487L1050.52 168.513ZM1051.6 229V167H1048.4V229H1051.6ZM1016 230.6H1050V227.4H1016V230.6ZM1017.6 368V229H1014.4V368H1017.6ZM1012 369.6H1016V366.4H1012V369.6ZM1010.4 208V368H1013.6V208H1010.4ZM991.419 85.7452L1010.42 208.245L1013.58 207.755L994.581 85.2548L991.419 85.7452ZM909.414 82.5977L992.914 87.0977L993.086 83.9023L909.586 79.4023L909.414 82.5977ZM892.665 90.4552L910.165 82.4552L908.835 79.5448L891.335 87.5448L892.665 90.4552ZM893.6 162V89H890.4V162H893.6ZM888 163.6H892V160.4H888V163.6ZM889.6 246.5V162H886.4V246.5H889.6ZM868 248.1H888V244.9H868V248.1ZM869.6 256V246.5H866.4V256H869.6ZM863 257.6H868V254.4H863V257.6ZM864.6 284V256H861.4V284H864.6ZM839 285.6H863V282.4H839V285.6ZM833.637 278.339L837.637 284.839L840.363 283.161L836.363 276.661L833.637 278.339ZM813 279.1H835V275.9H813V279.1ZM807.611 271.294L811.611 278.294L814.389 276.706L810.389 269.706L807.611 271.294ZM804 272.1H809V268.9H804V272.1ZM797.794 275.889L804.794 271.889L803.206 269.111L796.206 273.111L797.794 275.889ZM770.5 276.1H797V272.9H770.5V276.1ZM759.216 281.931L771.216 275.931L769.784 273.069L757.784 279.069L759.216 281.931ZM760.1 342.5V280.5H756.9V342.5H760.1ZM734.5 344.1H758.5V340.9H734.5V344.1ZM732.9 298.5V342.5H736.1V298.5H732.9ZM722 300.1H734.5V296.9H722V300.1ZM720.4 287.5V298.5H723.6V287.5H720.4ZM717.467 277.96L720.467 287.96L723.533 287.04L720.533 277.04L717.467 277.96ZM715.431 288.216L720.431 278.216L717.569 276.784L712.569 286.784L715.431 288.216ZM697.5 289.1H714V285.9H697.5V289.1ZM688.5 289.1H697.5V285.9H688.5V289.1ZM686.9 256V287.5H690.1V256H686.9ZM672.5 257.6H688.5V254.4H672.5V257.6ZM670.9 189.5V256H674.1V189.5H670.9ZM657 191.1H672.5V187.9H657V191.1ZM655.4 174.5V189.5H658.6V174.5H655.4ZM573.5 176.1H657V172.9H573.5V176.1ZM575.1 189.5V174.5H571.9V189.5H575.1ZM542.5 191.1H573.5V187.9H542.5V191.1ZM544.1 229V189.5H540.9V229H544.1ZM530.5 230.6H542.5V227.4H530.5V230.6ZM528.9 218.5V229H532.1V218.5H528.9ZM510.5 220.1H530.5V216.9H510.5V220.1ZM512.1 342.5V218.5H508.9V342.5H512.1ZM503 344.1H510.5V340.9H503V344.1ZM501.4 294V342.5H504.6V294H501.4ZM497.5 295.6H503V292.4H497.5V295.6ZM495.9 274.5V294H499.1V274.5H495.9ZM477.449 282.036L497.949 276.036L497.051 272.964L476.551 278.964L477.449 282.036ZM475.4 137.5V280.5H478.6V137.5H475.4ZM466.485 142.525L477.485 139.025L476.515 135.975L465.515 139.475L466.485 142.525ZM460.082 138.811L465.082 142.311L466.918 139.689L461.918 136.189L460.082 138.811ZM391.5 139.1H461V135.9H391.5V139.1ZM418.099 146.516L392.099 136.016L390.901 138.984L416.901 149.484L418.099 146.516ZM419.1 162V148H415.9V162H419.1ZM402 163.6H417.5V160.4H402V163.6ZM400.4 157.5V162H403.6V157.5H400.4ZM362.126 149.556L401.626 159.056L402.374 155.944L362.874 146.444L362.126 149.556ZM364.1 270.5V148H360.9V270.5H364.1ZM324.5 272.1H362.5V268.9H324.5V272.1ZM322.9 177.5V270.5H326.1V177.5H322.9ZM320.971 171.471L322.971 177.971L326.029 177.029L324.029 170.529L320.971 171.471ZM296.905 149.167L321.405 172.167L323.595 169.833L299.095 146.833L296.905 149.167ZM281 149.6H298V146.4H281V149.6ZM258.107 172.155L282.107 149.155L279.893 146.845L255.893 169.845L258.107 172.155ZM258.6 179.5V171H255.4V179.5H258.6ZM250.5 181.1H257V177.9H250.5V181.1ZM252.1 184V179.5H248.9V184H252.1ZM254 182.4H250.5V185.6H254V182.4ZM255.6 196.5V184H252.4V196.5H255.6ZM250.5 198.1H254V194.9H250.5V198.1ZM252.1 290.5V196.5H248.9V290.5H252.1ZM195.5 292.1H250.5V288.9H195.5V292.1ZM193.9 226V290.5H197.1V226H193.9ZM193.9 223.5V226H197.1V223.5H193.9ZM192.406 223.986L194.906 224.986L196.094 222.014L193.594 221.014L192.406 223.986ZM191.4 215.5V222.5H194.6V215.5H191.4ZM190.5 217.1H193V213.9H190.5V217.1ZM188.9 189.5V215.5H192.1V189.5H188.9ZM163.427 167.187L189.427 190.687L191.573 188.313L165.573 164.813L163.427 167.187ZM144 167.6H164.5V164.4H144V167.6ZM119.073 190.687L145.073 167.187L142.927 164.813L116.927 188.313L119.073 190.687ZM119.6 207V189.5H116.4V207H119.6ZM114.5 208.6H118V205.4H114.5V208.6ZM116.1 215.5V207H112.9V215.5H116.1ZM111 217.1H114.5V213.9H111V217.1ZM112.6 311V215.5H109.4V311H112.6ZM107 312.6H111V309.4H107V312.6ZM105.4 277V311H108.6V277H105.4ZM109 275.4H107V278.6H109V275.4ZM107.4 273V277H110.6V273H107.4ZM107 274.6H109V271.4H107V274.6ZM105.4 261.5V273H108.6V261.5H105.4ZM92.5 247.6C97.5119 247.6 100.625 249.871 102.566 252.715C104.56 255.635 105.325 259.195 105.401 261.552L108.599 261.448C108.509 258.638 107.624 254.448 105.209 250.91C102.742 247.296 98.6881 244.4 92.5 244.4V247.6ZM78.1362 253.968L93.1362 247.468L91.8638 244.532L76.8638 251.032L78.1362 253.968ZM75.9 233.5V252.5H79.1V233.5H75.9ZM59.6015 230.55L77.1015 235.05L77.8985 231.95L60.3985 227.45L59.6015 230.55ZM61.6 236V229H58.4V236H61.6ZM54 237.6H60V234.4H54V237.6ZM55.6 241.5V236H52.4V241.5H55.6ZM49.1757 249.085L55.1757 242.585L52.8243 240.415L46.8243 246.915L49.1757 249.085ZM49.6 274.5V248H46.4V274.5H49.6ZM45 276.1H48V272.9H45V276.1ZM46.6 311V274.5H43.4V311H46.6ZM41.5 312.6H45V309.4H41.5V312.6ZM35.5191 300.606L40.0191 311.606L42.9809 310.394L38.4809 299.394L35.5191 300.606ZM23 301.6H37V298.4H23V301.6ZM18.3071 309.423L24.3071 300.923L21.6929 299.077L15.6929 307.577L18.3071 309.423ZM15.4 301.5V308.5H18.6V301.5H15.4ZM10.1766 306.45L17.6766 302.95L16.3234 300.05L8.82338 303.55L10.1766 306.45ZM11.1 315.5V305H7.9V315.5H11.1ZM1645.74 181.6H1668.2V178.4H1645.74V181.6ZM1644.38 183.305C1644.18 182.43 1644.85 181.6 1645.74 181.6V178.4C1642.8 178.4 1640.61 181.128 1641.25 184.002L1644.38 183.305ZM1655.23 231.963L1644.38 183.305L1641.25 184.002L1652.11 232.66L1655.23 231.963ZM1657.96 231.983C1657.61 233.427 1655.55 233.412 1655.23 231.963L1652.11 232.659C1653.17 237.422 1659.94 237.471 1661.07 232.725L1657.96 231.983ZM1669.56 183.325L1657.96 231.983L1661.07 232.725L1672.68 184.067L1669.56 183.325ZM1668.2 181.6C1669.11 181.6 1669.77 182.445 1669.56 183.325L1672.68 184.067C1673.36 181.176 1671.17 178.4 1668.2 178.4V181.6ZM1606.74 401.37L1655.15 256.577L1652.12 255.562L1603.7 400.355L1606.74 401.37ZM1608.39 403.175C1607.32 403.433 1606.39 402.414 1606.74 401.37L1603.7 400.355C1602.55 403.783 1605.63 407.133 1609.14 406.286L1608.39 403.175ZM1697.46 381.708L1608.39 403.175L1609.14 406.286L1698.21 384.818L1697.46 381.708ZM1698.46 379.908C1698.72 380.686 1698.26 381.516 1697.46 381.708L1698.21 384.818C1700.82 384.188 1702.34 381.46 1701.5 378.906L1698.46 379.908ZM1657.81 256.583L1698.46 379.908L1701.5 378.906L1660.85 255.581L1657.81 256.583ZM1655.15 256.577C1655.58 255.3 1657.39 255.303 1657.81 256.583L1660.85 255.581C1659.46 251.377 1653.52 251.364 1652.12 255.562L1655.15 256.577Z" fill="#A296E5" mask="url(#path-3-outside-2)"/>
<rect x="1353" y="180" width="6" height="265" rx="3" fill="#A296E5"/>
<rect x="1620" y="112.653" width="3" height="123.761" rx="1.5" transform="rotate(-12.58 1620 112.653)" fill="#A296E5"/>
<rect x="1647.94" y="253" width="3" height="153.357" rx="1.5" transform="rotate(18.4754 1647.94 253)" fill="#A296E5"/>
<path d="M1685 122L1401.5 439M1685 122L1416 436.5M1685 122V385.5M1685 122L1676 388M1685 122L1667.5 390M1685 122L1658.5 392M1685 122L1693 384.5M1685 122L1701 380.5M1685 122L1724.5 388M1685 122L1711.5 383" stroke="#262447" stroke-width="1.6" stroke-linecap="round"/>
<path d="M1430.5 434L1680 139.5L1445.5 431.5" stroke="#262447" stroke-width="1.6" stroke-linecap="round"/>
<path d="M1461 429L1676 157.5L1474.5 427.5" stroke="#262447" stroke-width="1.6" stroke-linecap="round"/>
<path d="M1488.5 424.5L1671 177L1501.5 423" stroke="#262447" stroke-width="1.6" stroke-linecap="round"/>
<path d="M1515 420.5L1669 193L1528 418.5" stroke="#262447" stroke-width="1.6" stroke-linecap="round"/>
<path d="M1541 416L1664 214L1554.5 414" stroke="#262447" stroke-width="1.6" stroke-linecap="round"/>
<path d="M1658.5 234L1568.5 411" stroke="#262447" stroke-width="1.6" stroke-linecap="round"/>
<path d="M1629 122.5L1893 418M1629 122.5L1881 418M1629 122.5V399M1629 122.5L1620.5 401M1629 122.5L1604.5 402M1629 122.5L1612.5 403M1629 122.5L1637 397.5M1629 122.5L1645 395.5M1629 122.5L1652 393.5M1629 122.5L1582 409.5M1629 122.5L1595 405" stroke="#262447" stroke-width="1.6" stroke-linecap="round"/>
<path d="M1866.5 415L1633.03 139.593L1852 413" stroke="#262447" stroke-width="1.6" stroke-linecap="round"/>
<path d="M1838 411L1638 159L1824 409" stroke="#262447" stroke-width="1.6" stroke-linecap="round"/>
<path d="M1811 406.5L1642.07 177.291L1799 405" stroke="#262447" stroke-width="1.6" stroke-linecap="round"/>
<path d="M1785.83 402L1644.08 193.376L1772.5 399" stroke="#262447" stroke-width="1.6" stroke-linecap="round"/>
<path d="M1760 396.5L1649.11 214.487L1747 393" stroke="#262447" stroke-width="1.6" stroke-linecap="round"/>
<path d="M1654.64 234.593L1734.5 390.5" stroke="#262447" stroke-width="1.6" stroke-linecap="round"/>
</svg>
