<svg width="3332" height="578" viewBox="0 0 3332 578" fill="none" xmlns="http://www.w3.org/2000/svg">
<mask id="path-1-inside-1" fill="white">
<path d="M1742 150H1725.5H1722V143L1702 139.5V148.5L1689 147L1680.5 142.5V131L1669 129L1658 133V144L1645 138L1633 137.5L1628.5 144L1622.5 142.5L1619 139.5L1608.5 138L1601.5 139.5L1585.5 137.5V142.5H1577.5V150L1568 151.5V126.5L1560 121.5L1550.5 113.5L1545 118.5L1542.5 126.5V151.5V162.5H1534.5V151.5L1527.5 148.5H1518.5L1516.5 129H1511.5L1508 148.5L1502.5 145V131L1494.5 129L1486 131H1472.5L1466.5 129V164.5L1465 160.5V154.5H1463V158.5H1453L1445 162.5L1431 160.5L1422.5 158.5L1420.5 164.5L1416.5 160.5V151.5H1407L1405.5 162.5H1402V148.5L1399.5 185.5H1391V190H1381.5L1379.5 164.5L1368 162.5V154.5H1361L1267 111H1227.5V137.5H1222H1215.5V142.5H1194.5V131H1190.5V111H1173V148.5L1169 142.5V135H1165V142.5L1159.5 148.5V131L1149 126.5H1140.5L1089 98.5L1047.5 94.5H1044V111L1039 113L1033 116H1026.5L1022 137.5H1016.5V102.5L1012.5 108.5V123L1008.5 113L895 116L880.5 111H859.5V116L852 119L839 116L834 119H817L807 116H798.5V102.5L795 116H772L768.5 125H764V133H760.5V138.5H757V125H744L741.5 135.5L737.5 127V131.5H730.5L727.5 141L725 150.5H719.5V102.5H684H672.5V119L546.5 127H535.5V133H528.5V137L524.5 135.5L519 138.5L518 122.5H504V131.5L501.5 122.5H491L489 144.5L486.5 148H482V119H477L474 141L367 134.5L362 135.5H358.5L357 131.5H354.5L349 134.5L345.5 135.5L342.5 134.5L339 135.5L335.5 134.5H334.5L331.5 135.5L328.5 134.5L326.5 135.5L252 134.5L247.5 137H242.5V134.5L236.5 133L232 134.5L226 133L223.5 134.5L217.5 133L214 134.5L207 135.5L206 133H201L197.5 134.5L195.5 133H189H113H97.5L87.5 137L79.5 129.5L72 133L67 129.5H56V137H49V129.5L44.5 126L42 137H33L23.5 126L15 143.5H0.5V427.5H3331.5V143.5L3324 133H3309V140.5L3288.5 136.25V129H3262.5L3260 140.5H3236.5V150H3231.5L3228.5 174L3225.5 138H3204V143.5H3193V150L3187 153.5V143.5L3181.5 147.5V138H3165.5V147.5H3161V131H3149.5V143.5H3145.5V138H3135L3130.5 159.5L3127 147.5L3123.5 174L3116.5 122.5H3107.5V138L3096 135.5V182.5H3091.5V133L3074.5 135.5L3060 131V163L3055.5 165V133L3049 153.5V135.5L3046 138H3028.5V147.5H3021.5V135.5H3009.5V147.5H3006V138H2997V133H2994V138H2982.5V133L2979.5 129L2970.5 135.5H2958L2954.5 150V138H2948.5L2928.5 154.5L2814.5 153.5V143.5H2808.5V153.5L2800 159.5H2786.5L2789 174L2767.5 163L2748 165L2735 179.5H2727V153.5L2576.5 148L2568.5 157V153.5H2562.5V157H2558V140.5H2551L2549.5 154.5H2552.5V159.5H2547.5L2545.5 169.5V159.5H2542L2538 165V170.5H2532.5V154.5L2528.5 161.5L2527 154.5H2522.5V150H2520.5V170.5H2517.5V163H2514.5L2513 154.5H2511.5V169.5H2506L2504.5 154.5H2502.5L2498 170.5L2486.5 169.5L2469 168V150L2437 153.5V195H2420V137H2409V142H2399.5V140.5H2393L2387 147V150H2385V154.5H2387V168H2376.5L2370.5 170.5V153.5H2368.5V145.5L2364.5 138.5L2357.5 139.5L2351 129V140.5L2344.5 147.5L2338 147H2325.5V150L2322.5 147.5H2314.5V150H2312V147.5H2304V145.5H2299V158L2293 158.5V150H2268.5V156H2271.5V177.5H2262.5V195H2260V175L2258.5 150L2256.5 145.5H2252V147.5H2238V132.5H2236.5V150H2213.5V173.5L2209.5 171H2196L2192.5 173.5H2173.5V168L2170.5 173.5H2166V169.5L2164 173.5H2161V166.5H2142.5L2139 177.5H2125.5V168H2116V171H2089.5V147H2070.5V153.5H2073V159.5H2060V158L2058.5 158.5V140.5H2056.5L2055.5 139.5H2041L2040.5 140.5H2038.5V159.5H2036V156H2035V135.5L2024.5 138.5V145.5H2013.5V147.5H2012V153.5H2010.5V159.5H2007.5V155H2006V150H2004.5V153.5H2001V145.5H1994.5V134.5H1992.5V127H1983V145.5H1970V158.5H1958V151H1952.5V155.5H1954.5V159.5H1952.5L1951 158.5V139.5H1948.5V141.5H1944.5L1933 138H1927.5L1924.5 144V147H1923V141.5H1913V145.5L1908.5 148.5V155.5H1905V153.5H1900.5V144H1899V148.5H1898V153.5H1895.5V147H1873.14L1872.5 139.5L1850 143L1848.5 147V154.5H1847V137L1838.5 139.5V147H1833.5V148.5H1831.5V138L1820 135.5H1811.5V144H1810.5L1807.5 130L1800 133L1798 145.5H1786V148.5H1772.5V152H1768.5L1765.5 154.5V159H1756.5V154.5H1752.5L1751 159H1742V150Z"/>
</mask>
<path d="M1742 150H1725.5H1722V143L1702 139.5V148.5L1689 147L1680.5 142.5V131L1669 129L1658 133V144L1645 138L1633 137.5L1628.5 144L1622.5 142.5L1619 139.5L1608.5 138L1601.5 139.5L1585.5 137.5V142.5H1577.5V150L1568 151.5V126.5L1560 121.5L1550.5 113.5L1545 118.5L1542.5 126.5V151.5V162.5H1534.5V151.5L1527.5 148.5H1518.5L1516.5 129H1511.5L1508 148.5L1502.5 145V131L1494.5 129L1486 131H1472.5L1466.5 129V164.5L1465 160.5V154.5H1463V158.5H1453L1445 162.5L1431 160.5L1422.5 158.5L1420.5 164.5L1416.5 160.5V151.5H1407L1405.5 162.5H1402V148.5L1399.5 185.5H1391V190H1381.5L1379.5 164.5L1368 162.5V154.5H1361L1267 111H1227.5V137.5H1222H1215.5V142.5H1194.5V131H1190.5V111H1173V148.5L1169 142.5V135H1165V142.5L1159.5 148.5V131L1149 126.5H1140.5L1089 98.5L1047.5 94.5H1044V111L1039 113L1033 116H1026.5L1022 137.5H1016.5V102.5L1012.5 108.5V123L1008.5 113L895 116L880.5 111H859.5V116L852 119L839 116L834 119H817L807 116H798.5V102.5L795 116H772L768.5 125H764V133H760.5V138.5H757V125H744L741.5 135.5L737.5 127V131.5H730.5L727.5 141L725 150.5H719.5V102.5H684H672.5V119L546.5 127H535.5V133H528.5V137L524.5 135.5L519 138.5L518 122.5H504V131.5L501.5 122.5H491L489 144.5L486.5 148H482V119H477L474 141L367 134.5L362 135.5H358.5L357 131.5H354.5L349 134.5L345.5 135.5L342.5 134.5L339 135.5L335.5 134.5H334.5L331.5 135.5L328.5 134.5L326.5 135.5L252 134.5L247.5 137H242.5V134.5L236.5 133L232 134.5L226 133L223.5 134.5L217.5 133L214 134.5L207 135.5L206 133H201L197.5 134.5L195.5 133H189H113H97.5L87.5 137L79.5 129.5L72 133L67 129.5H56V137H49V129.5L44.5 126L42 137H33L23.5 126L15 143.5H0.5V427.5H3331.5V143.5L3324 133H3309V140.5L3288.5 136.25V129H3262.5L3260 140.5H3236.5V150H3231.5L3228.5 174L3225.5 138H3204V143.5H3193V150L3187 153.5V143.5L3181.5 147.5V138H3165.5V147.5H3161V131H3149.5V143.5H3145.5V138H3135L3130.5 159.5L3127 147.5L3123.5 174L3116.5 122.5H3107.5V138L3096 135.5V182.5H3091.5V133L3074.5 135.5L3060 131V163L3055.5 165V133L3049 153.5V135.5L3046 138H3028.5V147.5H3021.5V135.5H3009.5V147.5H3006V138H2997V133H2994V138H2982.5V133L2979.5 129L2970.5 135.5H2958L2954.5 150V138H2948.5L2928.5 154.5L2814.5 153.5V143.5H2808.5V153.5L2800 159.5H2786.5L2789 174L2767.5 163L2748 165L2735 179.5H2727V153.5L2576.5 148L2568.5 157V153.5H2562.5V157H2558V140.5H2551L2549.5 154.5H2552.5V159.5H2547.5L2545.5 169.5V159.5H2542L2538 165V170.5H2532.5V154.5L2528.5 161.5L2527 154.5H2522.5V150H2520.5V170.5H2517.5V163H2514.5L2513 154.5H2511.5V169.5H2506L2504.5 154.5H2502.5L2498 170.5L2486.5 169.5L2469 168V150L2437 153.5V195H2420V137H2409V142H2399.5V140.5H2393L2387 147V150H2385V154.5H2387V168H2376.5L2370.5 170.5V153.5H2368.5V145.5L2364.5 138.5L2357.5 139.5L2351 129V140.5L2344.5 147.5L2338 147H2325.5V150L2322.5 147.5H2314.5V150H2312V147.5H2304V145.5H2299V158L2293 158.5V150H2268.5V156H2271.5V177.5H2262.5V195H2260V175L2258.5 150L2256.5 145.5H2252V147.5H2238V132.5H2236.5V150H2213.5V173.5L2209.5 171H2196L2192.5 173.5H2173.5V168L2170.5 173.5H2166V169.5L2164 173.5H2161V166.5H2142.5L2139 177.5H2125.5V168H2116V171H2089.5V147H2070.5V153.5H2073V159.5H2060V158L2058.5 158.5V140.5H2056.5L2055.5 139.5H2041L2040.5 140.5H2038.5V159.5H2036V156H2035V135.5L2024.5 138.5V145.5H2013.5V147.5H2012V153.5H2010.5V159.5H2007.5V155H2006V150H2004.5V153.5H2001V145.5H1994.5V134.5H1992.5V127H1983V145.5H1970V158.5H1958V151H1952.5V155.5H1954.5V159.5H1952.5L1951 158.5V139.5H1948.5V141.5H1944.5L1933 138H1927.5L1924.5 144V147H1923V141.5H1913V145.5L1908.5 148.5V155.5H1905V153.5H1900.5V144H1899V148.5H1898V153.5H1895.5V147H1873.14L1872.5 139.5L1850 143L1848.5 147V154.5H1847V137L1838.5 139.5V147H1833.5V148.5H1831.5V138L1820 135.5H1811.5V144H1810.5L1807.5 130L1800 133L1798 145.5H1786V148.5H1772.5V152H1768.5L1765.5 154.5V159H1756.5V154.5H1752.5L1751 159H1742V150Z" fill="#A296E5"/>
<path d="M3288 136.25V143.5H3289V136.25H3288ZM1567.5 151.5V164.5H1568.5V151.5H1567.5ZM1742 150H1743V149H1742V150ZM1742 159H1741V160H1742V159ZM1751 159V160H1751.72L1751.95 159.316L1751 159ZM1752.5 154.5V153.5H1751.78L1751.55 154.184L1752.5 154.5ZM1756.5 154.5H1757.5V153.5H1756.5V154.5ZM1756.5 159H1755.5V160H1756.5V159ZM1765.5 159V160H1766.5V159H1765.5ZM1765.5 154.5L1764.86 153.732L1764.5 154.032V154.5H1765.5ZM1768.5 152V151H1768.14L1767.86 151.232L1768.5 152ZM1772.5 152V153H1773.5V152H1772.5ZM1772.5 148.5V147.5H1771.5V148.5H1772.5ZM1786 148.5V149.5H1787V148.5H1786ZM1786 145.5V144.5H1785V145.5H1786ZM1798 145.5V146.5H1798.85L1798.99 145.658L1798 145.5ZM1800 133L1799.63 132.072L1799.1 132.282L1799.01 132.842L1800 133ZM1807.5 130L1808.48 129.79L1808.23 128.631L1807.13 129.072L1807.5 130ZM1810.5 144L1809.52 144.21L1809.69 145H1810.5V144ZM1811.5 144V145H1812.5V144H1811.5ZM1811.5 135.5V134.5H1810.5V135.5H1811.5ZM1820 135.5L1820.21 134.523L1820.11 134.5H1820V135.5ZM1831.5 138H1832.5V137.194L1831.71 137.023L1831.5 138ZM1831.5 148.5H1830.5V149.5H1831.5V148.5ZM1833.5 148.5V149.5H1834.5V148.5H1833.5ZM1833.5 147V146H1832.5V147H1833.5ZM1838.5 147V148H1839.5V147H1838.5ZM1838.5 139.5L1838.22 138.541L1837.5 138.752V139.5H1838.5ZM1847 137H1848V135.664L1846.72 136.041L1847 137ZM1847 154.5H1846V155.5H1847V154.5ZM1848.5 154.5V155.5H1849.5V154.5H1848.5ZM1848.5 147L1847.56 146.649L1847.5 146.819V147H1848.5ZM1850 143L1849.85 142.012L1849.27 142.102L1849.06 142.649L1850 143ZM1872.5 139.5L1873.5 139.415L1873.41 138.347L1872.35 138.512L1872.5 139.5ZM1873.14 147L1872.14 147.085L1872.22 148H1873.14V147ZM1895.5 147H1896.5V146H1895.5V147ZM1895.5 153.5H1894.5V154.5H1895.5V153.5ZM1898 153.5V154.5H1899V153.5H1898ZM1898 148.5V147.5H1897V148.5H1898ZM1899 148.5V149.5H1900V148.5H1899ZM1899 144V143H1898V144H1899ZM1900.5 144H1901.5V143H1900.5V144ZM1900.5 153.5H1899.5V154.5H1900.5V153.5ZM1905 153.5H1906V152.5H1905V153.5ZM1905 155.5H1904V156.5H1905V155.5ZM1908.5 155.5V156.5H1909.5V155.5H1908.5ZM1908.5 148.5L1907.95 147.668L1907.5 147.965V148.5H1908.5ZM1913 145.5L1913.55 146.332L1914 146.035V145.5H1913ZM1913 141.5V140.5H1912V141.5H1913ZM1923 141.5H1924V140.5H1923V141.5ZM1923 147H1922V148H1923V147ZM1924.5 147V148H1925.5V147H1924.5ZM1924.5 144L1923.61 143.553L1923.5 143.764V144H1924.5ZM1927.5 138V137H1926.88L1926.61 137.553L1927.5 138ZM1933 138L1933.29 137.043L1933.15 137H1933V138ZM1944.5 141.5L1944.21 142.457L1944.35 142.5H1944.5V141.5ZM1948.5 141.5V142.5H1949.5V141.5H1948.5ZM1948.5 139.5V138.5H1947.5V139.5H1948.5ZM1951 139.5H1952V138.5H1951V139.5ZM1951 158.5H1950V159.035L1950.45 159.332L1951 158.5ZM1952.5 159.5L1951.95 160.332L1952.2 160.5H1952.5V159.5ZM1954.5 159.5V160.5H1955.5V159.5H1954.5ZM1954.5 155.5H1955.5V154.5H1954.5V155.5ZM1952.5 155.5H1951.5V156.5H1952.5V155.5ZM1952.5 151V150H1951.5V151H1952.5ZM1958 151H1959V150H1958V151ZM1958 158.5H1957V159.5H1958V158.5ZM1970 158.5V159.5H1971V158.5H1970ZM1970 145.5V144.5H1969V145.5H1970ZM1983 145.5V146.5H1984V145.5H1983ZM1983 127V126H1982V127H1983ZM1992.5 127H1993.5V126H1992.5V127ZM1992.5 134.5H1991.5V135.5H1992.5V134.5ZM1994.5 134.5H1995.5V133.5H1994.5V134.5ZM1994.5 145.5H1993.5V146.5H1994.5V145.5ZM2001 145.5H2002V144.5H2001V145.5ZM2001 153.5H2000V154.5H2001V153.5ZM2004.5 153.5V154.5H2005.5V153.5H2004.5ZM2004.5 150V149H2003.5V150H2004.5ZM2006 150H2007V149H2006V150ZM2006 155H2005V156H2006V155ZM2007.5 155H2008.5V154H2007.5V155ZM2007.5 159.5H2006.5V160.5H2007.5V159.5ZM2010.5 159.5V160.5H2011.5V159.5H2010.5ZM2010.5 153.5V152.5H2009.5V153.5H2010.5ZM2012 153.5V154.5H2013V153.5H2012ZM2012 147.5V146.5H2011V147.5H2012ZM2013.5 147.5V148.5H2014.5V147.5H2013.5ZM2013.5 145.5V144.5H2012.5V145.5H2013.5ZM2024.5 145.5V146.5H2025.5V145.5H2024.5ZM2024.5 138.5L2024.23 137.538L2023.5 137.746V138.5H2024.5ZM2035 135.5H2036V134.174L2034.73 134.538L2035 135.5ZM2035 156H2034V157H2035V156ZM2036 156H2037V155H2036V156ZM2036 159.5H2035V160.5H2036V159.5ZM2038.5 159.5V160.5H2039.5V159.5H2038.5ZM2038.5 140.5V139.5H2037.5V140.5H2038.5ZM2040.5 140.5V141.5H2041.12L2041.39 140.947L2040.5 140.5ZM2041 139.5V138.5H2040.38L2040.11 139.053L2041 139.5ZM2055.5 139.5L2056.21 138.793L2055.91 138.5H2055.5V139.5ZM2056.5 140.5L2055.79 141.207L2056.09 141.5H2056.5V140.5ZM2058.5 140.5H2059.5V139.5H2058.5V140.5ZM2058.5 158.5H2057.5V159.887L2058.82 159.449L2058.5 158.5ZM2060 158H2061V156.613L2059.68 157.051L2060 158ZM2060 159.5H2059V160.5H2060V159.5ZM2073 159.5V160.5H2074V159.5H2073ZM2073 153.5H2074V152.5H2073V153.5ZM2070.5 153.5H2069.5V154.5H2070.5V153.5ZM2070.5 147V146H2069.5V147H2070.5ZM2089.5 147H2090.5V146H2089.5V147ZM2089.5 171H2088.5V172H2089.5V171ZM2116 171V172H2117V171H2116ZM2116 168V167H2115V168H2116ZM2125.5 168H2126.5V167H2125.5V168ZM2125.5 177.5H2124.5V178.5H2125.5V177.5ZM2139 177.5V178.5H2139.73L2139.95 177.803L2139 177.5ZM2142.5 166.5V165.5H2141.77L2141.55 166.197L2142.5 166.5ZM2161 166.5H2162V165.5H2161V166.5ZM2161 173.5H2160V174.5H2161V173.5ZM2164 173.5V174.5H2164.62L2164.89 173.947L2164 173.5ZM2166 169.5H2167L2165.11 169.053L2166 169.5ZM2166 173.5H2165V174.5H2166V173.5ZM2170.5 173.5V174.5H2171.09L2171.38 173.979L2170.5 173.5ZM2173.5 168H2174.5L2172.62 167.521L2173.5 168ZM2173.5 173.5H2172.5V174.5H2173.5V173.5ZM2192.5 173.5V174.5H2192.82L2193.08 174.314L2192.5 173.5ZM2196 171V170H2195.68L2195.42 170.186L2196 171ZM2209.5 171L2210.03 170.152L2209.79 170H2209.5V171ZM2213.5 173.5L2212.97 174.348L2214.5 175.304V173.5H2213.5ZM2213.5 150V149H2212.5V150H2213.5ZM2236.5 150V151H2237.5V150H2236.5ZM2236.5 132.5V131.5H2235.5V132.5H2236.5ZM2238 132.5H2239V131.5H2238V132.5ZM2238 147.5H2237V148.5H2238V147.5ZM2252 147.5V148.5H2253V147.5H2252ZM2252 145.5V144.5H2251V145.5H2252ZM2256.5 145.5L2257.41 145.094L2257.15 144.5H2256.5V145.5ZM2258.5 150L2259.5 149.94L2259.49 149.759L2259.41 149.594L2258.5 150ZM2260 175H2261V174.97L2261 174.94L2260 175ZM2260 195H2259V196H2260V195ZM2262.5 195V196H2263.5V195H2262.5ZM2262.5 177.5V176.5H2261.5V177.5H2262.5ZM2271.5 177.5V178.5H2272.5V177.5H2271.5ZM2271.5 156H2272.5V155H2271.5V156ZM2268.5 156H2267.5V157H2268.5V156ZM2268.5 150V149H2267.5V150H2268.5ZM2293 150H2294V149H2293V150ZM2293 158.5H2292V159.587L2293.08 159.497L2293 158.5ZM2299 158L2299.08 158.997L2300 158.92V158H2299ZM2299 145.5V144.5H2298V145.5H2299ZM2304 145.5H2305V144.5H2304V145.5ZM2304 147.5H2303V148.5H2304V147.5ZM2312 147.5H2313V146.5H2312V147.5ZM2312 150H2311V151H2312V150ZM2314.5 150V151H2315.5V150H2314.5ZM2314.5 147.5V146.5H2313.5V147.5H2314.5ZM2322.5 147.5L2323.14 146.732L2322.86 146.5H2322.5V147.5ZM2325.5 150L2324.86 150.768L2326.5 152.135V150H2325.5ZM2325.5 147V146H2324.5V147H2325.5ZM2338 147L2338.08 146.003L2338.04 146H2338V147ZM2344.5 147.5L2344.42 148.497L2344.9 148.534L2345.23 148.18L2344.5 147.5ZM2351 140.5L2351.73 141.18L2352 140.893V140.5H2351ZM2351 129L2351.85 128.474L2350 125.485V129H2351ZM2357.5 139.5L2356.65 140.026L2356.99 140.582L2357.64 140.49L2357.5 139.5ZM2364.5 138.5L2365.37 138.004L2365.03 137.414L2364.36 137.51L2364.5 138.5ZM2368.5 145.5H2369.5V145.234L2369.37 145.004L2368.5 145.5ZM2368.5 153.5H2367.5V154.5H2368.5V153.5ZM2370.5 153.5H2371.5V152.5H2370.5V153.5ZM2370.5 170.5H2369.5V172L2370.88 171.423L2370.5 170.5ZM2376.5 168V167H2376.3L2376.12 167.077L2376.5 168ZM2387 168V169H2388V168H2387ZM2387 154.5H2388V153.5H2387V154.5ZM2385 154.5H2384V155.5H2385V154.5ZM2385 150V149H2384V150H2385ZM2387 150V151H2388V150H2387ZM2387 147L2386.27 146.322L2386 146.609V147H2387ZM2393 140.5V139.5H2392.56L2392.27 139.822L2393 140.5ZM2399.5 140.5H2400.5V139.5H2399.5V140.5ZM2399.5 142H2398.5V143H2399.5V142ZM2409 142V143H2410V142H2409ZM2409 137V136H2408V137H2409ZM2420 137H2421V136H2420V137ZM2420 195H2419V196H2420V195ZM2437 195V196H2438V195H2437ZM2437 153.5L2436.89 152.506L2436 152.603V153.5H2437ZM2469 150H2470V148.885L2468.89 149.006L2469 150ZM2469 168H2468V168.918L2468.91 168.996L2469 168ZM2486.5 169.5L2486.59 168.504L2486.59 168.504L2486.5 169.5ZM2498 170.5L2497.91 171.496L2498.74 171.568L2498.96 170.771L2498 170.5ZM2502.5 154.5V153.5H2501.74L2501.54 154.229L2502.5 154.5ZM2504.5 154.5L2505.5 154.4L2505.41 153.5H2504.5V154.5ZM2506 169.5L2505 169.6L2505.09 170.5H2506V169.5ZM2511.5 169.5V170.5H2512.5V169.5H2511.5ZM2511.5 154.5V153.5H2510.5V154.5H2511.5ZM2513 154.5L2513.98 154.326L2513.84 153.5H2513V154.5ZM2514.5 163L2513.52 163.174L2513.66 164H2514.5V163ZM2517.5 163H2518.5V162H2517.5V163ZM2517.5 170.5H2516.5V171.5H2517.5V170.5ZM2520.5 170.5V171.5H2521.5V170.5H2520.5ZM2520.5 150V149H2519.5V150H2520.5ZM2522.5 150H2523.5V149H2522.5V150ZM2522.5 154.5H2521.5V155.5H2522.5V154.5ZM2527 154.5L2527.98 154.29L2527.81 153.5H2527V154.5ZM2528.5 161.5L2527.52 161.71L2528.07 164.267L2529.37 161.996L2528.5 161.5ZM2532.5 154.5H2533.5V150.734L2531.63 154.004L2532.5 154.5ZM2532.5 170.5H2531.5V171.5H2532.5V170.5ZM2538 170.5V171.5H2539V170.5H2538ZM2538 165L2537.19 164.412L2537 164.675V165H2538ZM2542 159.5V158.5H2541.49L2541.19 158.912L2542 159.5ZM2545.5 159.5H2546.5V158.5H2545.5V159.5ZM2545.5 169.5H2544.5L2546.48 169.696L2545.5 169.5ZM2547.5 159.5V158.5H2546.68L2546.52 159.304L2547.5 159.5ZM2552.5 159.5V160.5H2553.5V159.5H2552.5ZM2552.5 154.5H2553.5V153.5H2552.5V154.5ZM2549.5 154.5L2548.51 154.393L2548.39 155.5H2549.5V154.5ZM2551 140.5V139.5H2550.1L2550.01 140.393L2551 140.5ZM2558 140.5H2559V139.5H2558V140.5ZM2558 157H2557V158H2558V157ZM2562.5 157V158H2563.5V157H2562.5ZM2562.5 153.5V152.5H2561.5V153.5H2562.5ZM2568.5 153.5H2569.5V152.5H2568.5V153.5ZM2568.5 157H2567.5V159.63L2569.25 157.664L2568.5 157ZM2576.5 148L2576.54 147.001L2576.07 146.983L2575.75 147.336L2576.5 148ZM2727 153.5H2728V152.536L2727.04 152.501L2727 153.5ZM2727 179.5H2726V180.5H2727V179.5ZM2735 179.5V180.5H2735.45L2735.74 180.168L2735 179.5ZM2748 165L2747.9 164.005L2747.51 164.045L2747.26 164.332L2748 165ZM2767.5 163L2767.96 162.11L2767.69 161.975L2767.4 162.005L2767.5 163ZM2789 174L2788.54 174.89L2790.33 175.801L2789.99 173.83L2789 174ZM2786.5 159.5V158.5H2785.31L2785.51 159.67L2786.5 159.5ZM2800 159.5V160.5H2800.32L2800.58 160.317L2800 159.5ZM2808.5 153.5L2809.08 154.317L2809.5 154.018V153.5H2808.5ZM2808.5 143.5V142.5H2807.5V143.5H2808.5ZM2814.5 143.5H2815.5V142.5H2814.5V143.5ZM2814.5 153.5H2813.5V154.491L2814.49 154.5L2814.5 153.5ZM2928.5 154.5L2928.49 155.5L2928.86 155.503L2929.14 155.271L2928.5 154.5ZM2948.5 138V137H2948.14L2947.86 137.229L2948.5 138ZM2954.5 138H2955.5V137H2954.5V138ZM2954.5 150H2953.5L2955.47 150.235L2954.5 150ZM2958 135.5V134.5H2957.21L2957.03 135.265L2958 135.5ZM2970.5 135.5V136.5H2970.82L2971.09 136.311L2970.5 135.5ZM2979.5 129L2980.3 128.4L2979.71 127.614L2978.91 128.189L2979.5 129ZM2982.5 133H2983.5V132.667L2983.3 132.4L2982.5 133ZM2982.5 138H2981.5V139H2982.5V138ZM2994 138V139H2995V138H2994ZM2994 133V132H2993V133H2994ZM2997 133H2998V132H2997V133ZM2997 138H2996V139H2997V138ZM3006 138H3007V137H3006V138ZM3006 147.5H3005V148.5H3006V147.5ZM3009.5 147.5V148.5H3010.5V147.5H3009.5ZM3009.5 135.5V134.5H3008.5V135.5H3009.5ZM3021.5 135.5H3022.5V134.5H3021.5V135.5ZM3021.5 147.5H3020.5V148.5H3021.5V147.5ZM3028.5 147.5V148.5H3029.5V147.5H3028.5ZM3028.5 138V137H3027.5V138H3028.5ZM3046 138V139H3046.36L3046.64 138.768L3046 138ZM3049 135.5H3050V133.365L3048.36 134.732L3049 135.5ZM3049 153.5H3048L3049.95 153.802L3049 153.5ZM3055.5 133H3056.5L3054.55 132.698L3055.5 133ZM3055.5 165H3054.5V166.539L3055.91 165.914L3055.5 165ZM3060 163L3060.41 163.914L3061 163.65V163H3060ZM3060 131L3060.3 130.045L3059 129.643V131H3060ZM3074.5 135.5L3074.2 136.455L3074.42 136.522L3074.65 136.489L3074.5 135.5ZM3091.5 133H3092.5V131.842L3091.35 132.011L3091.5 133ZM3091.5 182.5H3090.5V183.5H3091.5V182.5ZM3096 182.5V183.5H3097V182.5H3096ZM3096 135.5L3096.21 134.523L3095 134.259V135.5H3096ZM3107.5 138L3107.29 138.977L3108.5 139.241V138H3107.5ZM3107.5 122.5V121.5H3106.5V122.5H3107.5ZM3116.5 122.5L3117.49 122.365L3117.37 121.5H3116.5V122.5ZM3123.5 174L3122.51 174.135L3124.49 174.131L3123.5 174ZM3127 147.5L3127.96 147.22L3126.01 147.369L3127 147.5ZM3130.5 159.5L3129.54 159.78L3131.48 159.705L3130.5 159.5ZM3135 138V137H3134.19L3134.02 137.795L3135 138ZM3145.5 138H3146.5V137H3145.5V138ZM3145.5 143.5H3144.5V144.5H3145.5V143.5ZM3149.5 143.5V144.5H3150.5V143.5H3149.5ZM3149.5 131V130H3148.5V131H3149.5ZM3161 131H3162V130H3161V131ZM3161 147.5H3160V148.5H3161V147.5ZM3165.5 147.5V148.5H3166.5V147.5H3165.5ZM3165.5 138V137H3164.5V138H3165.5ZM3181.5 138H3182.5V137H3181.5V138ZM3181.5 147.5H3180.5V149.464L3182.09 148.309L3181.5 147.5ZM3187 143.5H3188V141.536L3186.41 142.691L3187 143.5ZM3187 153.5H3186V155.241L3187.5 154.364L3187 153.5ZM3193 150L3193.5 150.864L3194 150.574V150H3193ZM3193 143.5V142.5H3192V143.5H3193ZM3204 143.5V144.5H3205V143.5H3204ZM3204 138V137H3203V138H3204ZM3225.5 138L3226.5 137.917L3226.42 137H3225.5V138ZM3228.5 174L3227.5 174.083L3229.49 174.124L3228.5 174ZM3231.5 150V149H3230.62L3230.51 149.876L3231.5 150ZM3236.5 150V151H3237.5V150H3236.5ZM3236.5 140.5V139.5H3235.5V140.5H3236.5ZM3260 140.5V141.5H3260.81L3260.98 140.712L3260 140.5ZM3262.5 129V128H3261.69L3261.52 128.788L3262.5 129ZM3288.5 129H3289.5V128H3288.5V129ZM3288.5 136.25H3287.5V137.064L3288.3 137.229L3288.5 136.25ZM3309 140.5L3308.8 141.479L3310 141.729V140.5H3309ZM3309 133V132H3308V133H3309ZM3324 133L3324.81 132.419L3324.51 132H3324V133ZM3331.5 143.5H3332.5V143.18L3332.31 142.919L3331.5 143.5ZM3331.5 427.5V428.5H3332.5V427.5H3331.5ZM0.5 427.5H-0.5V428.5H0.5V427.5ZM0.5 143.5V142.5H-0.5V143.5H0.5ZM15 143.5V144.5H15.626L15.8995 143.937L15 143.5ZM23.5 126L24.2568 125.346L23.2641 124.197L22.6005 125.563L23.5 126ZM33 137L32.2432 137.654L32.5423 138H33V137ZM42 137V138H42.7982L42.9751 137.222L42 137ZM44.5 126L45.1139 125.211L43.8732 124.246L43.5249 125.778L44.5 126ZM49 129.5H50V129.011L49.6139 128.711L49 129.5ZM49 137H48V138H49V137ZM56 137V138H57V137H56ZM56 129.5V128.5H55V129.5H56ZM67 129.5L67.5735 128.681L67.3152 128.5H67V129.5ZM72 133L71.4265 133.819L71.8996 134.15L72.4229 133.906L72 133ZM79.5 129.5L80.1839 128.77L79.6903 128.308L79.0771 128.594L79.5 129.5ZM87.5 137L86.8161 137.73L87.2804 138.165L87.8714 137.928L87.5 137ZM97.5 133V132H97.3074L97.1286 132.072L97.5 133ZM195.5 133L196.1 132.2L195.833 132H195.5V133ZM197.5 134.5L196.9 135.3L197.363 135.647L197.894 135.419L197.5 134.5ZM201 133V132H200.795L200.606 132.081L201 133ZM206 133L206.928 132.629L206.677 132H206V133ZM207 135.5L206.072 135.871L206.363 136.601L207.141 136.49L207 135.5ZM214 134.5L214.141 135.49L214.272 135.471L214.394 135.419L214 134.5ZM217.5 133L217.743 132.03L217.416 131.948L217.106 132.081L217.5 133ZM223.5 134.5L223.257 135.47L223.659 135.571L224.014 135.357L223.5 134.5ZM226 133L226.243 132.03L225.841 131.929L225.486 132.143L226 133ZM232 134.5L231.757 135.47L232.04 135.541L232.316 135.449L232 134.5ZM236.5 133L236.743 132.03L236.46 131.959L236.184 132.051L236.5 133ZM242.5 134.5H243.5V133.719L242.743 133.53L242.5 134.5ZM242.5 137H241.5V138H242.5V137ZM247.5 137V138H247.759L247.986 137.874L247.5 137ZM252 134.5L252.013 133.5L251.747 133.497L251.514 133.626L252 134.5ZM326.5 135.5L326.487 136.5L326.73 136.503L326.947 136.394L326.5 135.5ZM328.5 134.5L328.816 133.551L328.423 133.42L328.053 133.606L328.5 134.5ZM331.5 135.5L331.184 136.449L331.5 136.554L331.816 136.449L331.5 135.5ZM334.5 134.5V133.5H334.338L334.184 133.551L334.5 134.5ZM335.5 134.5L335.775 133.538L335.64 133.5H335.5V134.5ZM339 135.5L338.725 136.462L339 136.54L339.275 136.462L339 135.5ZM342.5 134.5L342.816 133.551L342.523 133.453L342.225 133.538L342.5 134.5ZM345.5 135.5L345.184 136.449L345.477 136.547L345.775 136.462L345.5 135.5ZM349 134.5L349.275 135.462L349.381 135.431L349.479 135.378L349 134.5ZM354.5 131.5V130.5H354.245L354.021 130.622L354.5 131.5ZM357 131.5L357.936 131.149L357.693 130.5H357V131.5ZM358.5 135.5L357.564 135.851L357.807 136.5H358.5V135.5ZM362 135.5V136.5H362.099L362.196 136.481L362 135.5ZM367 134.5L367.061 133.502L366.931 133.494L366.804 133.519L367 134.5ZM474 141L473.939 141.998L474.865 142.054L474.991 141.135L474 141ZM477 119V118H476.127L476.009 118.865L477 119ZM482 119H483V118H482V119ZM482 148H481V149H482V148ZM486.5 148V149H487.015L487.314 148.581L486.5 148ZM489 144.5L489.814 145.081L489.971 144.861L489.996 144.591L489 144.5ZM491 122.5V121.5H490.087L490.004 122.409L491 122.5ZM501.5 122.5L502.464 122.232L502.26 121.5H501.5V122.5ZM504 131.5L503.036 131.768L505 131.5H504ZM504 122.5V121.5H503V122.5H504ZM518 122.5L518.998 122.438L518.939 121.5H518V122.5ZM519 138.5L518.002 138.562L518.1 140.13L519.479 139.378L519 138.5ZM524.5 135.5L524.851 134.564L524.423 134.403L524.021 134.622L524.5 135.5ZM528.5 137L528.149 137.936L529.5 138.443V137H528.5ZM528.5 133V132H527.5V133H528.5ZM535.5 133V134H536.5V133H535.5ZM535.5 127V126H534.5V127H535.5ZM546.5 127V128H546.532L546.563 127.998L546.5 127ZM672.5 119L672.563 119.998L673.5 119.939V119H672.5ZM672.5 102.5V101.5H671.5V102.5H672.5ZM719.5 102.5H720.5V101.5H719.5V102.5ZM719.5 150.5H718.5V151.5H719.5V150.5ZM725 150.5V151.5H725.771L725.967 150.754L725 150.5ZM727.5 141L726.546 140.699L726.539 140.722L726.533 140.746L727.5 141ZM730.5 131.5V130.5H729.767L729.546 131.199L730.5 131.5ZM737.5 131.5V132.5H738.5V131.5H737.5ZM737.5 127L738.405 126.574L736.5 127H737.5ZM741.5 135.5L740.595 135.926L741.811 138.51L742.473 135.732L741.5 135.5ZM744 125V124H743.21L743.027 124.768L744 125ZM757 125H758V124H757V125ZM757 138.5H756V139.5H757V138.5ZM760.5 138.5V139.5H761.5V138.5H760.5ZM760.5 133V132H759.5V133H760.5ZM764 133V134H765V133H764ZM764 125V124H763V125H764ZM768.5 125V126H769.184L769.432 125.362L768.5 125ZM772 116V115H771.316L771.068 115.638L772 116ZM795 116V117H795.774L795.968 116.251L795 116ZM798.5 102.5H799.5L797.532 102.249L798.5 102.5ZM798.5 116H797.5V117H798.5V116ZM807 116L807.287 115.042L807.147 115H807V116ZM817 119L816.713 119.958L816.853 120H817V119ZM834 119V120H834.277L834.514 119.857L834 119ZM839 116L839.225 115.026L838.832 114.935L838.486 115.143L839 116ZM852 119L851.775 119.974L852.08 120.045L852.371 119.928L852 119ZM859.5 116L859.871 116.928L860.5 116.677V116H859.5ZM859.5 111V110H858.5V111H859.5ZM880.5 111L880.826 110.055L880.668 110H880.5V111ZM895 116L894.674 116.945L894.845 117.004L895.026 117L895 116ZM1008.5 113L1009.43 112.629L1009.17 111.982L1008.47 112L1008.5 113ZM1012.5 123L1011.57 123.371L1013.5 123H1012.5ZM1012.5 108.5L1011.67 107.945L1011.5 108.197V108.5H1012.5ZM1016.5 102.5H1017.5V99.1972L1015.67 101.945L1016.5 102.5ZM1016.5 137.5H1015.5V138.5H1016.5V137.5ZM1022 137.5V138.5H1022.81L1022.98 137.705L1022 137.5ZM1026.5 116V115H1025.69L1025.52 115.795L1026.5 116ZM1033 116V117H1033.24L1033.45 116.894L1033 116ZM1039 113L1038.63 112.072L1038.59 112.087L1038.55 112.106L1039 113ZM1044 111L1044.37 111.928L1045 111.677V111H1044ZM1044 94.5V93.5H1043V94.5H1044ZM1047.5 94.5L1047.6 93.5046L1047.55 93.5H1047.5V94.5ZM1089 98.5L1089.48 97.6215L1089.3 97.5242L1089.1 97.5046L1089 98.5ZM1140.5 126.5L1140.02 127.379L1140.25 127.5H1140.5V126.5ZM1149 126.5L1149.39 125.581L1149.21 125.5H1149V126.5ZM1159.5 131H1160.5V130.341L1159.89 130.081L1159.5 131ZM1159.5 148.5H1158.5V151.071L1160.24 149.176L1159.5 148.5ZM1165 142.5L1165.74 143.176L1166 142.889V142.5H1165ZM1165 135V134H1164V135H1165ZM1169 135H1170V134H1169V135ZM1169 142.5H1168V142.803L1168.17 143.055L1169 142.5ZM1173 148.5L1172.17 149.055L1174 151.803V148.5H1173ZM1173 111V110H1172V111H1173ZM1190.5 111H1191.5V110H1190.5V111ZM1190.5 131H1189.5V132H1190.5V131ZM1194.5 131H1195.5V130H1194.5V131ZM1194.5 142.5H1193.5V143.5H1194.5V142.5ZM1215.5 142.5V143.5H1216.5V142.5H1215.5ZM1215.5 137.5V136.5H1214.5V137.5H1215.5ZM1227.5 137.5V138.5H1228.5V137.5H1227.5ZM1227.5 111V110H1226.5V111H1227.5ZM1267 111L1267.42 110.092L1267.22 110H1267V111ZM1361 154.5L1360.58 155.408L1360.78 155.5H1361V154.5ZM1368 154.5H1369V153.5H1368V154.5ZM1368 162.5H1367V163.341L1367.83 163.485L1368 162.5ZM1379.5 164.5L1380.5 164.422L1380.44 163.648L1379.67 163.515L1379.5 164.5ZM1381.5 190L1380.5 190.078L1380.58 191H1381.5V190ZM1391 190V191H1392V190H1391ZM1391 185.5V184.5H1390V185.5H1391ZM1399.5 185.5V186.5H1400.43L1400.5 185.567L1399.5 185.5ZM1402 148.5H1403L1401 148.433L1402 148.5ZM1402 162.5H1401V163.5H1402V162.5ZM1405.5 162.5V163.5H1406.37L1406.49 162.635L1405.5 162.5ZM1407 151.5V150.5H1406.13L1406.01 151.365L1407 151.5ZM1416.5 151.5H1417.5V150.5H1416.5V151.5ZM1416.5 160.5H1415.5V160.914L1415.79 161.207L1416.5 160.5ZM1420.5 164.5L1419.79 165.207L1420.94 166.351L1421.45 164.816L1420.5 164.5ZM1422.5 158.5L1422.73 157.527L1421.84 157.317L1421.55 158.184L1422.5 158.5ZM1431 160.5L1430.77 161.473L1430.81 161.484L1430.86 161.49L1431 160.5ZM1445 162.5L1444.86 163.49L1445.17 163.534L1445.45 163.394L1445 162.5ZM1453 158.5V157.5H1452.76L1452.55 157.606L1453 158.5ZM1463 158.5V159.5H1464V158.5H1463ZM1463 154.5V153.5H1462V154.5H1463ZM1465 154.5H1466V153.5H1465V154.5ZM1465 160.5H1464V160.681L1464.06 160.851L1465 160.5ZM1466.5 164.5L1465.56 164.851L1467.5 164.5H1466.5ZM1466.5 129L1466.82 128.051L1465.5 127.613V129H1466.5ZM1472.5 131L1472.18 131.949L1472.34 132H1472.5V131ZM1486 131V132H1486.12L1486.23 131.973L1486 131ZM1494.5 129L1494.74 128.03L1494.51 127.971L1494.27 128.027L1494.5 129ZM1502.5 131H1503.5V130.219L1502.74 130.03L1502.5 131ZM1502.5 145H1501.5V145.549L1501.96 145.844L1502.5 145ZM1508 148.5L1507.46 149.344L1508.72 150.144L1508.98 148.677L1508 148.5ZM1511.5 129V128H1510.66L1510.52 128.823L1511.5 129ZM1516.5 129L1517.49 128.898L1517.4 128H1516.5V129ZM1518.5 148.5L1517.51 148.602L1517.6 149.5H1518.5V148.5ZM1527.5 148.5L1527.89 147.581L1527.71 147.5H1527.5V148.5ZM1534.5 151.5H1535.5V150.841L1534.89 150.581L1534.5 151.5ZM1534.5 162.5H1533.5V163.5H1534.5V162.5ZM1542.5 162.5V163.5H1543.5V162.5H1542.5ZM1542.5 126.5L1541.55 126.202L1541.5 126.347V126.5H1542.5ZM1545 118.5L1544.33 117.76L1544.13 117.943L1544.05 118.202L1545 118.5ZM1550.5 113.5L1551.14 112.735L1550.47 112.171L1549.83 112.76L1550.5 113.5ZM1560 121.5L1559.36 122.265L1559.41 122.31L1559.47 122.348L1560 121.5ZM1568 126.5H1569V125.946L1568.53 125.652L1568 126.5ZM1568 151.5H1567V152.67L1568.16 152.488L1568 151.5ZM1577.5 150L1577.66 150.988L1578.5 150.854V150H1577.5ZM1577.5 142.5V141.5H1576.5V142.5H1577.5ZM1585.5 142.5V143.5H1586.5V142.5H1585.5ZM1585.5 137.5L1585.62 136.508L1584.5 136.367V137.5H1585.5ZM1601.5 139.5L1601.38 140.492L1601.54 140.513L1601.71 140.478L1601.5 139.5ZM1608.5 138L1608.64 137.01L1608.46 136.985L1608.29 137.022L1608.5 138ZM1619 139.5L1619.65 138.741L1619.43 138.551L1619.14 138.51L1619 139.5ZM1622.5 142.5L1621.85 143.259L1622.03 143.413L1622.26 143.47L1622.5 142.5ZM1628.5 144L1628.26 144.97L1628.93 145.138L1629.32 144.569L1628.5 144ZM1633 137.5L1633.04 136.501L1632.49 136.478L1632.18 136.931L1633 137.5ZM1645 138L1645.42 137.092L1645.24 137.009L1645.04 137.001L1645 138ZM1658 144L1657.58 144.908L1659 145.563V144H1658ZM1658 133L1657.66 132.06L1657 132.3V133H1658ZM1669 129L1669.17 128.015L1668.91 127.969L1668.66 128.06L1669 129ZM1680.5 131H1681.5V130.159L1680.67 130.015L1680.5 131ZM1680.5 142.5H1679.5V143.102L1680.03 143.384L1680.5 142.5ZM1689 147L1688.53 147.884L1688.7 147.972L1688.89 147.993L1689 147ZM1702 148.5L1701.89 149.493L1703 149.622V148.5H1702ZM1702 139.5L1702.17 138.515L1701 138.31V139.5H1702ZM1722 143H1723V142.16L1722.17 142.015L1722 143ZM1722 150H1721V151H1722V150ZM1725.5 151H1742V149H1725.5V151ZM1741 150V159H1743V150H1741ZM1742 160H1751V158H1742V160ZM1751.95 159.316L1753.45 154.816L1751.55 154.184L1750.05 158.684L1751.95 159.316ZM1752.5 155.5H1756.5V153.5H1752.5V155.5ZM1755.5 154.5V159H1757.5V154.5H1755.5ZM1756.5 160H1765.5V158H1756.5V160ZM1766.5 159V154.5H1764.5V159H1766.5ZM1766.14 155.268L1769.14 152.768L1767.86 151.232L1764.86 153.732L1766.14 155.268ZM1768.5 153H1772.5V151H1768.5V153ZM1773.5 152V148.5H1771.5V152H1773.5ZM1772.5 149.5H1786V147.5H1772.5V149.5ZM1787 148.5V145.5H1785V148.5H1787ZM1786 146.5H1798V144.5H1786V146.5ZM1798.99 145.658L1800.99 133.158L1799.01 132.842L1797.01 145.342L1798.99 145.658ZM1800.37 133.928L1807.87 130.928L1807.13 129.072L1799.63 132.072L1800.37 133.928ZM1806.52 130.21L1809.52 144.21L1811.48 143.79L1808.48 129.79L1806.52 130.21ZM1810.5 145H1811.5V143H1810.5V145ZM1812.5 144V135.5H1810.5V144H1812.5ZM1811.5 136.5H1820V134.5H1811.5V136.5ZM1819.79 136.477L1831.29 138.977L1831.71 137.023L1820.21 134.523L1819.79 136.477ZM1830.5 138V148.5H1832.5V138H1830.5ZM1831.5 149.5H1833.5V147.5H1831.5V149.5ZM1834.5 148.5V147H1832.5V148.5H1834.5ZM1833.5 148H1838.5V146H1833.5V148ZM1839.5 147V139.5H1837.5V147H1839.5ZM1838.78 140.459L1847.28 137.959L1846.72 136.041L1838.22 138.541L1838.78 140.459ZM1846 137V154.5H1848V137H1846ZM1847 155.5H1848.5V153.5H1847V155.5ZM1849.5 154.5V147H1847.5V154.5H1849.5ZM1849.44 147.351L1850.94 143.351L1849.06 142.649L1847.56 146.649L1849.44 147.351ZM1850.15 143.988L1872.65 140.488L1872.35 138.512L1849.85 142.012L1850.15 143.988ZM1871.5 139.585L1872.14 147.085L1874.14 146.915L1873.5 139.415L1871.5 139.585ZM1873.14 148H1895.5V146H1873.14V148ZM1894.5 147V153.5H1896.5V147H1894.5ZM1895.5 154.5H1898V152.5H1895.5V154.5ZM1899 153.5V148.5H1897V153.5H1899ZM1898 149.5H1899V147.5H1898V149.5ZM1900 148.5V144H1898V148.5H1900ZM1899 145H1900.5V143H1899V145ZM1899.5 144V153.5H1901.5V144H1899.5ZM1900.5 154.5H1905V152.5H1900.5V154.5ZM1904 153.5V155.5H1906V153.5H1904ZM1905 156.5H1908.5V154.5H1905V156.5ZM1909.5 155.5V148.5H1907.5V155.5H1909.5ZM1909.05 149.332L1913.55 146.332L1912.45 144.668L1907.95 147.668L1909.05 149.332ZM1914 145.5V141.5H1912V145.5H1914ZM1913 142.5H1923V140.5H1913V142.5ZM1922 141.5V147H1924V141.5H1922ZM1923 148H1924.5V146H1923V148ZM1925.5 147V144H1923.5V147H1925.5ZM1925.39 144.447L1928.39 138.447L1926.61 137.553L1923.61 143.553L1925.39 144.447ZM1927.5 139H1933V137H1927.5V139ZM1932.71 138.957L1944.21 142.457L1944.79 140.543L1933.29 137.043L1932.71 138.957ZM1944.5 142.5H1948.5V140.5H1944.5V142.5ZM1949.5 141.5V139.5H1947.5V141.5H1949.5ZM1948.5 140.5H1951V138.5H1948.5V140.5ZM1950 139.5V158.5H1952V139.5H1950ZM1950.45 159.332L1951.95 160.332L1953.05 158.668L1951.55 157.668L1950.45 159.332ZM1952.5 160.5H1954.5V158.5H1952.5V160.5ZM1955.5 159.5V155.5H1953.5V159.5H1955.5ZM1954.5 154.5H1952.5V156.5H1954.5V154.5ZM1953.5 155.5V151H1951.5V155.5H1953.5ZM1952.5 152H1958V150H1952.5V152ZM1957 151V158.5H1959V151H1957ZM1958 159.5H1970V157.5H1958V159.5ZM1971 158.5V145.5H1969V158.5H1971ZM1970 146.5H1983V144.5H1970V146.5ZM1984 145.5V127H1982V145.5H1984ZM1983 128H1992.5V126H1983V128ZM1991.5 127V134.5H1993.5V127H1991.5ZM1992.5 135.5H1994.5V133.5H1992.5V135.5ZM1993.5 134.5V145.5H1995.5V134.5H1993.5ZM1994.5 146.5H2001V144.5H1994.5V146.5ZM2000 145.5V153.5H2002V145.5H2000ZM2001 154.5H2004.5V152.5H2001V154.5ZM2005.5 153.5V150H2003.5V153.5H2005.5ZM2004.5 151H2006V149H2004.5V151ZM2005 150V155H2007V150H2005ZM2006 156H2007.5V154H2006V156ZM2006.5 155V159.5H2008.5V155H2006.5ZM2007.5 160.5H2010.5V158.5H2007.5V160.5ZM2011.5 159.5V153.5H2009.5V159.5H2011.5ZM2010.5 154.5H2012V152.5H2010.5V154.5ZM2013 153.5V147.5H2011V153.5H2013ZM2012 148.5H2013.5V146.5H2012V148.5ZM2014.5 147.5V145.5H2012.5V147.5H2014.5ZM2013.5 146.5H2024.5V144.5H2013.5V146.5ZM2025.5 145.5V138.5H2023.5V145.5H2025.5ZM2024.77 139.462L2035.27 136.462L2034.73 134.538L2024.23 137.538L2024.77 139.462ZM2034 135.5V156H2036V135.5H2034ZM2035 157H2036V155H2035V157ZM2035 156V159.5H2037V156H2035ZM2036 160.5H2038.5V158.5H2036V160.5ZM2039.5 159.5V140.5H2037.5V159.5H2039.5ZM2038.5 141.5H2040.5V139.5H2038.5V141.5ZM2041.39 140.947L2041.89 139.947L2040.11 139.053L2039.61 140.053L2041.39 140.947ZM2041 140.5H2055.5V138.5H2041V140.5ZM2054.79 140.207L2055.79 141.207L2057.21 139.793L2056.21 138.793L2054.79 140.207ZM2056.5 141.5H2058.5V139.5H2056.5V141.5ZM2057.5 140.5V158.5H2059.5V140.5H2057.5ZM2058.82 159.449L2060.32 158.949L2059.68 157.051L2058.18 157.551L2058.82 159.449ZM2059 158V159.5H2061V158H2059ZM2060 160.5H2073V158.5H2060V160.5ZM2074 159.5V153.5H2072V159.5H2074ZM2073 152.5H2070.5V154.5H2073V152.5ZM2071.5 153.5V147H2069.5V153.5H2071.5ZM2070.5 148H2089.5V146H2070.5V148ZM2088.5 147V171H2090.5V147H2088.5ZM2089.5 172H2116V170H2089.5V172ZM2117 171V168H2115V171H2117ZM2116 169H2125.5V167H2116V169ZM2124.5 168V177.5H2126.5V168H2124.5ZM2125.5 178.5H2139V176.5H2125.5V178.5ZM2139.95 177.803L2143.45 166.803L2141.55 166.197L2138.05 177.197L2139.95 177.803ZM2142.5 167.5H2161V165.5H2142.5V167.5ZM2160 166.5V173.5H2162V166.5H2160ZM2161 174.5H2164V172.5H2161V174.5ZM2164.89 173.947L2166.89 169.947L2165.11 169.053L2163.11 173.053L2164.89 173.947ZM2165 169.5V173.5H2167V169.5H2165ZM2166 174.5H2170.5V172.5H2166V174.5ZM2171.38 173.979L2174.38 168.479L2172.62 167.521L2169.62 173.021L2171.38 173.979ZM2172.5 168V173.5H2174.5V168H2172.5ZM2173.5 174.5H2192.5V172.5H2173.5V174.5ZM2193.08 174.314L2196.58 171.814L2195.42 170.186L2191.92 172.686L2193.08 174.314ZM2196 172H2209.5V170H2196V172ZM2208.97 171.848L2212.97 174.348L2214.03 172.652L2210.03 170.152L2208.97 171.848ZM2214.5 173.5V150H2212.5V173.5H2214.5ZM2213.5 151H2236.5V149H2213.5V151ZM2237.5 150V132.5H2235.5V150H2237.5ZM2236.5 133.5H2238V131.5H2236.5V133.5ZM2237 132.5V147.5H2239V132.5H2237ZM2238 148.5H2252V146.5H2238V148.5ZM2253 147.5V145.5H2251V147.5H2253ZM2252 146.5H2256.5V144.5H2252V146.5ZM2255.59 145.906L2257.59 150.406L2259.41 149.594L2257.41 145.094L2255.59 145.906ZM2257.5 150.06L2259 175.06L2261 174.94L2259.5 149.94L2257.5 150.06ZM2259 175V195H2261V175H2259ZM2260 196H2262.5V194H2260V196ZM2263.5 195V177.5H2261.5V195H2263.5ZM2262.5 178.5H2271.5V176.5H2262.5V178.5ZM2272.5 177.5V156H2270.5V177.5H2272.5ZM2271.5 155H2268.5V157H2271.5V155ZM2269.5 156V150H2267.5V156H2269.5ZM2268.5 151H2293V149H2268.5V151ZM2292 150V158.5H2294V150H2292ZM2293.08 159.497L2299.08 158.997L2298.92 157.003L2292.92 157.503L2293.08 159.497ZM2300 158V145.5H2298V158H2300ZM2299 146.5H2304V144.5H2299V146.5ZM2303 145.5V147.5H2305V145.5H2303ZM2304 148.5H2312V146.5H2304V148.5ZM2311 147.5V150H2313V147.5H2311ZM2312 151H2314.5V149H2312V151ZM2315.5 150V147.5H2313.5V150H2315.5ZM2314.5 148.5H2322.5V146.5H2314.5V148.5ZM2321.86 148.268L2324.86 150.768L2326.14 149.232L2323.14 146.732L2321.86 148.268ZM2326.5 150V147H2324.5V150H2326.5ZM2325.5 148H2338V146H2325.5V148ZM2337.92 147.997L2344.42 148.497L2344.58 146.503L2338.08 146.003L2337.92 147.997ZM2345.23 148.18L2351.73 141.18L2350.27 139.82L2343.77 146.82L2345.23 148.18ZM2352 140.5V129H2350V140.5H2352ZM2350.15 129.526L2356.65 140.026L2358.35 138.974L2351.85 128.474L2350.15 129.526ZM2357.64 140.49L2364.64 139.49L2364.36 137.51L2357.36 138.51L2357.64 140.49ZM2363.63 138.996L2367.63 145.996L2369.37 145.004L2365.37 138.004L2363.63 138.996ZM2367.5 145.5V153.5H2369.5V145.5H2367.5ZM2368.5 154.5H2370.5V152.5H2368.5V154.5ZM2369.5 153.5V170.5H2371.5V153.5H2369.5ZM2370.88 171.423L2376.88 168.923L2376.12 167.077L2370.12 169.577L2370.88 171.423ZM2376.5 169H2387V167H2376.5V169ZM2388 168V154.5H2386V168H2388ZM2387 153.5H2385V155.5H2387V153.5ZM2386 154.5V150H2384V154.5H2386ZM2385 151H2387V149H2385V151ZM2388 150V147H2386V150H2388ZM2387.73 147.678L2393.73 141.178L2392.27 139.822L2386.27 146.322L2387.73 147.678ZM2393 141.5H2399.5V139.5H2393V141.5ZM2398.5 140.5V142H2400.5V140.5H2398.5ZM2399.5 143H2409V141H2399.5V143ZM2410 142V137H2408V142H2410ZM2409 138H2420V136H2409V138ZM2419 137V195H2421V137H2419ZM2420 196H2437V194H2420V196ZM2438 195V153.5H2436V195H2438ZM2437.11 154.494L2469.11 150.994L2468.89 149.006L2436.89 152.506L2437.11 154.494ZM2468 150V168H2470V150H2468ZM2468.91 168.996L2486.41 170.496L2486.59 168.504L2469.09 167.004L2468.91 168.996ZM2486.41 170.496L2497.91 171.496L2498.09 169.504L2486.59 168.504L2486.41 170.496ZM2498.96 170.771L2503.46 154.771L2501.54 154.229L2497.04 170.229L2498.96 170.771ZM2502.5 155.5H2504.5V153.5H2502.5V155.5ZM2503.5 154.6L2505 169.6L2507 169.4L2505.5 154.4L2503.5 154.6ZM2506 170.5H2511.5V168.5H2506V170.5ZM2512.5 169.5V154.5H2510.5V169.5H2512.5ZM2511.5 155.5H2513V153.5H2511.5V155.5ZM2512.02 154.674L2513.52 163.174L2515.48 162.826L2513.98 154.326L2512.02 154.674ZM2514.5 164H2517.5V162H2514.5V164ZM2516.5 163V170.5H2518.5V163H2516.5ZM2517.5 171.5H2520.5V169.5H2517.5V171.5ZM2521.5 170.5V150H2519.5V170.5H2521.5ZM2520.5 151H2522.5V149H2520.5V151ZM2521.5 150V154.5H2523.5V150H2521.5ZM2522.5 155.5H2527V153.5H2522.5V155.5ZM2526.02 154.71L2527.52 161.71L2529.48 161.29L2527.98 154.29L2526.02 154.71ZM2529.37 161.996L2533.37 154.996L2531.63 154.004L2527.63 161.004L2529.37 161.996ZM2531.5 154.5V170.5H2533.5V154.5H2531.5ZM2532.5 171.5H2538V169.5H2532.5V171.5ZM2539 170.5V165H2537V170.5H2539ZM2538.81 165.588L2542.81 160.088L2541.19 158.912L2537.19 164.412L2538.81 165.588ZM2542 160.5H2545.5V158.5H2542V160.5ZM2544.5 159.5V169.5H2546.5V159.5H2544.5ZM2546.48 169.696L2548.48 159.696L2546.52 159.304L2544.52 169.304L2546.48 169.696ZM2547.5 160.5H2552.5V158.5H2547.5V160.5ZM2553.5 159.5V154.5H2551.5V159.5H2553.5ZM2552.5 153.5H2549.5V155.5H2552.5V153.5ZM2550.49 154.607L2551.99 140.607L2550.01 140.393L2548.51 154.393L2550.49 154.607ZM2551 141.5H2558V139.5H2551V141.5ZM2557 140.5V157H2559V140.5H2557ZM2558 158H2562.5V156H2558V158ZM2563.5 157V153.5H2561.5V157H2563.5ZM2562.5 154.5H2568.5V152.5H2562.5V154.5ZM2567.5 153.5V157H2569.5V153.5H2567.5ZM2569.25 157.664L2577.25 148.664L2575.75 147.336L2567.75 156.336L2569.25 157.664ZM2576.46 148.999L2726.96 154.499L2727.04 152.501L2576.54 147.001L2576.46 148.999ZM2726 153.5V179.5H2728V153.5H2726ZM2727 180.5H2735V178.5H2727V180.5ZM2735.74 180.168L2748.74 165.668L2747.26 164.332L2734.26 178.832L2735.74 180.168ZM2748.1 165.995L2767.6 163.995L2767.4 162.005L2747.9 164.005L2748.1 165.995ZM2767.04 163.89L2788.54 174.89L2789.46 173.11L2767.96 162.11L2767.04 163.89ZM2789.99 173.83L2787.49 159.33L2785.51 159.67L2788.01 174.17L2789.99 173.83ZM2786.5 160.5H2800V158.5H2786.5V160.5ZM2800.58 160.317L2809.08 154.317L2807.92 152.683L2799.42 158.683L2800.58 160.317ZM2809.5 153.5V143.5H2807.5V153.5H2809.5ZM2808.5 144.5H2814.5V142.5H2808.5V144.5ZM2813.5 143.5V153.5H2815.5V143.5H2813.5ZM2814.49 154.5L2928.49 155.5L2928.51 153.5L2814.51 152.5L2814.49 154.5ZM2929.14 155.271L2949.14 138.771L2947.86 137.229L2927.86 153.729L2929.14 155.271ZM2948.5 139H2954.5V137H2948.5V139ZM2953.5 138V150H2955.5V138H2953.5ZM2955.47 150.235L2958.97 135.735L2957.03 135.265L2953.53 149.765L2955.47 150.235ZM2958 136.5H2970.5V134.5H2958V136.5ZM2971.09 136.311L2980.09 129.811L2978.91 128.189L2969.91 134.689L2971.09 136.311ZM2978.7 129.6L2981.7 133.6L2983.3 132.4L2980.3 128.4L2978.7 129.6ZM2981.5 133V138H2983.5V133H2981.5ZM2982.5 139H2994V137H2982.5V139ZM2995 138V133H2993V138H2995ZM2994 134H2997V132H2994V134ZM2996 133V138H2998V133H2996ZM2997 139H3006V137H2997V139ZM3005 138V147.5H3007V138H3005ZM3006 148.5H3009.5V146.5H3006V148.5ZM3010.5 147.5V135.5H3008.5V147.5H3010.5ZM3009.5 136.5H3021.5V134.5H3009.5V136.5ZM3020.5 135.5V147.5H3022.5V135.5H3020.5ZM3021.5 148.5H3028.5V146.5H3021.5V148.5ZM3029.5 147.5V138H3027.5V147.5H3029.5ZM3028.5 139H3046V137H3028.5V139ZM3046.64 138.768L3049.64 136.268L3048.36 134.732L3045.36 137.232L3046.64 138.768ZM3048 135.5V153.5H3050V135.5H3048ZM3049.95 153.802L3056.45 133.302L3054.55 132.698L3048.05 153.198L3049.95 153.802ZM3054.5 133V165H3056.5V133H3054.5ZM3055.91 165.914L3060.41 163.914L3059.59 162.086L3055.09 164.086L3055.91 165.914ZM3061 163V131H3059V163H3061ZM3059.7 131.955L3074.2 136.455L3074.8 134.545L3060.3 130.045L3059.7 131.955ZM3074.65 136.489L3091.65 133.989L3091.35 132.011L3074.35 134.511L3074.65 136.489ZM3090.5 133V182.5H3092.5V133H3090.5ZM3091.5 183.5H3096V181.5H3091.5V183.5ZM3097 182.5V135.5H3095V182.5H3097ZM3095.79 136.477L3107.29 138.977L3107.71 137.023L3096.21 134.523L3095.79 136.477ZM3108.5 138V122.5H3106.5V138H3108.5ZM3107.5 123.5H3116.5V121.5H3107.5V123.5ZM3115.51 122.635L3122.51 174.135L3124.49 173.865L3117.49 122.365L3115.51 122.635ZM3124.49 174.131L3127.99 147.631L3126.01 147.369L3122.51 173.869L3124.49 174.131ZM3126.04 147.78L3129.54 159.78L3131.46 159.22L3127.96 147.22L3126.04 147.78ZM3131.48 159.705L3135.98 138.205L3134.02 137.795L3129.52 159.295L3131.48 159.705ZM3135 139H3145.5V137H3135V139ZM3144.5 138V143.5H3146.5V138H3144.5ZM3145.5 144.5H3149.5V142.5H3145.5V144.5ZM3150.5 143.5V131H3148.5V143.5H3150.5ZM3149.5 132H3161V130H3149.5V132ZM3160 131V147.5H3162V131H3160ZM3161 148.5H3165.5V146.5H3161V148.5ZM3166.5 147.5V138H3164.5V147.5H3166.5ZM3165.5 139H3181.5V137H3165.5V139ZM3180.5 138V147.5H3182.5V138H3180.5ZM3182.09 148.309L3187.59 144.309L3186.41 142.691L3180.91 146.691L3182.09 148.309ZM3186 143.5V153.5H3188V143.5H3186ZM3187.5 154.364L3193.5 150.864L3192.5 149.136L3186.5 152.636L3187.5 154.364ZM3194 150V143.5H3192V150H3194ZM3193 144.5H3204V142.5H3193V144.5ZM3205 143.5V138H3203V143.5H3205ZM3204 139H3225.5V137H3204V139ZM3224.5 138.083L3227.5 174.083L3229.5 173.917L3226.5 137.917L3224.5 138.083ZM3229.49 174.124L3232.49 150.124L3230.51 149.876L3227.51 173.876L3229.49 174.124ZM3231.5 151H3236.5V149H3231.5V151ZM3237.5 150V140.5H3235.5V150H3237.5ZM3236.5 141.5H3260V139.5H3236.5V141.5ZM3260.98 140.712L3263.48 129.212L3261.52 128.788L3259.02 140.288L3260.98 140.712ZM3262.5 130H3288.5V128H3262.5V130ZM3287.5 129V136.25H3289.5V129H3287.5ZM3288.3 137.229L3308.8 141.479L3309.2 139.521L3288.7 135.271L3288.3 137.229ZM3310 140.5V133H3308V140.5H3310ZM3309 134H3324V132H3309V134ZM3323.19 133.581L3330.69 144.081L3332.31 142.919L3324.81 132.419L3323.19 133.581ZM3330.5 143.5V427.5H3332.5V143.5H3330.5ZM3331.5 426.5H0.5V428.5H3331.5V426.5ZM1.5 427.5V143.5H-0.5V427.5H1.5ZM0.5 144.5H15V142.5H0.5V144.5ZM15.8995 143.937L24.3995 126.437L22.6005 125.563L14.1005 143.063L15.8995 143.937ZM22.7432 126.654L32.2432 137.654L33.7568 136.346L24.2568 125.346L22.7432 126.654ZM33 138H42V136H33V138ZM42.9751 137.222L45.4751 126.222L43.5249 125.778L41.0249 136.778L42.9751 137.222ZM43.8861 126.789L48.3861 130.289L49.6139 128.711L45.1139 125.211L43.8861 126.789ZM48 129.5V137H50V129.5H48ZM49 138H56V136H49V138ZM57 137V129.5H55V137H57ZM56 130.5H67V128.5H56V130.5ZM66.4265 130.319L71.4265 133.819L72.5735 132.181L67.5735 128.681L66.4265 130.319ZM72.4229 133.906L79.9229 130.406L79.0771 128.594L71.5771 132.094L72.4229 133.906ZM78.8161 130.23L86.8161 137.73L88.1839 136.27L80.1839 128.77L78.8161 130.23ZM87.8714 137.928L97.8714 133.928L97.1286 132.072L87.1286 136.072L87.8714 137.928ZM97.5 134H113V132H97.5V134ZM113 134H189V132H113V134ZM189 134H195.5V132H189V134ZM194.9 133.8L196.9 135.3L198.1 133.7L196.1 132.2L194.9 133.8ZM197.894 135.419L201.394 133.919L200.606 132.081L197.106 133.581L197.894 135.419ZM201 134H206V132H201V134ZM205.072 133.371L206.072 135.871L207.928 135.129L206.928 132.629L205.072 133.371ZM207.141 136.49L214.141 135.49L213.859 133.51L206.859 134.51L207.141 136.49ZM214.394 135.419L217.894 133.919L217.106 132.081L213.606 133.581L214.394 135.419ZM217.257 133.97L223.257 135.47L223.743 133.53L217.743 132.03L217.257 133.97ZM224.014 135.357L226.514 133.857L225.486 132.143L222.986 133.643L224.014 135.357ZM225.757 133.97L231.757 135.47L232.243 133.53L226.243 132.03L225.757 133.97ZM232.316 135.449L236.816 133.949L236.184 132.051L231.684 133.551L232.316 135.449ZM236.257 133.97L242.257 135.47L242.743 133.53L236.743 132.03L236.257 133.97ZM241.5 134.5V137H243.5V134.5H241.5ZM242.5 138H247.5V136H242.5V138ZM247.986 137.874L252.486 135.374L251.514 133.626L247.014 136.126L247.986 137.874ZM251.987 135.5L326.487 136.5L326.513 134.5L252.013 133.5L251.987 135.5ZM326.947 136.394L328.947 135.394L328.053 133.606L326.053 134.606L326.947 136.394ZM328.184 135.449L331.184 136.449L331.816 134.551L328.816 133.551L328.184 135.449ZM331.816 136.449L334.816 135.449L334.184 133.551L331.184 134.551L331.816 136.449ZM334.5 135.5H335.5V133.5H334.5V135.5ZM335.225 135.462L338.725 136.462L339.275 134.538L335.775 133.538L335.225 135.462ZM339.275 136.462L342.775 135.462L342.225 133.538L338.725 134.538L339.275 136.462ZM342.184 135.449L345.184 136.449L345.816 134.551L342.816 133.551L342.184 135.449ZM345.775 136.462L349.275 135.462L348.725 133.538L345.225 134.538L345.775 136.462ZM349.479 135.378L354.979 132.378L354.021 130.622L348.521 133.622L349.479 135.378ZM354.5 132.5H357V130.5H354.5V132.5ZM356.064 131.851L357.564 135.851L359.436 135.149L357.936 131.149L356.064 131.851ZM358.5 136.5H362V134.5H358.5V136.5ZM362.196 136.481L367.196 135.481L366.804 133.519L361.804 134.519L362.196 136.481ZM366.939 135.498L473.939 141.998L474.061 140.002L367.061 133.502L366.939 135.498ZM474.991 141.135L477.991 119.135L476.009 118.865L473.009 140.865L474.991 141.135ZM477 120H482V118H477V120ZM481 119V148H483V119H481ZM482 149H486.5V147H482V149ZM487.314 148.581L489.814 145.081L488.186 143.919L485.686 147.419L487.314 148.581ZM489.996 144.591L491.996 122.591L490.004 122.409L488.004 144.409L489.996 144.591ZM491 123.5H501.5V121.5H491V123.5ZM500.536 122.768L503.036 131.768L504.964 131.232L502.464 122.232L500.536 122.768ZM505 131.5V122.5H503V131.5H505ZM504 123.5H518V121.5H504V123.5ZM517.002 122.562L518.002 138.562L519.998 138.438L518.998 122.438L517.002 122.562ZM519.479 139.378L524.979 136.378L524.021 134.622L518.521 137.622L519.479 139.378ZM524.149 136.436L528.149 137.936L528.851 136.064L524.851 134.564L524.149 136.436ZM529.5 137V133H527.5V137H529.5ZM528.5 134H535.5V132H528.5V134ZM536.5 133V127H534.5V133H536.5ZM535.5 128H546.5V126H535.5V128ZM546.563 127.998L672.563 119.998L672.437 118.002L546.437 126.002L546.563 127.998ZM673.5 119V102.5H671.5V119H673.5ZM672.5 103.5H684V101.5H672.5V103.5ZM684 103.5H719.5V101.5H684V103.5ZM718.5 102.5V150.5H720.5V102.5H718.5ZM719.5 151.5H725V149.5H719.5V151.5ZM725.967 150.754L728.467 141.254L726.533 140.746L724.033 150.246L725.967 150.754ZM728.454 141.301L731.454 131.801L729.546 131.199L726.546 140.699L728.454 141.301ZM730.5 132.5H737.5V130.5H730.5V132.5ZM738.5 131.5V127H736.5V131.5H738.5ZM736.595 127.426L740.595 135.926L742.405 135.074L738.405 126.574L736.595 127.426ZM742.473 135.732L744.973 125.232L743.027 124.768L740.527 135.268L742.473 135.732ZM744 126H757V124H744V126ZM756 125V138.5H758V125H756ZM757 139.5H760.5V137.5H757V139.5ZM761.5 138.5V133H759.5V138.5H761.5ZM760.5 134H764V132H760.5V134ZM765 133V125H763V133H765ZM764 126H768.5V124H764V126ZM769.432 125.362L772.932 116.362L771.068 115.638L767.568 124.638L769.432 125.362ZM772 117H795V115H772V117ZM795.968 116.251L799.468 102.751L797.532 102.249L794.032 115.749L795.968 116.251ZM797.5 102.5V116H799.5V102.5H797.5ZM798.5 117H807V115H798.5V117ZM806.713 116.958L816.713 119.958L817.287 118.042L807.287 115.042L806.713 116.958ZM817 120H834V118H817V120ZM834.514 119.857L839.514 116.857L838.486 115.143L833.486 118.143L834.514 119.857ZM838.775 116.974L851.775 119.974L852.225 118.026L839.225 115.026L838.775 116.974ZM852.371 119.928L859.871 116.928L859.129 115.072L851.629 118.072L852.371 119.928ZM860.5 116V111H858.5V116H860.5ZM859.5 112H880.5V110H859.5V112ZM880.174 111.945L894.674 116.945L895.326 115.055L880.826 110.055L880.174 111.945ZM895.026 117L1008.53 114L1008.47 112L894.974 115L895.026 117ZM1007.57 113.371L1011.57 123.371L1013.43 122.629L1009.43 112.629L1007.57 113.371ZM1013.5 123V108.5H1011.5V123H1013.5ZM1013.33 109.055L1017.33 103.055L1015.67 101.945L1011.67 107.945L1013.33 109.055ZM1015.5 102.5V137.5H1017.5V102.5H1015.5ZM1016.5 138.5H1022V136.5H1016.5V138.5ZM1022.98 137.705L1027.48 116.205L1025.52 115.795L1021.02 137.295L1022.98 137.705ZM1026.5 117H1033V115H1026.5V117ZM1033.45 116.894L1039.45 113.894L1038.55 112.106L1032.55 115.106L1033.45 116.894ZM1039.37 113.928L1044.37 111.928L1043.63 110.072L1038.63 112.072L1039.37 113.928ZM1045 111V94.5H1043V111H1045ZM1044 95.5H1047.5V93.5H1044V95.5ZM1047.4 95.4954L1088.9 99.4954L1089.1 97.5046L1047.6 93.5046L1047.4 95.4954ZM1088.52 99.3785L1140.02 127.379L1140.98 125.621L1089.48 97.6215L1088.52 99.3785ZM1140.5 127.5H1149V125.5H1140.5V127.5ZM1148.61 127.419L1159.11 131.919L1159.89 130.081L1149.39 125.581L1148.61 127.419ZM1158.5 131V148.5H1160.5V131H1158.5ZM1160.24 149.176L1165.74 143.176L1164.26 141.824L1158.76 147.824L1160.24 149.176ZM1166 142.5V135H1164V142.5H1166ZM1165 136H1169V134H1165V136ZM1168 135V142.5H1170V135H1168ZM1168.17 143.055L1172.17 149.055L1173.83 147.945L1169.83 141.945L1168.17 143.055ZM1174 148.5V111H1172V148.5H1174ZM1173 112H1190.5V110H1173V112ZM1189.5 111V131H1191.5V111H1189.5ZM1190.5 132H1194.5V130H1190.5V132ZM1193.5 131V142.5H1195.5V131H1193.5ZM1194.5 143.5H1215.5V141.5H1194.5V143.5ZM1216.5 142.5V137.5H1214.5V142.5H1216.5ZM1215.5 138.5H1222V136.5H1215.5V138.5ZM1222 138.5H1227.5V136.5H1222V138.5ZM1228.5 137.5V111H1226.5V137.5H1228.5ZM1227.5 112H1267V110H1227.5V112ZM1266.58 111.908L1360.58 155.408L1361.42 153.592L1267.42 110.092L1266.58 111.908ZM1361 155.5H1368V153.5H1361V155.5ZM1367 154.5V162.5H1369V154.5H1367ZM1367.83 163.485L1379.33 165.485L1379.67 163.515L1368.17 161.515L1367.83 163.485ZM1378.5 164.578L1380.5 190.078L1382.5 189.922L1380.5 164.422L1378.5 164.578ZM1381.5 191H1391V189H1381.5V191ZM1392 190V185.5H1390V190H1392ZM1391 186.5H1399.5V184.5H1391V186.5ZM1400.5 185.567L1403 148.567L1401 148.433L1398.5 185.433L1400.5 185.567ZM1401 148.5V162.5H1403V148.5H1401ZM1402 163.5H1405.5V161.5H1402V163.5ZM1406.49 162.635L1407.99 151.635L1406.01 151.365L1404.51 162.365L1406.49 162.635ZM1407 152.5H1416.5V150.5H1407V152.5ZM1415.5 151.5V160.5H1417.5V151.5H1415.5ZM1415.79 161.207L1419.79 165.207L1421.21 163.793L1417.21 159.793L1415.79 161.207ZM1421.45 164.816L1423.45 158.816L1421.55 158.184L1419.55 164.184L1421.45 164.816ZM1422.27 159.473L1430.77 161.473L1431.23 159.527L1422.73 157.527L1422.27 159.473ZM1430.86 161.49L1444.86 163.49L1445.14 161.51L1431.14 159.51L1430.86 161.49ZM1445.45 163.394L1453.45 159.394L1452.55 157.606L1444.55 161.606L1445.45 163.394ZM1453 159.5H1463V157.5H1453V159.5ZM1464 158.5V154.5H1462V158.5H1464ZM1463 155.5H1465V153.5H1463V155.5ZM1464 154.5V160.5H1466V154.5H1464ZM1464.06 160.851L1465.56 164.851L1467.44 164.149L1465.94 160.149L1464.06 160.851ZM1467.5 164.5V129H1465.5V164.5H1467.5ZM1466.18 129.949L1472.18 131.949L1472.82 130.051L1466.82 128.051L1466.18 129.949ZM1472.5 132H1486V130H1472.5V132ZM1486.23 131.973L1494.73 129.973L1494.27 128.027L1485.77 130.027L1486.23 131.973ZM1494.26 129.97L1502.26 131.97L1502.74 130.03L1494.74 128.03L1494.26 129.97ZM1501.5 131V145H1503.5V131H1501.5ZM1501.96 145.844L1507.46 149.344L1508.54 147.656L1503.04 144.156L1501.96 145.844ZM1508.98 148.677L1512.48 129.177L1510.52 128.823L1507.02 148.323L1508.98 148.677ZM1511.5 130H1516.5V128H1511.5V130ZM1515.51 129.102L1517.51 148.602L1519.49 148.398L1517.49 128.898L1515.51 129.102ZM1518.5 149.5H1527.5V147.5H1518.5V149.5ZM1527.11 149.419L1534.11 152.419L1534.89 150.581L1527.89 147.581L1527.11 149.419ZM1533.5 151.5V162.5H1535.5V151.5H1533.5ZM1534.5 163.5H1542.5V161.5H1534.5V163.5ZM1543.5 162.5V151.5H1541.5V162.5H1543.5ZM1543.5 151.5V126.5H1541.5V151.5H1543.5ZM1543.45 126.798L1545.95 118.798L1544.05 118.202L1541.55 126.202L1543.45 126.798ZM1545.67 119.24L1551.17 114.24L1549.83 112.76L1544.33 117.76L1545.67 119.24ZM1549.86 114.265L1559.36 122.265L1560.64 120.735L1551.14 112.735L1549.86 114.265ZM1559.47 122.348L1567.47 127.348L1568.53 125.652L1560.53 120.652L1559.47 122.348ZM1567 126.5V151.5H1569V126.5H1567ZM1568.16 152.488L1577.66 150.988L1577.34 149.012L1567.84 150.512L1568.16 152.488ZM1578.5 150V142.5H1576.5V150H1578.5ZM1577.5 143.5H1585.5V141.5H1577.5V143.5ZM1586.5 142.5V137.5H1584.5V142.5H1586.5ZM1585.38 138.492L1601.38 140.492L1601.62 138.508L1585.62 136.508L1585.38 138.492ZM1601.71 140.478L1608.71 138.978L1608.29 137.022L1601.29 138.522L1601.71 140.478ZM1608.36 138.99L1618.86 140.49L1619.14 138.51L1608.64 137.01L1608.36 138.99ZM1618.35 140.259L1621.85 143.259L1623.15 141.741L1619.65 138.741L1618.35 140.259ZM1622.26 143.47L1628.26 144.97L1628.74 143.03L1622.74 141.53L1622.26 143.47ZM1629.32 144.569L1633.82 138.069L1632.18 136.931L1627.68 143.431L1629.32 144.569ZM1632.96 138.499L1644.96 138.999L1645.04 137.001L1633.04 136.501L1632.96 138.499ZM1644.58 138.908L1657.58 144.908L1658.42 143.092L1645.42 137.092L1644.58 138.908ZM1659 144V133H1657V144H1659ZM1658.34 133.94L1669.34 129.94L1668.66 128.06L1657.66 132.06L1658.34 133.94ZM1668.83 129.985L1680.33 131.985L1680.67 130.015L1669.17 128.015L1668.83 129.985ZM1679.5 131V142.5H1681.5V131H1679.5ZM1680.03 143.384L1688.53 147.884L1689.47 146.116L1680.97 141.616L1680.03 143.384ZM1688.89 147.993L1701.89 149.493L1702.11 147.507L1689.11 146.007L1688.89 147.993ZM1703 148.5V139.5H1701V148.5H1703ZM1701.83 140.485L1721.83 143.985L1722.17 142.015L1702.17 138.515L1701.83 140.485ZM1721 143V150H1723V143H1721ZM1722 151H1725.5V149H1722V151Z" fill="black" fill-opacity="0.16" mask="url(#path-1-inside-1)"/>
<mask id="path-3-outside-2" maskUnits="userSpaceOnUse" x="0" y="0" width="3332" height="578" fill="black">
<rect fill="white" width="3332" height="578"/>
<path fill-rule="evenodd" clip-rule="evenodd" d="M9.5 236.5C8.66667 236.333 6.8 236.1 6 236.5H2V576H3330V269H3321.5V162L3315 152H3249.5L3238.5 162V213.5H3217.5V162L3191 152L3166 162L3171.5 249.5H3144V255.5H3110.5V287.5H3069V310.5H3022.5L2999 317V327.5H2977.5H2957.5V260.5H2948.5V77L2922 71.5V67.5L2897 59.5V67.5L2822 55.5L2816.5 71.5V327.5H2793V179L2767.5 162H2754L2738.5 179V152H2733.5V89.5L2702.5 93V77H2698.5V59.5H2702.5V41.5L2610 38.5L2588.5 41.5V46.5H2592V67.5H2583L2588.5 144H2576.5L2580.5 264H2561.5V295.5L2556.5 220H2547L2539.5 224L2537 220L2517 217V195H2494.5V141.5H2498V136L2421.5 139L2410 136V287.5L2378 275H2312.5V264L2287 266.5V275H2244V283.5H2225V269L2220.5 266.5V179L2212 172H2196L2187.5 179H2184V228.5H2178.5V213.5L2109 210.5V163.5H2106V107H2104V99.5V83V56.5H2102L2095.5 73.5V103.5H2096.5V107H2095.5V163.5H2092.5V213.5H2058.5V343H1966.5L1882 339L1799.75 326.5L1726.6 310.354C1725.6 310.133 1724.79 309.42 1724.43 308.46L1682.13 193.526C1675.52 175.554 1674.2 156.06 1678.34 137.362L1703.97 21.662C1704.3 20.1633 1702.53 19.1025 1701.37 20.0987L1689.42 30.2847C1688.5 31.0761 1687.83 32.1314 1687.52 33.3101L1684.81 43.5L1673.59 85.7698C1673.24 87.0846 1672.05 88 1670.69 88H1642.35C1640.97 88 1639.77 87.06 1639.44 85.7215L1626.49 33.4616C1626.17 32.189 1625.45 31.0547 1624.43 30.2322L1611.59 19.891C1610.41 18.939 1608.69 20.0134 1609.03 21.493L1635.41 137.13C1639.71 155.972 1638.46 175.657 1631.81 193.802L1582.1 329.351C1581.73 330.369 1580.84 331.107 1579.77 331.28L1364.5 366V91.5L1331.5 88V83H1321.5V74.5H1269.5V91.5H1230V249.5H1224V205L1198.5 195.5L1160.5 198.5V139.5L1148 129V110.5L1141 91.5L1111.5 88V83H1064.5L1050 88V150H1016V289H1012V129L993 6.5L909.5 2L892 10V83H888V167.5H868V177H863V205H839L835 198.5H813L809 191.5H804L797 195.5H770.5L758.5 201.5V263.5H734.5V219.5H722V208.5L719 198.5L714 208.5H697.5H688.5V177H672.5V110.5H657V95.5H573.5V110.5H542.5V150H530.5V139.5H510.5V263.5H503V215H497.5V195.5L477 201.5V58.5L466 62L461 58.5H391.5L417.5 69V83H402V78.5L362.5 69V191.5H324.5V98.5L322.5 92L298 69H281L257 92V100.5H250.5V105H254V117.5H250.5V211.5H195.5V147V144.5L193 143.5V136.5H190.5V110.5L164.5 87H144L118 110.5V128H114.5V136.5H111V232H107V198H109V194H107V182.5C106.833 177.333 103.7 167 92.5 167L77.5 173.5V154.5L60 150V157H54V162.5L48 169V195.5H45V232H41.5L37 221H23L17 229.5V222.5L9.5 226V236.5ZM1668.2 101H1645.74C1643.82 101 1642.4 102.779 1642.81 104.653L1653.67 153.311C1654.36 156.417 1658.78 156.449 1659.52 153.354L1671.12 104.696C1671.57 102.81 1670.14 101 1668.2 101ZM1653.63 177.07L1605.22 321.863C1604.47 324.098 1606.47 326.283 1608.77 325.731L1697.83 304.263C1699.54 303.852 1700.53 302.073 1699.98 300.407L1659.33 177.082C1658.43 174.34 1654.55 174.332 1653.63 177.07Z"/>
</mask>
<path fill-rule="evenodd" clip-rule="evenodd" d="M9.5 236.5C8.66667 236.333 6.8 236.1 6 236.5H2V576H3330V269H3321.5V162L3315 152H3249.5L3238.5 162V213.5H3217.5V162L3191 152L3166 162L3171.5 249.5H3144V255.5H3110.5V287.5H3069V310.5H3022.5L2999 317V327.5H2977.5H2957.5V260.5H2948.5V77L2922 71.5V67.5L2897 59.5V67.5L2822 55.5L2816.5 71.5V327.5H2793V179L2767.5 162H2754L2738.5 179V152H2733.5V89.5L2702.5 93V77H2698.5V59.5H2702.5V41.5L2610 38.5L2588.5 41.5V46.5H2592V67.5H2583L2588.5 144H2576.5L2580.5 264H2561.5V295.5L2556.5 220H2547L2539.5 224L2537 220L2517 217V195H2494.5V141.5H2498V136L2421.5 139L2410 136V287.5L2378 275H2312.5V264L2287 266.5V275H2244V283.5H2225V269L2220.5 266.5V179L2212 172H2196L2187.5 179H2184V228.5H2178.5V213.5L2109 210.5V163.5H2106V107H2104V99.5V83V56.5H2102L2095.5 73.5V103.5H2096.5V107H2095.5V163.5H2092.5V213.5H2058.5V343H1966.5L1882 339L1799.75 326.5L1726.6 310.354C1725.6 310.133 1724.79 309.42 1724.43 308.46L1682.13 193.526C1675.52 175.554 1674.2 156.06 1678.34 137.362L1703.97 21.662C1704.3 20.1633 1702.53 19.1025 1701.37 20.0987L1689.42 30.2847C1688.5 31.0761 1687.83 32.1314 1687.52 33.3101L1684.81 43.5L1673.59 85.7698C1673.24 87.0846 1672.05 88 1670.69 88H1642.35C1640.97 88 1639.77 87.06 1639.44 85.7215L1626.49 33.4616C1626.17 32.189 1625.45 31.0547 1624.43 30.2322L1611.59 19.891C1610.41 18.939 1608.69 20.0134 1609.03 21.493L1635.41 137.13C1639.71 155.972 1638.46 175.657 1631.81 193.802L1582.1 329.351C1581.73 330.369 1580.84 331.107 1579.77 331.28L1364.5 366V91.5L1331.5 88V83H1321.5V74.5H1269.5V91.5H1230V249.5H1224V205L1198.5 195.5L1160.5 198.5V139.5L1148 129V110.5L1141 91.5L1111.5 88V83H1064.5L1050 88V150H1016V289H1012V129L993 6.5L909.5 2L892 10V83H888V167.5H868V177H863V205H839L835 198.5H813L809 191.5H804L797 195.5H770.5L758.5 201.5V263.5H734.5V219.5H722V208.5L719 198.5L714 208.5H697.5H688.5V177H672.5V110.5H657V95.5H573.5V110.5H542.5V150H530.5V139.5H510.5V263.5H503V215H497.5V195.5L477 201.5V58.5L466 62L461 58.5H391.5L417.5 69V83H402V78.5L362.5 69V191.5H324.5V98.5L322.5 92L298 69H281L257 92V100.5H250.5V105H254V117.5H250.5V211.5H195.5V147V144.5L193 143.5V136.5H190.5V110.5L164.5 87H144L118 110.5V128H114.5V136.5H111V232H107V198H109V194H107V182.5C106.833 177.333 103.7 167 92.5 167L77.5 173.5V154.5L60 150V157H54V162.5L48 169V195.5H45V232H41.5L37 221H23L17 229.5V222.5L9.5 226V236.5ZM1668.2 101H1645.74C1643.82 101 1642.4 102.779 1642.81 104.653L1653.67 153.311C1654.36 156.417 1658.78 156.449 1659.52 153.354L1671.12 104.696C1671.57 102.81 1670.14 101 1668.2 101ZM1653.63 177.07L1605.22 321.863C1604.47 324.098 1606.47 326.283 1608.77 325.731L1697.83 304.263C1699.54 303.852 1700.53 302.073 1699.98 300.407L1659.33 177.082C1658.43 174.34 1654.55 174.332 1653.63 177.07Z" fill="#4E49BA"/>
<path d="M1671.12 104.696L1671.9 104.881L1671.12 104.696ZM1659.52 153.354L1660.29 153.539V153.539L1659.52 153.354ZM1653.67 153.311L1654.45 153.137V153.137L1653.67 153.311ZM1642.81 104.653L1643.6 104.479L1642.81 104.653ZM1653.63 177.07L1652.88 176.816V176.816L1653.63 177.07ZM1605.22 321.863L1605.98 322.117V322.117L1605.22 321.863ZM1608.77 325.731L1608.95 326.509L1608.77 325.731ZM1697.83 304.263L1697.65 303.485L1697.83 304.263ZM1699.98 300.407L1700.74 300.157V300.157L1699.98 300.407ZM1659.33 177.082L1658.57 177.332L1659.33 177.082ZM1645.74 101.8H1668.2V100.2H1645.74V101.8ZM1670.34 104.51L1658.74 153.168L1660.29 153.539L1671.9 104.881L1670.34 104.51ZM1654.45 153.137L1643.6 104.479L1642.03 104.827L1652.89 153.485L1654.45 153.137ZM1652.88 176.816L1604.46 321.609L1605.98 322.117L1654.39 177.323L1652.88 176.816ZM1608.95 326.509L1698.02 305.041L1697.65 303.485L1608.58 324.953L1608.95 326.509ZM1700.74 300.157L1660.09 176.831L1658.57 177.332L1699.22 300.658L1700.74 300.157ZM1698.02 305.041C1700.18 304.52 1701.44 302.267 1700.74 300.157L1699.22 300.658C1699.62 301.879 1698.9 303.184 1697.65 303.485L1698.02 305.041ZM1604.46 321.609C1603.51 324.441 1606.05 327.208 1608.95 326.509L1608.58 324.953C1606.9 325.358 1605.43 323.756 1605.98 322.117L1604.46 321.609ZM1654.39 177.323C1655.06 175.316 1657.91 175.322 1658.57 177.332L1660.09 176.831C1658.94 173.359 1654.04 173.348 1652.88 176.816L1654.39 177.323ZM1658.74 153.168C1658.2 155.438 1654.96 155.414 1654.45 153.137L1652.89 153.485C1653.77 157.419 1659.36 157.46 1660.29 153.539L1658.74 153.168ZM1668.2 101.8C1669.62 101.8 1670.67 103.128 1670.34 104.51L1671.9 104.881C1672.47 102.493 1670.66 100.2 1668.2 100.2V101.8ZM1645.74 100.2C1643.31 100.2 1641.5 102.453 1642.03 104.827L1643.6 104.479C1643.29 103.105 1644.33 101.8 1645.74 101.8V100.2ZM6 236.5V238.1H6.3777L6.71553 237.931L6 236.5ZM9.5 236.5L9.1862 238.069L11.1 238.452V236.5H9.5ZM2 236.5V234.9H0.4V236.5H2ZM2 576H0.4V577.6H2V576ZM3330 576V577.6H3331.6V576H3330ZM3330 269H3331.6V267.4H3330V269ZM3321.5 269H3319.9V270.6H3321.5V269ZM3321.5 162H3323.1V161.526L3322.84 161.128L3321.5 162ZM3315 152L3316.34 151.128L3315.87 150.4H3315V152ZM3249.5 152V150.4H3248.88L3248.42 150.816L3249.5 152ZM3238.5 162L3237.42 160.816L3236.9 161.292V162H3238.5ZM3238.5 213.5V215.1H3240.1V213.5H3238.5ZM3217.5 213.5H3215.9V215.1H3217.5V213.5ZM3217.5 162H3219.1V160.894L3218.06 160.503L3217.5 162ZM3191 152L3191.56 150.503L3190.98 150.283L3190.41 150.514L3191 152ZM3166 162L3165.41 160.514L3164.33 160.945L3164.4 162.1L3166 162ZM3171.5 249.5V251.1H3173.2L3173.1 249.4L3171.5 249.5ZM3144 249.5V247.9H3142.4V249.5H3144ZM3144 255.5V257.1H3145.6V255.5H3144ZM3110.5 255.5V253.9H3108.9V255.5H3110.5ZM3110.5 287.5V289.1H3112.1V287.5H3110.5ZM3069 287.5V285.9H3067.4V287.5H3069ZM3069 310.5V312.1H3070.6V310.5H3069ZM3022.5 310.5V308.9H3022.28L3022.07 308.958L3022.5 310.5ZM2999 317L2998.57 315.458L2997.4 315.782V317H2999ZM2999 327.5V329.1H3000.6V327.5H2999ZM2957.5 327.5H2955.9V329.1H2957.5V327.5ZM2957.5 260.5H2959.1V258.9H2957.5V260.5ZM2948.5 260.5H2946.9V262.1H2948.5V260.5ZM2948.5 77H2950.1V75.698L2948.83 75.4334L2948.5 77ZM2922 71.5H2920.4V72.802L2921.67 73.0666L2922 71.5ZM2922 67.5H2923.6V66.3321L2922.49 65.9761L2922 67.5ZM2897 59.5L2897.49 57.9761L2895.4 57.3081V59.5H2897ZM2897 67.5L2896.75 69.0799L2898.6 69.3764V67.5H2897ZM2822 55.5L2822.25 53.9201L2820.92 53.7075L2820.49 54.9799L2822 55.5ZM2816.5 71.5L2814.99 70.9799L2814.9 71.2327V71.5H2816.5ZM2816.5 327.5V329.1H2818.1V327.5H2816.5ZM2793 327.5H2791.4V329.1H2793V327.5ZM2793 179H2794.6V178.144L2793.89 177.669L2793 179ZM2767.5 162L2768.39 160.669L2767.98 160.4H2767.5V162ZM2754 162V160.4H2753.29L2752.82 160.922L2754 162ZM2738.5 179H2736.9V183.13L2739.68 180.078L2738.5 179ZM2738.5 152H2740.1V150.4H2738.5V152ZM2733.5 152H2731.9V153.6H2733.5V152ZM2733.5 89.5H2735.1V87.7092L2733.32 87.9101L2733.5 89.5ZM2702.5 93H2700.9V94.7908L2702.68 94.5899L2702.5 93ZM2702.5 77H2704.1V75.4H2702.5V77ZM2698.5 77H2696.9V78.6H2698.5V77ZM2698.5 59.5V57.9H2696.9V59.5H2698.5ZM2702.5 59.5V61.1H2704.1V59.5H2702.5ZM2702.5 41.5H2704.1V39.951L2702.55 39.9008L2702.5 41.5ZM2610 38.5L2610.05 36.9008L2609.91 36.8964L2609.78 36.9154L2610 38.5ZM2588.5 41.5L2588.28 39.9154L2586.9 40.1078V41.5H2588.5ZM2588.5 46.5H2586.9V48.1H2588.5V46.5ZM2592 46.5H2593.6V44.9H2592V46.5ZM2592 67.5V69.1H2593.6V67.5H2592ZM2583 67.5V65.9H2581.28L2581.4 67.6147L2583 67.5ZM2588.5 144V145.6H2590.22L2590.1 143.885L2588.5 144ZM2576.5 144V142.4H2574.85L2574.9 144.053L2576.5 144ZM2580.5 264V265.6H2582.15L2582.1 263.947L2580.5 264ZM2561.5 264V262.4H2559.9V264H2561.5ZM2561.5 295.5L2559.9 295.606L2563.1 295.5H2561.5ZM2556.5 220L2558.1 219.894L2558 218.4H2556.5V220ZM2547 220V218.4H2546.6L2546.25 218.588L2547 220ZM2539.5 224L2538.14 224.848L2538.93 226.115L2540.25 225.412L2539.5 224ZM2537 220L2538.36 219.152L2537.97 218.527L2537.24 218.418L2537 220ZM2517 217H2515.4V218.378L2516.76 218.582L2517 217ZM2517 195H2518.6V193.4H2517V195ZM2494.5 195H2492.9V196.6H2494.5V195ZM2494.5 141.5V139.9H2492.9V141.5H2494.5ZM2498 141.5V143.1H2499.6V141.5H2498ZM2498 136H2499.6V134.336L2497.94 134.401L2498 136ZM2421.5 139L2421.1 140.548L2421.33 140.608L2421.56 140.599L2421.5 139ZM2410 136L2410.4 134.452L2408.4 133.929V136H2410ZM2410 287.5L2409.42 288.99L2411.6 289.843V287.5H2410ZM2378 275L2378.58 273.51L2378.3 273.4H2378V275ZM2312.5 275H2310.9V276.6H2312.5V275ZM2312.5 264H2314.1V262.235L2312.34 262.408L2312.5 264ZM2287 266.5L2286.84 264.908L2285.4 265.049V266.5H2287ZM2287 275V276.6H2288.6V275H2287ZM2244 275V273.4H2242.4V275H2244ZM2244 283.5V285.1H2245.6V283.5H2244ZM2225 283.5H2223.4V285.1H2225V283.5ZM2225 269H2226.6V268.059L2225.78 267.601L2225 269ZM2220.5 266.5H2218.9V267.441L2219.72 267.899L2220.5 266.5ZM2220.5 179H2222.1V178.245L2221.52 177.765L2220.5 179ZM2212 172L2213.02 170.765L2212.57 170.4H2212V172ZM2196 172V170.4H2195.43L2194.98 170.765L2196 172ZM2187.5 179V180.6H2188.07L2188.52 180.235L2187.5 179ZM2184 179V177.4H2182.4V179H2184ZM2184 228.5V230.1H2185.6V228.5H2184ZM2178.5 228.5H2176.9V230.1H2178.5V228.5ZM2178.5 213.5H2180.1V211.968L2178.57 211.901L2178.5 213.5ZM2109 210.5H2107.4V212.032L2108.93 212.099L2109 210.5ZM2109 163.5H2110.6V161.9H2109V163.5ZM2106 163.5H2104.4V165.1H2106V163.5ZM2106 107H2107.6V105.4H2106V107ZM2104 107H2102.4V108.6H2104V107ZM2104 56.5H2105.6V54.9H2104V56.5ZM2102 56.5V54.9H2100.9L2100.51 55.9286L2102 56.5ZM2095.5 73.5L2094.01 72.9286L2093.9 73.2045V73.5H2095.5ZM2095.5 103.5H2093.9V105.1H2095.5V103.5ZM2096.5 103.5H2098.1V101.9H2096.5V103.5ZM2096.5 107V108.6H2098.1V107H2096.5ZM2095.5 107V105.4H2093.9V107H2095.5ZM2095.5 163.5V165.1H2097.1V163.5H2095.5ZM2092.5 163.5V161.9H2090.9V163.5H2092.5ZM2092.5 213.5V215.1H2094.1V213.5H2092.5ZM2058.5 213.5V211.9H2056.9V213.5H2058.5ZM2058.5 343V344.6H2060.1V343H2058.5ZM1966.5 343L1966.42 344.598L1966.46 344.6H1966.5V343ZM1882 339L1881.76 340.582L1881.84 340.594L1881.92 340.598L1882 339ZM1799.75 326.5L1799.41 328.062L1799.46 328.074L1799.51 328.082L1799.75 326.5ZM1726.6 310.354L1726.26 311.916L1726.6 310.354ZM1724.43 308.46L1725.93 307.908V307.908L1724.43 308.46ZM1682.13 193.526L1683.63 192.974H1683.63L1682.13 193.526ZM1678.34 137.362L1676.78 137.016L1678.34 137.362ZM1703.97 21.662L1702.41 21.316V21.3161L1703.97 21.662ZM1701.37 20.0987L1702.41 21.3161V21.316L1701.37 20.0987ZM1689.42 30.2847L1690.46 31.502V31.502L1689.42 30.2847ZM1687.52 33.3101L1685.97 32.8995V32.8995L1687.52 33.3101ZM1684.81 43.5L1686.36 43.9106V43.9105L1684.81 43.5ZM1673.59 85.7698L1672.05 85.3592L1672.05 85.3593L1673.59 85.7698ZM1639.44 85.7215L1637.88 86.1064V86.1064L1639.44 85.7215ZM1626.49 33.4616L1624.93 33.8464L1624.93 33.8465L1626.49 33.4616ZM1624.43 30.2322L1623.42 31.4782L1623.42 31.4782L1624.43 30.2322ZM1611.59 19.891L1610.59 21.137V21.137L1611.59 19.891ZM1609.03 21.493L1610.59 21.137V21.137L1609.03 21.493ZM1635.41 137.13L1636.97 136.774V136.774L1635.41 137.13ZM1631.81 193.802L1630.3 193.251L1631.81 193.802ZM1582.1 329.351L1583.61 329.902V329.902L1582.1 329.351ZM1579.77 331.28L1579.51 329.7L1579.77 331.28ZM1364.5 366H1362.9V367.879L1364.75 367.58L1364.5 366ZM1364.5 91.5H1366.1V90.0607L1364.67 89.9089L1364.5 91.5ZM1331.5 88H1329.9V89.4393L1331.33 89.5911L1331.5 88ZM1331.5 83H1333.1V81.4H1331.5V83ZM1321.5 83H1319.9V84.6H1321.5V83ZM1321.5 74.5H1323.1V72.9H1321.5V74.5ZM1269.5 74.5V72.9H1267.9V74.5H1269.5ZM1269.5 91.5V93.1H1271.1V91.5H1269.5ZM1230 91.5V89.9H1228.4V91.5H1230ZM1230 249.5V251.1H1231.6V249.5H1230ZM1224 249.5H1222.4V251.1H1224V249.5ZM1224 205H1225.6V203.889L1224.56 203.501L1224 205ZM1198.5 195.5L1199.06 194.001L1198.73 193.877L1198.37 193.905L1198.5 195.5ZM1160.5 198.5H1158.9V200.231L1160.63 200.095L1160.5 198.5ZM1160.5 139.5H1162.1V138.754L1161.53 138.275L1160.5 139.5ZM1148 129H1146.4V129.746L1146.97 130.225L1148 129ZM1148 110.5H1149.6V110.215L1149.5 109.947L1148 110.5ZM1141 91.5L1142.5 90.9469L1142.16 90.0267L1141.19 89.9111L1141 91.5ZM1111.5 88H1109.9V89.4214L1111.31 89.5889L1111.5 88ZM1111.5 83H1113.1V81.4H1111.5V83ZM1064.5 83V81.4H1064.23L1063.98 81.4874L1064.5 83ZM1050 88L1049.48 86.4874L1048.4 86.8593V88H1050ZM1050 150V151.6H1051.6V150H1050ZM1016 150V148.4H1014.4V150H1016ZM1016 289V290.6H1017.6V289H1016ZM1012 289H1010.4V290.6H1012V289ZM1012 129H1013.6V128.877L1013.58 128.755L1012 129ZM993 6.5L994.581 6.25477L994.382 4.97217L993.086 4.90232L993 6.5ZM909.5 2L909.586 0.402318L909.193 0.381128L908.835 0.544841L909.5 2ZM892 10L891.335 8.54484L890.4 8.97217V10H892ZM892 83V84.6H893.6V83H892ZM888 83V81.4H886.4V83H888ZM888 167.5V169.1H889.6V167.5H888ZM868 167.5V165.9H866.4V167.5H868ZM868 177V178.6H869.6V177H868ZM863 177V175.4H861.4V177H863ZM863 205V206.6H864.6V205H863ZM839 205L837.637 205.839L838.106 206.6H839V205ZM835 198.5L836.363 197.661L835.894 196.9H835V198.5ZM813 198.5L811.611 199.294L812.071 200.1H813V198.5ZM809 191.5L810.389 190.706L809.929 189.9H809V191.5ZM804 191.5V189.9H803.575L803.206 190.111L804 191.5ZM797 195.5V197.1H797.425L797.794 196.889L797 195.5ZM770.5 195.5V193.9H770.122L769.784 194.069L770.5 195.5ZM758.5 201.5L757.784 200.069L756.9 200.511V201.5H758.5ZM758.5 263.5V265.1H760.1V263.5H758.5ZM734.5 263.5H732.9V265.1H734.5V263.5ZM734.5 219.5H736.1V217.9H734.5V219.5ZM722 219.5H720.4V221.1H722V219.5ZM722 208.5H723.6V208.265L723.533 208.04L722 208.5ZM719 198.5L720.533 198.04L719.373 194.176L717.569 197.784L719 198.5ZM714 208.5V210.1H714.989L715.431 209.216L714 208.5ZM688.5 208.5H686.9V210.1H688.5V208.5ZM688.5 177H690.1V175.4H688.5V177ZM672.5 177H670.9V178.6H672.5V177ZM672.5 110.5H674.1V108.9H672.5V110.5ZM657 110.5H655.4V112.1H657V110.5ZM657 95.5H658.6V93.9H657V95.5ZM573.5 95.5V93.9H571.9V95.5H573.5ZM573.5 110.5V112.1H575.1V110.5H573.5ZM542.5 110.5V108.9H540.9V110.5H542.5ZM542.5 150V151.6H544.1V150H542.5ZM530.5 150H528.9V151.6H530.5V150ZM530.5 139.5H532.1V137.9H530.5V139.5ZM510.5 139.5V137.9H508.9V139.5H510.5ZM510.5 263.5V265.1H512.1V263.5H510.5ZM503 263.5H501.4V265.1H503V263.5ZM503 215H504.6V213.4H503V215ZM497.5 215H495.9V216.6H497.5V215ZM497.5 195.5H499.1V193.365L497.051 193.964L497.5 195.5ZM477 201.5H475.4V203.635L477.449 203.036L477 201.5ZM477 58.5H478.6V56.3119L476.515 56.9753L477 58.5ZM466 62L465.082 63.3108L465.731 63.7647L466.485 63.5247L466 62ZM461 58.5L461.918 57.1892L461.504 56.9H461V58.5ZM391.5 58.5V56.9L390.901 59.9836L391.5 58.5ZM417.5 69H419.1V67.9206L418.099 67.5164L417.5 69ZM417.5 83V84.6H419.1V83H417.5ZM402 83H400.4V84.6H402V83ZM402 78.5H403.6V77.2392L402.374 76.9444L402 78.5ZM362.5 69L362.874 67.4444L360.9 66.9696V69H362.5ZM362.5 191.5V193.1H364.1V191.5H362.5ZM324.5 191.5H322.9V193.1H324.5V191.5ZM324.5 98.5H326.1V98.2594L326.029 98.0295L324.5 98.5ZM322.5 92L324.029 91.5295L323.904 91.1239L323.595 90.8335L322.5 92ZM298 69L299.095 67.8335L298.633 67.4H298V69ZM281 69V67.4H280.357L279.893 67.8448L281 69ZM257 92L255.893 90.8448L255.4 91.3172V92H257ZM257 100.5V102.1H258.6V100.5H257ZM250.5 100.5V98.9H248.9V100.5H250.5ZM250.5 105H248.9V106.6H250.5V105ZM254 105H255.6V103.4H254V105ZM254 117.5V119.1H255.6V117.5H254ZM250.5 117.5V115.9H248.9V117.5H250.5ZM250.5 211.5V213.1H252.1V211.5H250.5ZM195.5 211.5H193.9V213.1H195.5V211.5ZM195.5 144.5H197.1V143.417L196.094 143.014L195.5 144.5ZM193 143.5H191.4V144.583L192.406 144.986L193 143.5ZM193 136.5H194.6V134.9H193V136.5ZM190.5 136.5H188.9V138.1H190.5V136.5ZM190.5 110.5H192.1V109.789L191.573 109.313L190.5 110.5ZM164.5 87L165.573 85.813L165.116 85.4H164.5V87ZM144 87V85.4H143.384L142.927 85.813L144 87ZM118 110.5L116.927 109.313L116.4 109.789V110.5H118ZM118 128V129.6H119.6V128H118ZM114.5 128V126.4H112.9V128H114.5ZM114.5 136.5V138.1H116.1V136.5H114.5ZM111 136.5V134.9H109.4V136.5H111ZM111 232V233.6H112.6V232H111ZM107 232H105.4V233.6H107V232ZM107 198V196.4H105.4V198H107ZM109 198V199.6H110.6V198H109ZM109 194H110.6V192.4H109V194ZM107 194H105.4V195.6H107V194ZM107 182.5H108.6V182.474L108.599 182.448L107 182.5ZM92.5 167V165.4H92.1682L91.8638 165.532L92.5 167ZM77.5 173.5H75.9V175.937L78.1362 174.968L77.5 173.5ZM77.5 154.5H79.1V153.259L77.8985 152.95L77.5 154.5ZM60 150L60.3985 148.45L58.4 147.937V150H60ZM60 157V158.6H61.6V157H60ZM54 157V155.4H52.4V157H54ZM54 162.5L55.1757 163.585L55.6 163.126V162.5H54ZM48 169L46.8243 167.915L46.4 168.374V169H48ZM48 195.5V197.1H49.6V195.5H48ZM45 195.5V193.9H43.4V195.5H45ZM45 232V233.6H46.6V232H45ZM41.5 232L40.0191 232.606L40.4258 233.6H41.5V232ZM37 221L38.4809 220.394L38.0742 219.4H37V221ZM23 221V219.4H22.1709L21.6929 220.077L23 221ZM17 229.5H15.4V234.541L18.3071 230.423L17 229.5ZM17 222.5H18.6V219.988L16.3234 221.05L17 222.5ZM9.5 226L8.82338 224.55L7.9 224.981V226H9.5ZM1642.81 104.653L1644.38 104.305V104.305L1642.81 104.653ZM1653.67 153.311L1655.23 152.963V152.963L1653.67 153.311ZM1659.52 153.354L1661.07 153.725V153.725L1659.52 153.354ZM1671.12 104.696L1672.68 105.067V105.067L1671.12 104.696ZM1605.22 321.863L1606.74 322.37L1605.22 321.863ZM1653.63 177.07L1655.15 177.577V177.577L1653.63 177.07ZM1608.77 325.731L1608.39 324.175L1608.77 325.731ZM1697.83 304.263L1697.46 302.708L1697.83 304.263ZM1699.98 300.407L1701.5 299.906V299.906L1699.98 300.407ZM1659.33 177.082L1660.85 176.581V176.581L1659.33 177.082ZM6.71553 237.931C6.66797 237.955 6.7168 237.922 6.9354 237.899C7.13178 237.878 7.38175 237.874 7.668 237.886C8.24232 237.911 8.83455 237.999 9.1862 238.069L9.8138 234.931C9.33212 234.835 8.57435 234.722 7.807 234.689C7.42242 234.672 7.00364 234.674 6.59897 234.717C6.21654 234.757 5.73203 234.845 5.28447 235.069L6.71553 237.931ZM2 238.1H6V234.9H2V238.1ZM3.6 576V236.5H0.4V576H3.6ZM3330 574.4H2V577.6H3330V574.4ZM3328.4 269V576H3331.6V269H3328.4ZM3321.5 270.6H3330V267.4H3321.5V270.6ZM3319.9 162V269H3323.1V162H3319.9ZM3313.66 152.872L3320.16 162.872L3322.84 161.128L3316.34 151.128L3313.66 152.872ZM3249.5 153.6H3315V150.4H3249.5V153.6ZM3239.58 163.184L3250.58 153.184L3248.42 150.816L3237.42 160.816L3239.58 163.184ZM3240.1 213.5V162H3236.9V213.5H3240.1ZM3217.5 215.1H3238.5V211.9H3217.5V215.1ZM3215.9 162V213.5H3219.1V162H3215.9ZM3190.44 153.497L3216.94 163.497L3218.06 160.503L3191.56 150.503L3190.44 153.497ZM3166.59 163.486L3191.59 153.486L3190.41 150.514L3165.41 160.514L3166.59 163.486ZM3173.1 249.4L3167.6 161.9L3164.4 162.1L3169.9 249.6L3173.1 249.4ZM3144 251.1H3171.5V247.9H3144V251.1ZM3145.6 255.5V249.5H3142.4V255.5H3145.6ZM3110.5 257.1H3144V253.9H3110.5V257.1ZM3112.1 287.5V255.5H3108.9V287.5H3112.1ZM3069 289.1H3110.5V285.9H3069V289.1ZM3070.6 310.5V287.5H3067.4V310.5H3070.6ZM3022.5 312.1H3069V308.9H3022.5V312.1ZM2999.43 318.542L3022.93 312.042L3022.07 308.958L2998.57 315.458L2999.43 318.542ZM3000.6 327.5V317H2997.4V327.5H3000.6ZM2977.5 329.1H2999V325.9H2977.5V329.1ZM2957.5 329.1H2977.5V325.9H2957.5V329.1ZM2955.9 260.5V327.5H2959.1V260.5H2955.9ZM2948.5 262.1H2957.5V258.9H2948.5V262.1ZM2946.9 77V260.5H2950.1V77H2946.9ZM2921.67 73.0666L2948.17 78.5666L2948.83 75.4334L2922.33 69.9334L2921.67 73.0666ZM2920.4 67.5V71.5H2923.6V67.5H2920.4ZM2896.51 61.0239L2921.51 69.0239L2922.49 65.9761L2897.49 57.9761L2896.51 61.0239ZM2898.6 67.5V59.5H2895.4V67.5H2898.6ZM2821.75 57.0799L2896.75 69.0799L2897.25 65.9201L2822.25 53.9201L2821.75 57.0799ZM2818.01 72.0201L2823.51 56.0201L2820.49 54.9799L2814.99 70.9799L2818.01 72.0201ZM2818.1 327.5V71.5H2814.9V327.5H2818.1ZM2793 329.1H2816.5V325.9H2793V329.1ZM2791.4 179V327.5H2794.6V179H2791.4ZM2766.61 163.331L2792.11 180.331L2793.89 177.669L2768.39 160.669L2766.61 163.331ZM2754 163.6H2767.5V160.4H2754V163.6ZM2739.68 180.078L2755.18 163.078L2752.82 160.922L2737.32 177.922L2739.68 180.078ZM2736.9 152V179H2740.1V152H2736.9ZM2733.5 153.6H2738.5V150.4H2733.5V153.6ZM2731.9 89.5V152H2735.1V89.5H2731.9ZM2702.68 94.5899L2733.68 91.0899L2733.32 87.9101L2702.32 91.4101L2702.68 94.5899ZM2700.9 77V93H2704.1V77H2700.9ZM2698.5 78.6H2702.5V75.4H2698.5V78.6ZM2696.9 59.5V77H2700.1V59.5H2696.9ZM2702.5 57.9H2698.5V61.1H2702.5V57.9ZM2700.9 41.5V59.5H2704.1V41.5H2700.9ZM2609.95 40.0992L2702.45 43.0992L2702.55 39.9008L2610.05 36.9008L2609.95 40.0992ZM2588.72 43.0846L2610.22 40.0846L2609.78 36.9154L2588.28 39.9154L2588.72 43.0846ZM2590.1 46.5V41.5H2586.9V46.5H2590.1ZM2592 44.9H2588.5V48.1H2592V44.9ZM2593.6 67.5V46.5H2590.4V67.5H2593.6ZM2583 69.1H2592V65.9H2583V69.1ZM2590.1 143.885L2584.6 67.3853L2581.4 67.6147L2586.9 144.115L2590.1 143.885ZM2576.5 145.6H2588.5V142.4H2576.5V145.6ZM2582.1 263.947L2578.1 143.947L2574.9 144.053L2578.9 264.053L2582.1 263.947ZM2561.5 265.6H2580.5V262.4H2561.5V265.6ZM2563.1 295.5V264H2559.9V295.5H2563.1ZM2554.9 220.106L2559.9 295.606L2563.1 295.394L2558.1 219.894L2554.9 220.106ZM2547 221.6H2556.5V218.4H2547V221.6ZM2540.25 225.412L2547.75 221.412L2546.25 218.588L2538.75 222.588L2540.25 225.412ZM2535.64 220.848L2538.14 224.848L2540.86 223.152L2538.36 219.152L2535.64 220.848ZM2516.76 218.582L2536.76 221.582L2537.24 218.418L2517.24 215.418L2516.76 218.582ZM2515.4 195V217H2518.6V195H2515.4ZM2494.5 196.6H2517V193.4H2494.5V196.6ZM2492.9 141.5V195H2496.1V141.5H2492.9ZM2498 139.9H2494.5V143.1H2498V139.9ZM2496.4 136V141.5H2499.6V136H2496.4ZM2421.56 140.599L2498.06 137.599L2497.94 134.401L2421.44 137.401L2421.56 140.599ZM2409.6 137.548L2421.1 140.548L2421.9 137.452L2410.4 134.452L2409.6 137.548ZM2411.6 287.5V136H2408.4V287.5H2411.6ZM2377.42 276.49L2409.42 288.99L2410.58 286.01L2378.58 273.51L2377.42 276.49ZM2312.5 276.6H2378V273.4H2312.5V276.6ZM2310.9 264V275H2314.1V264H2310.9ZM2287.16 268.092L2312.66 265.592L2312.34 262.408L2286.84 264.908L2287.16 268.092ZM2288.6 275V266.5H2285.4V275H2288.6ZM2244 276.6H2287V273.4H2244V276.6ZM2245.6 283.5V275H2242.4V283.5H2245.6ZM2225 285.1H2244V281.9H2225V285.1ZM2223.4 269V283.5H2226.6V269H2223.4ZM2219.72 267.899L2224.22 270.399L2225.78 267.601L2221.28 265.101L2219.72 267.899ZM2218.9 179V266.5H2222.1V179H2218.9ZM2210.98 173.235L2219.48 180.235L2221.52 177.765L2213.02 170.765L2210.98 173.235ZM2196 173.6H2212V170.4H2196V173.6ZM2188.52 180.235L2197.02 173.235L2194.98 170.765L2186.48 177.765L2188.52 180.235ZM2184 180.6H2187.5V177.4H2184V180.6ZM2185.6 228.5V179H2182.4V228.5H2185.6ZM2178.5 230.1H2184V226.9H2178.5V230.1ZM2176.9 213.5V228.5H2180.1V213.5H2176.9ZM2108.93 212.099L2178.43 215.099L2178.57 211.901L2109.07 208.901L2108.93 212.099ZM2107.4 163.5V210.5H2110.6V163.5H2107.4ZM2106 165.1H2109V161.9H2106V165.1ZM2104.4 107V163.5H2107.6V107H2104.4ZM2104 108.6H2106V105.4H2104V108.6ZM2102.4 99.5V107H2105.6V99.5H2102.4ZM2102.4 83V99.5H2105.6V83H2102.4ZM2102.4 56.5V83H2105.6V56.5H2102.4ZM2102 58.1H2104V54.9H2102V58.1ZM2096.99 74.0714L2103.49 57.0714L2100.51 55.9286L2094.01 72.9286L2096.99 74.0714ZM2097.1 103.5V73.5H2093.9V103.5H2097.1ZM2096.5 101.9H2095.5V105.1H2096.5V101.9ZM2098.1 107V103.5H2094.9V107H2098.1ZM2095.5 108.6H2096.5V105.4H2095.5V108.6ZM2097.1 163.5V107H2093.9V163.5H2097.1ZM2092.5 165.1H2095.5V161.9H2092.5V165.1ZM2094.1 213.5V163.5H2090.9V213.5H2094.1ZM2058.5 215.1H2092.5V211.9H2058.5V215.1ZM2060.1 343V213.5H2056.9V343H2060.1ZM1966.5 344.6H2058.5V341.4H1966.5V344.6ZM1881.92 340.598L1966.42 344.598L1966.58 341.402L1882.08 337.402L1881.92 340.598ZM1799.51 328.082L1881.76 340.582L1882.24 337.418L1799.99 324.918L1799.51 328.082ZM1726.26 311.916L1799.41 328.062L1800.09 324.938L1726.95 308.791L1726.26 311.916ZM1722.93 309.013C1723.47 310.484 1724.73 311.578 1726.26 311.916L1726.95 308.791C1726.48 308.688 1726.1 308.355 1725.93 307.908L1722.93 309.013ZM1680.63 194.079L1722.93 309.013L1725.93 307.908L1683.63 192.974L1680.63 194.079ZM1676.78 137.016C1672.57 156.013 1673.91 175.819 1680.63 194.079L1683.63 192.974C1677.12 175.289 1675.83 156.107 1679.9 137.708L1676.78 137.016ZM1702.41 21.3161L1676.78 137.016L1679.9 137.708L1705.53 22.008L1702.41 21.3161ZM1702.41 21.316C1702.41 21.3089 1702.42 21.3056 1702.42 21.3046C1702.42 21.3035 1702.42 21.304 1702.42 21.3051C1702.42 21.3061 1702.41 21.3073 1702.41 21.3082C1702.4 21.3091 1702.4 21.3095 1702.4 21.3097C1702.39 21.3101 1702.39 21.3091 1702.39 21.3097C1702.39 21.3104 1702.4 21.3123 1702.41 21.3161C1702.41 21.3198 1702.42 21.3236 1702.42 21.3256C1702.42 21.3274 1702.42 21.3259 1702.41 21.3199C1702.41 21.3169 1702.41 21.3133 1702.41 21.3092C1702.41 21.3051 1702.41 21.3014 1702.41 21.2986C1702.41 21.2958 1702.41 21.2951 1702.41 21.2971C1702.41 21.2991 1702.41 21.3053 1702.41 21.316L1705.53 22.0081C1706.19 19.0105 1702.66 16.889 1700.33 18.8814L1702.41 21.316ZM1690.46 31.502L1702.41 21.3161L1700.33 18.8814L1688.39 29.0673L1690.46 31.502ZM1689.07 33.7207C1689.3 32.8563 1689.78 32.0824 1690.46 31.502L1688.39 29.0673C1687.21 30.0698 1686.37 31.4065 1685.97 32.8995L1689.07 33.7207ZM1686.36 43.9105L1689.07 33.7206L1685.97 32.8995L1683.27 43.0895L1686.36 43.9105ZM1675.14 86.1804L1686.36 43.9106L1683.27 43.0894L1672.05 85.3592L1675.14 86.1804ZM1670.69 89.6C1672.78 89.6 1674.6 88.1964 1675.14 86.1803L1672.05 85.3593C1671.88 85.9728 1671.33 86.4 1670.69 86.4V89.6ZM1642.35 89.6H1670.69V86.4H1642.35V89.6ZM1637.88 86.1064C1638.39 88.1587 1640.23 89.6 1642.35 89.6V86.4C1641.7 86.4 1641.14 85.9613 1640.99 85.3367L1637.88 86.1064ZM1624.93 33.8465L1637.88 86.1064L1640.99 85.3367L1628.04 33.0768L1624.93 33.8465ZM1623.42 31.4782C1624.17 32.0814 1624.7 32.9132 1624.93 33.8464L1628.04 33.0769C1627.64 31.4648 1626.72 30.028 1625.43 28.9861L1623.42 31.4782ZM1610.59 21.137L1623.42 31.4782L1625.43 28.9862L1612.59 18.645L1610.59 21.137ZM1610.59 21.137L1610.59 21.137L1612.59 18.6451C1610.23 16.741 1606.79 18.8898 1607.47 21.849L1610.59 21.137ZM1636.97 136.774L1610.59 21.137L1607.47 21.8489L1633.85 137.486L1636.97 136.774ZM1633.31 194.353C1640.07 175.917 1641.34 155.918 1636.97 136.774L1633.85 137.486C1638.08 156.027 1636.85 175.396 1630.3 193.251L1633.31 194.353ZM1583.61 329.902L1633.31 194.353L1630.3 193.251L1580.6 328.8L1583.61 329.902ZM1580.02 332.859C1581.66 332.594 1583.03 331.463 1583.61 329.902L1580.6 328.8C1580.43 329.275 1580.01 329.62 1579.51 329.7L1580.02 332.859ZM1364.75 367.58L1580.02 332.859L1579.51 329.7L1364.25 364.42L1364.75 367.58ZM1362.9 91.5V366H1366.1V91.5H1362.9ZM1331.33 89.5911L1364.33 93.0911L1364.67 89.9089L1331.67 86.4089L1331.33 89.5911ZM1329.9 83V88H1333.1V83H1329.9ZM1321.5 84.6H1331.5V81.4H1321.5V84.6ZM1319.9 74.5V83H1323.1V74.5H1319.9ZM1269.5 76.1H1321.5V72.9H1269.5V76.1ZM1271.1 91.5V74.5H1267.9V91.5H1271.1ZM1230 93.1H1269.5V89.9H1230V93.1ZM1231.6 249.5V91.5H1228.4V249.5H1231.6ZM1224 251.1H1230V247.9H1224V251.1ZM1222.4 205V249.5H1225.6V205H1222.4ZM1197.94 196.999L1223.44 206.499L1224.56 203.501L1199.06 194.001L1197.94 196.999ZM1160.63 200.095L1198.63 197.095L1198.37 193.905L1160.37 196.905L1160.63 200.095ZM1158.9 139.5V198.5H1162.1V139.5H1158.9ZM1146.97 130.225L1159.47 140.725L1161.53 138.275L1149.03 127.775L1146.97 130.225ZM1146.4 110.5V129H1149.6V110.5H1146.4ZM1139.5 92.0531L1146.5 111.053L1149.5 109.947L1142.5 90.9469L1139.5 92.0531ZM1111.31 89.5889L1140.81 93.0889L1141.19 89.9111L1111.69 86.4111L1111.31 89.5889ZM1109.9 83V88H1113.1V83H1109.9ZM1064.5 84.6H1111.5V81.4H1064.5V84.6ZM1050.52 89.5126L1065.02 84.5126L1063.98 81.4874L1049.48 86.4874L1050.52 89.5126ZM1051.6 150V88H1048.4V150H1051.6ZM1016 151.6H1050V148.4H1016V151.6ZM1017.6 289V150H1014.4V289H1017.6ZM1012 290.6H1016V287.4H1012V290.6ZM1010.4 129V289H1013.6V129H1010.4ZM991.419 6.74523L1010.42 129.245L1013.58 128.755L994.581 6.25477L991.419 6.74523ZM909.414 3.59768L992.914 8.09768L993.086 4.90232L909.586 0.402318L909.414 3.59768ZM892.665 11.4552L910.165 3.45516L908.835 0.544841L891.335 8.54484L892.665 11.4552ZM893.6 83V10H890.4V83H893.6ZM888 84.6H892V81.4H888V84.6ZM889.6 167.5V83H886.4V167.5H889.6ZM868 169.1H888V165.9H868V169.1ZM869.6 177V167.5H866.4V177H869.6ZM863 178.6H868V175.4H863V178.6ZM864.6 205V177H861.4V205H864.6ZM839 206.6H863V203.4H839V206.6ZM833.637 199.339L837.637 205.839L840.363 204.161L836.363 197.661L833.637 199.339ZM813 200.1H835V196.9H813V200.1ZM807.611 192.294L811.611 199.294L814.389 197.706L810.389 190.706L807.611 192.294ZM804 193.1H809V189.9H804V193.1ZM797.794 196.889L804.794 192.889L803.206 190.111L796.206 194.111L797.794 196.889ZM770.5 197.1H797V193.9H770.5V197.1ZM759.216 202.931L771.216 196.931L769.784 194.069L757.784 200.069L759.216 202.931ZM760.1 263.5V201.5H756.9V263.5H760.1ZM734.5 265.1H758.5V261.9H734.5V265.1ZM732.9 219.5V263.5H736.1V219.5H732.9ZM722 221.1H734.5V217.9H722V221.1ZM720.4 208.5V219.5H723.6V208.5H720.4ZM717.467 198.96L720.467 208.96L723.533 208.04L720.533 198.04L717.467 198.96ZM715.431 209.216L720.431 199.216L717.569 197.784L712.569 207.784L715.431 209.216ZM697.5 210.1H714V206.9H697.5V210.1ZM688.5 210.1H697.5V206.9H688.5V210.1ZM686.9 177V208.5H690.1V177H686.9ZM672.5 178.6H688.5V175.4H672.5V178.6ZM670.9 110.5V177H674.1V110.5H670.9ZM657 112.1H672.5V108.9H657V112.1ZM655.4 95.5V110.5H658.6V95.5H655.4ZM573.5 97.1H657V93.9H573.5V97.1ZM575.1 110.5V95.5H571.9V110.5H575.1ZM542.5 112.1H573.5V108.9H542.5V112.1ZM544.1 150V110.5H540.9V150H544.1ZM530.5 151.6H542.5V148.4H530.5V151.6ZM528.9 139.5V150H532.1V139.5H528.9ZM510.5 141.1H530.5V137.9H510.5V141.1ZM512.1 263.5V139.5H508.9V263.5H512.1ZM503 265.1H510.5V261.9H503V265.1ZM501.4 215V263.5H504.6V215H501.4ZM497.5 216.6H503V213.4H497.5V216.6ZM495.9 195.5V215H499.1V195.5H495.9ZM477.449 203.036L497.949 197.036L497.051 193.964L476.551 199.964L477.449 203.036ZM475.4 58.5V201.5H478.6V58.5H475.4ZM466.485 63.5247L477.485 60.0247L476.515 56.9753L465.515 60.4753L466.485 63.5247ZM460.082 59.8108L465.082 63.3108L466.918 60.6892L461.918 57.1892L460.082 59.8108ZM391.5 60.1H461V56.9H391.5V60.1ZM418.099 67.5164L392.099 57.0164L390.901 59.9836L416.901 70.4836L418.099 67.5164ZM419.1 83V69H415.9V83H419.1ZM402 84.6H417.5V81.4H402V84.6ZM400.4 78.5V83H403.6V78.5H400.4ZM362.126 70.5556L401.626 80.0556L402.374 76.9444L362.874 67.4444L362.126 70.5556ZM364.1 191.5V69H360.9V191.5H364.1ZM324.5 193.1H362.5V189.9H324.5V193.1ZM322.9 98.5V191.5H326.1V98.5H322.9ZM320.971 92.4705L322.971 98.9705L326.029 98.0295L324.029 91.5295L320.971 92.4705ZM296.905 70.1665L321.405 93.1665L323.595 90.8335L299.095 67.8335L296.905 70.1665ZM281 70.6H298V67.4H281V70.6ZM258.107 93.1552L282.107 70.1552L279.893 67.8448L255.893 90.8448L258.107 93.1552ZM258.6 100.5V92H255.4V100.5H258.6ZM250.5 102.1H257V98.9H250.5V102.1ZM252.1 105V100.5H248.9V105H252.1ZM254 103.4H250.5V106.6H254V103.4ZM255.6 117.5V105H252.4V117.5H255.6ZM250.5 119.1H254V115.9H250.5V119.1ZM252.1 211.5V117.5H248.9V211.5H252.1ZM195.5 213.1H250.5V209.9H195.5V213.1ZM193.9 147V211.5H197.1V147H193.9ZM193.9 144.5V147H197.1V144.5H193.9ZM192.406 144.986L194.906 145.986L196.094 143.014L193.594 142.014L192.406 144.986ZM191.4 136.5V143.5H194.6V136.5H191.4ZM190.5 138.1H193V134.9H190.5V138.1ZM188.9 110.5V136.5H192.1V110.5H188.9ZM163.427 88.187L189.427 111.687L191.573 109.313L165.573 85.813L163.427 88.187ZM144 88.6H164.5V85.4H144V88.6ZM119.073 111.687L145.073 88.187L142.927 85.813L116.927 109.313L119.073 111.687ZM119.6 128V110.5H116.4V128H119.6ZM114.5 129.6H118V126.4H114.5V129.6ZM116.1 136.5V128H112.9V136.5H116.1ZM111 138.1H114.5V134.9H111V138.1ZM112.6 232V136.5H109.4V232H112.6ZM107 233.6H111V230.4H107V233.6ZM105.4 198V232H108.6V198H105.4ZM109 196.4H107V199.6H109V196.4ZM107.4 194V198H110.6V194H107.4ZM107 195.6H109V192.4H107V195.6ZM105.4 182.5V194H108.6V182.5H105.4ZM92.5 168.6C97.5119 168.6 100.625 170.871 102.566 173.715C104.56 176.635 105.325 180.195 105.401 182.552L108.599 182.448C108.509 179.638 107.624 175.448 105.209 171.91C102.742 168.296 98.6881 165.4 92.5 165.4V168.6ZM78.1362 174.968L93.1362 168.468L91.8638 165.532L76.8638 172.032L78.1362 174.968ZM75.9 154.5V173.5H79.1V154.5H75.9ZM59.6015 151.55L77.1015 156.05L77.8985 152.95L60.3985 148.45L59.6015 151.55ZM61.6 157V150H58.4V157H61.6ZM54 158.6H60V155.4H54V158.6ZM55.6 162.5V157H52.4V162.5H55.6ZM49.1757 170.085L55.1757 163.585L52.8243 161.415L46.8243 167.915L49.1757 170.085ZM49.6 195.5V169H46.4V195.5H49.6ZM45 197.1H48V193.9H45V197.1ZM46.6 232V195.5H43.4V232H46.6ZM41.5 233.6H45V230.4H41.5V233.6ZM35.5191 221.606L40.0191 232.606L42.9809 231.394L38.4809 220.394L35.5191 221.606ZM23 222.6H37V219.4H23V222.6ZM18.3071 230.423L24.3071 221.923L21.6929 220.077L15.6929 228.577L18.3071 230.423ZM15.4 222.5V229.5H18.6V222.5H15.4ZM10.1766 227.45L17.6766 223.95L16.3234 221.05L8.82338 224.55L10.1766 227.45ZM11.1 236.5V226H7.9V236.5H11.1ZM1645.74 102.6H1668.2V99.4H1645.74V102.6ZM1644.38 104.305C1644.18 103.43 1644.85 102.6 1645.74 102.6V99.4C1642.8 99.4 1640.61 102.128 1641.25 105.002L1644.38 104.305ZM1655.23 152.963L1644.38 104.305L1641.25 105.002L1652.11 153.66L1655.23 152.963ZM1657.96 152.983C1657.61 154.427 1655.55 154.412 1655.23 152.963L1652.11 153.659C1653.17 158.422 1659.94 158.471 1661.07 153.725L1657.96 152.983ZM1669.56 104.325L1657.96 152.983L1661.07 153.725L1672.68 105.067L1669.56 104.325ZM1668.2 102.6C1669.11 102.6 1669.77 103.445 1669.56 104.325L1672.68 105.067C1673.36 102.176 1671.17 99.4 1668.2 99.4V102.6ZM1606.74 322.37L1655.15 177.577L1652.12 176.562L1603.7 321.355L1606.74 322.37ZM1608.39 324.175C1607.32 324.433 1606.39 323.414 1606.74 322.37L1603.7 321.355C1602.55 324.783 1605.63 328.133 1609.14 327.286L1608.39 324.175ZM1697.46 302.708L1608.39 324.175L1609.14 327.286L1698.21 305.818L1697.46 302.708ZM1698.46 300.908C1698.72 301.686 1698.26 302.516 1697.46 302.708L1698.21 305.818C1700.82 305.188 1702.34 302.46 1701.5 299.906L1698.46 300.908ZM1657.81 177.583L1698.46 300.908L1701.5 299.906L1660.85 176.581L1657.81 177.583ZM1655.15 177.577C1655.58 176.3 1657.39 176.303 1657.81 177.583L1660.85 176.581C1659.46 172.377 1653.52 172.364 1652.12 176.562L1655.15 177.577Z" fill="#A296E5" mask="url(#path-3-outside-2)"/>
<rect x="1353" y="101" width="6" height="265" rx="3" fill="#A296E5"/>
<rect x="1620" y="33.6534" width="3" height="123.761" rx="1.5" transform="rotate(-12.58 1620 33.6534)" fill="#A296E5"/>
<rect x="1647.94" y="174" width="3" height="153.357" rx="1.5" transform="rotate(18.4754 1647.94 174)" fill="#A296E5"/>
<path d="M1685 43L1401.5 360M1685 43L1416 357.5M1685 43V306.5M1685 43L1676 309M1685 43L1667.5 311M1685 43L1658.5 313M1685 43L1693 305.5M1685 43L1701 301.5M1685 43L1724.5 309M1685 43L1711.5 304" stroke="#262447" stroke-width="1.6" stroke-linecap="round"/>
<path d="M1430.5 355L1680 60.5L1445.5 352.5" stroke="#262447" stroke-width="1.6" stroke-linecap="round"/>
<path d="M1461 350L1676 78.5L1474.5 348.5" stroke="#262447" stroke-width="1.6" stroke-linecap="round"/>
<path d="M1488.5 345.5L1671 98L1501.5 344" stroke="#262447" stroke-width="1.6" stroke-linecap="round"/>
<path d="M1515 341.5L1669 114L1528 339.5" stroke="#262447" stroke-width="1.6" stroke-linecap="round"/>
<path d="M1541 337L1664 135L1554.5 335" stroke="#262447" stroke-width="1.6" stroke-linecap="round"/>
<path d="M1658.5 155L1568.5 332" stroke="#262447" stroke-width="1.6" stroke-linecap="round"/>
<path d="M1629 43.5L1893 339M1629 43.5L1881 339M1629 43.5V320M1629 43.5L1620.5 322M1629 43.5L1604.5 323M1629 43.5L1612.5 324M1629 43.5L1637 318.5M1629 43.5L1645 316.5M1629 43.5L1652 314.5M1629 43.5L1582 330.5M1629 43.5L1595 326" stroke="#262447" stroke-width="1.6" stroke-linecap="round"/>
<path d="M1866.5 336L1633.03 60.5926L1852 334" stroke="#262447" stroke-width="1.6" stroke-linecap="round"/>
<path d="M1838 332L1638 80L1824 330" stroke="#262447" stroke-width="1.6" stroke-linecap="round"/>
<path d="M1811 327.5L1642.07 98.291L1799 326" stroke="#262447" stroke-width="1.6" stroke-linecap="round"/>
<path d="M1785.83 323L1644.08 114.376L1772.5 320" stroke="#262447" stroke-width="1.6" stroke-linecap="round"/>
<path d="M1760 317.5L1649.11 135.487L1747 314" stroke="#262447" stroke-width="1.6" stroke-linecap="round"/>
<path d="M1654.64 155.593L1734.5 311.5" stroke="#262447" stroke-width="1.6" stroke-linecap="round"/>
</svg>
